<?xml version="1.0" standalone="no"?>
<!DOCTYPE svg PUBLIC "-//W3C//DTD SVG 20010904//EN"
 "http://www.w3.org/TR/2001/REC-SVG-20010904/DTD/svg10.dtd">
<svg version="1.0" xmlns="http://www.w3.org/2000/svg"
 width="640.000000pt" height="640.000000pt" viewBox="0 0 640.000000 640.000000"
 preserveAspectRatio="xMidYMid meet">
<metadata>
Created by potrace 1.11, written by Peter Selinger 2001-2013
</metadata>
<g transform="translate(0.000000,640.000000) scale(0.100000,-0.100000)"
fill="#000000" stroke="none">
<path d="M0 3200 l0 -3200 3200 0 3200 0 0 3200 0 3200 -3200 0 -3200 0 0
-3200z m4720 0 l0 -1520 -1520 0 -1520 0 0 1520 0 1520 1520 0 1520 0 0 -1520z"/>
<path d="M3101 3819 c-356 -70 -586 -404 -517 -749 61 -305 321 -519 632 -520
283 -1 542 204 614 486 73 284 -69 594 -330 721 -130 64 -276 86 -399 62z"/>
</g>
</svg>
