<?xml version="1.0" standalone="no"?>
<!DOCTYPE svg PUBLIC "-//W3C//DTD SVG 1.1//EN" "http://www.w3.org/Graphics/SVG/1.1/DTD/svg11.dtd" >
<svg xmlns="http://www.w3.org/2000/svg" xmlns:xlink="http://www.w3.org/1999/xlink" version="1.1">
<metadata>
Created by FontForge 20170731 at Mon Mar  5 22:55:12 2012
 By ,,,
Copyright (c) 2010 ParaType Inc., ParaType Ltd. All rights reserved.
</metadata>
<defs>
<font id="PTMono-Bold" horiz-adv-x="600" >
  <font-face 
    font-family="PT Mono"
    font-weight="700"
    font-stretch="normal"
    units-per-em="1000"
    panose-1="2 6 7 9 2 2 5 2 2 4"
    ascent="770"
    descent="-230"
    x-height="500"
    cap-height="700"
    bbox="-52 -235 754 945"
    underline-thickness="50"
    underline-position="-150"
    unicode-range="U+0020-FB02"
  />
<missing-glyph 
d="M10 700h580v-700h-580v700zM495 630l-195 -217l-195 217l-50 -50l197 -220l-197 -220l50 -50l195 217l195 -217l50 50l-198 220l198 220z" />
    <glyph glyph-name=".notdef" 
d="M10 700h580v-700h-580v700zM495 630l-195 -217l-195 217l-50 -50l197 -220l-197 -220l50 -50l195 217l195 -217l50 50l-198 220l198 220z" />
    <glyph glyph-name=".null" horiz-adv-x="0" 
 />
    <glyph glyph-name="nonmarkingreturn" 
 />
    <glyph glyph-name="space" unicode=" " 
 />
    <glyph glyph-name="exclam" unicode="!" 
d="M233 700h134v-329l-26 -163h-82l-26 163v329zM219 66q0 35 22 55.5t58 20.5q38 0 60 -20.5t22 -55.5t-22 -56t-60 -21q-36 0 -58 21t-22 56z" />
    <glyph glyph-name="quotedbl" unicode="&#x22;" 
d="M130 700h114l-36 -316h-78v316zM347 700h114l-36 -316h-78v316z" />
    <glyph glyph-name="numbersign" unicode="#" 
d="M310 205h-89l-36 -154h-107l36 154h-74l22 97h75l25 106h-72l22 97h73l35 144h106l-34 -144h89l35 144h106l-34 -144h72l-25 -97h-70l-25 -106h69l-24 -97h-68l-36 -154h-107zM244 302h89l25 106h-89z" />
    <glyph glyph-name="dollar" unicode="$" 
d="M245 -13q-57 2 -100 12t-67 23l39 113q18 -11 50.5 -21t77.5 -14v205q-31 14 -61.5 31t-54.5 41t-38.5 57.5t-14.5 79.5q0 86 45.5 133.5t123.5 61.5v91h104v-87q44 -3 77 -12t61 -21l-36 -111q-17 8 -43 16t-59 12v-187q31 -14 62.5 -31.5t56 -41.5t40 -56.5t15.5 -77.5
q0 -92 -46.5 -143.5t-127.5 -66.5v-93h-104v87zM391 188q0 32 -24.5 52.5t-60.5 37.5v-178q44 5 64.5 28t20.5 60zM208 525q0 -30 22.5 -50t57.5 -37v162q-47 -2 -63.5 -23t-16.5 -52z" />
    <glyph glyph-name="percent" unicode="%" 
d="M16 542q0 90 38.5 130t107.5 40q68 0 106.5 -38t38.5 -132t-38.5 -132t-106.5 -38q-69 0 -107.5 38t-38.5 132zM113 542q0 -86 49 -86q23 0 35.5 18.5t12.5 67.5q0 48 -12.5 67t-35.5 19t-36 -19t-13 -67zM520 709l58 -53l-507 -670l-56 57zM293 170q0 90 38.5 130
t107.5 40q68 0 106.5 -38t38.5 -132t-38.5 -132t-106.5 -38q-69 0 -107.5 38t-38.5 132zM390 170q0 -86 49 -86q23 0 35.5 18.5t12.5 67.5q0 48 -12.5 67t-35.5 19t-36 -19t-13 -67z" />
    <glyph glyph-name="ampersand" unicode="&#x26;" 
d="M12 194q0 38 11.5 72t30.5 63t43.5 54t50.5 45q-30 33 -47.5 69.5t-17.5 74.5q0 25 9.5 50.5t30 46t53.5 33t80 12.5q46 0 78.5 -11t52.5 -29t29 -41t9 -47q0 -41 -31.5 -87t-101.5 -87q35 -54 72.5 -97.5t80.5 -87.5q11 12 19.5 31t14 40t8 42.5t2.5 39.5h102
q-1 -77 -22.5 -135.5t-44.5 -86.5q12 -12 30 -23.5t35 -19.5v-129q-45 11 -80.5 33.5t-64.5 50.5q-18 -17 -39 -32t-46.5 -26.5t-57 -18.5t-70.5 -7q-47 0 -87.5 14t-69.5 41t-45.5 65.5t-16.5 87.5zM366 149q-51 53 -90 102.5t-70 96.5q-31 -30 -47.5 -65t-16.5 -78
q0 -26 8.5 -46t23.5 -34t34 -21.5t40 -7.5q40 0 70 16.5t48 36.5zM213 566q0 -42 36 -90q39 25 56.5 47t17.5 42q0 24 -13.5 38t-43.5 14q-27 0 -40 -14t-13 -37z" />
    <glyph glyph-name="quotesingle" unicode="'" 
d="M243 700h114l-36 -316h-78v316z" />
    <glyph glyph-name="parenleft" unicode="(" 
d="M455 -212q-70 11 -136 44t-117 89t-81.5 136t-30.5 186q0 105 30.5 185.5t81.5 137.5t117 91t136 47l24 -107q-35 -8 -79.5 -28.5t-84.5 -61t-67.5 -104.5t-27.5 -160q0 -92 29 -155t70.5 -103.5t85.5 -61t74 -26.5z" />
    <glyph glyph-name="parenright" unicode=")" 
d="M120 -103q30 6 74 26.5t85.5 61t70.5 103.5t29 155q0 96 -27.5 160t-67.5 104.5t-84.5 61t-79.5 28.5l24 107q70 -13 136 -47t117 -91t81.5 -137.5t30.5 -185.5q0 -106 -30.5 -186t-81.5 -136t-117 -89t-136 -44z" />
    <glyph glyph-name="asterisk" unicode="*" 
d="M225 731l72 -176l72 175l108 -60l-132 -159l205 26v-122l-195 27l126 -149l-107 -62l-79 184l-70 -180l-108 63l124 144l-191 -27v125l199 -29l-132 158z" />
    <glyph glyph-name="plus" unicode="+" 
d="M49 394h192v199h117v-199h193v-112h-193v-201h-117v201h-192v112z" />
    <glyph glyph-name="comma" unicode="," 
d="M218 64q0 34 22.5 54t56.5 20q55 0 83 -36t28 -89q0 -45 -17.5 -82t-45.5 -64t-62.5 -44t-68.5 -23l-27 55q24 6 48.5 17t44.5 27.5t33.5 38.5t15.5 48q-30 -6 -51 -1.5t-34.5 16t-19.5 28t-6 35.5z" />
    <glyph glyph-name="hyphen" unicode="-" 
d="M154 345h291v-115h-291v115z" />
    <glyph glyph-name="period" unicode="." 
d="M219 66q0 35 22 55.5t58 20.5q38 0 60 -20.5t22 -55.5t-22 -56t-60 -21q-36 0 -58 21t-22 56z" />
    <glyph glyph-name="slash" unicode="/" 
d="M429 712l98 -44l-357 -808l-98 46z" />
    <glyph glyph-name="zero" unicode="0" 
d="M38 351q0 91 19 159.5t53.5 113.5t82.5 67.5t107 22.5q126 0 194 -88.5t68 -274.5q0 -92 -19 -160.5t-53.5 -114t-83 -68t-107.5 -22.5q-127 0 -194 93.5t-67 271.5zM434 351q0 16 -0.5 30.5t-1.5 28.5l-245 -223q31 -91 113 -91q64 0 99 61t35 194zM166 351
q0 -15 0.5 -28.5t1.5 -27.5l244 223q-30 86 -113 86q-64 0 -98.5 -61.5t-34.5 -191.5z" />
    <glyph glyph-name="one" unicode="1" 
d="M106 110h153v437l-132 -101l-60 80l228 174h88v-590h150v-110h-427v110z" />
    <glyph glyph-name="two" unicode="2" 
d="M523 0h-446v97q12 10 30 26.5t40.5 37.5t47.5 46t49 52q34 38 59.5 69t42 58.5t24.5 54t8 54.5q0 20 -9 39t-25 33.5t-38.5 23t-49.5 8.5q-36 0 -65.5 -11t-61.5 -37l-52 92q42 30 93.5 50.5t118.5 20.5q43 0 82.5 -12t70 -35.5t48.5 -58.5t18 -81q0 -32 -5.5 -59.5
t-17 -55t-30 -56.5t-44.5 -63q-20 -26 -43.5 -52.5t-46.5 -50.5t-45.5 -45t-40.5 -35h288v-110z" />
    <glyph glyph-name="three" unicode="3" 
d="M248 96q33 0 60.5 8.5t47 24t30.5 36t11 44.5q0 30 -12.5 50.5t-34.5 32.5t-53 17t-67 5h-56v71l168 205h-253v110h408v-91l-176 -201h23q35 0 68 -12t58.5 -36t41 -60t15.5 -83q0 -57 -23.5 -100t-62 -72.5t-88.5 -44t-103 -14.5q-45 0 -90 8t-87 25l35 108
q9 -5 24.5 -10t35 -10t40 -8t40.5 -3z" />
    <glyph glyph-name="four" unicode="4" 
d="M577 195h-120v-195h-121v195h-303v89l317 421h107v-406h120v-104zM336 521l-174 -222h174v222z" />
    <glyph glyph-name="five" unicode="5" 
d="M237 101q33 0 61 8t48.5 23t32 37t11.5 50q0 55 -43.5 86.5t-130.5 31.5q-11 0 -25.5 -0.5t-27.5 -1.5q-15 -1 -31 -1v366h362v-120h-250v-137q8 0 16 1q7 0 13.5 0.5t11.5 0.5q50 0 93 -14.5t75 -43.5t49.5 -70.5t17.5 -91.5q0 -59 -22 -103.5t-60 -74.5t-88 -45.5
t-107 -15.5q-22 0 -47 4.5t-49 11t-44.5 14.5t-34.5 15l42 104q17 -10 52.5 -22t74.5 -12z" />
    <glyph glyph-name="six" unicode="6" 
d="M546 217q0 -49 -18.5 -91t-50.5 -73t-76.5 -49t-95.5 -18q-52 0 -97.5 16.5t-79.5 49.5t-54 83t-20 116q0 99 34.5 180t88.5 140.5t121 96t133 46.5l29 -103q-53 -10 -99 -32.5t-82 -54.5t-60.5 -71t-33.5 -81q20 25 60 42.5t88 17.5q45 0 84 -14.5t67.5 -42t45 -67.5
t16.5 -91zM420 212q0 54 -32.5 82t-87.5 28q-40 0 -72 -18t-47 -42q-2 -11 -2.5 -24.5t-0.5 -21.5q0 -24 8 -46t23.5 -38.5t37.5 -26t51 -9.5q23 0 45 8.5t39 23.5t27.5 36.5t10.5 47.5z" />
    <glyph glyph-name="seven" unicode="7" 
d="M102 0l288 582h-326v118h456v-98l-291 -602h-127z" />
    <glyph glyph-name="eight" unicode="8" 
d="M60 171q0 35 11.5 64t30 52t42.5 41.5t49 32.5q-50 29 -83 68.5t-33 99.5q0 39 17 73t47.5 59t72.5 39t91 14q45 0 84.5 -12t69.5 -34t47 -53.5t17 -69.5q0 -59 -30.5 -103t-83.5 -76q60 -31 95.5 -73t35.5 -108q0 -45 -19.5 -81.5t-52.5 -62.5t-77.5 -40.5t-94.5 -14.5
t-93 13.5t-75 37.5t-50 58t-18 76zM416 188q0 25 -13 43t-32.5 32t-43 25.5t-45.5 23.5q-50 -22 -77 -56.5t-27 -65.5q0 -45 32 -69.5t89 -24.5q51 0 84 23.5t33 68.5zM201 523q0 -24 10.5 -40.5t27 -29t37.5 -22.5l42 -20q16 8 31.5 20t27.5 26.5t19.5 30t7.5 31.5
q0 21 -9 36.5t-23.5 26.5t-32.5 16.5t-37 5.5q-22 0 -40.5 -7t-32 -18t-21 -26t-7.5 -30z" />
    <glyph glyph-name="nine" unicode="9" 
d="M54 481q0 51 17.5 94t49 73.5t76 48t99.5 17.5q56 0 102 -17t79 -50.5t51 -83t18 -113.5q0 -116 -30 -200t-80.5 -140t-117.5 -86t-140 -38l-28 102q55 7 99.5 27t77.5 49.5t54 67t27 80.5q-21 -21 -54 -33.5t-79 -12.5h-2q-38 0 -77 13t-70.5 40t-51.5 67.5t-20 94.5z
M180 488q0 -28 10.5 -49.5t27.5 -36t39.5 -22t46.5 -7.5q41 0 71 13t44 32q3 21 3 40q0 28 -8 55t-24 48t-40 33.5t-55 12.5q-49 0 -82 -31.5t-33 -87.5z" />
    <glyph glyph-name="colon" unicode=":" 
d="M219 428q0 35 22 55.5t58 20.5q38 0 60 -20.5t22 -55.5t-22 -56t-60 -21q-36 0 -58 21t-22 56zM219 66q0 35 22 55.5t58 20.5q38 0 60 -20.5t22 -55.5t-22 -56t-60 -21q-36 0 -58 21t-22 56z" />
    <glyph glyph-name="semicolon" unicode=";" 
d="M218 64q0 34 22.5 54t56.5 20q55 0 83 -36t28 -89q0 -45 -17.5 -82t-45.5 -64t-62.5 -44t-68.5 -23l-27 55q24 6 48.5 17t44.5 27.5t33.5 38.5t15.5 48q-30 -6 -51 -1.5t-34.5 16t-19.5 28t-6 35.5zM219 428q0 35 22 55.5t58 20.5q38 0 60 -20.5t22 -55.5t-22 -56
t-60 -21q-36 0 -58 21t-22 56z" />
    <glyph glyph-name="less" unicode="&#x3c;" 
d="M36 295v50l467 290l57 -90l-364 -220l364 -215l-57 -90z" />
    <glyph glyph-name="equal" unicode="=" 
d="M59 490h482v-112h-482v112zM59 298h482v-112h-482v112z" />
    <glyph glyph-name="greater" unicode="&#x3e;" 
d="M93 20l-57 90l364 215l-364 220l57 90l467 -290v-50z" />
    <glyph glyph-name="question" unicode="?" 
d="M209 208q-1 8 -1.5 15.5t-0.5 15.5q0 44 14 76t35.5 55.5t46.5 41t46.5 35t35.5 36t14 44.5q0 35 -29 56t-90 21q-31 0 -57 -9t-48 -21.5t-39 -26t-30 -22.5l-63 84q24 26 54.5 46t64.5 33t70 19.5t71 6.5q109 0 169.5 -45.5t60.5 -122.5q0 -51 -15.5 -84.5t-39.5 -57
t-51.5 -41.5t-51 -38.5t-39.5 -47.5t-16 -69h-111zM189 66q0 35 22 55.5t58 20.5q38 0 60 -20.5t22 -55.5t-22 -56t-60 -21q-36 0 -58 21t-22 56z" />
    <glyph glyph-name="at" unicode="@" 
d="M348 590q61 0 101 -17t62.5 -44.5t31.5 -63.5t9 -74q0 -46 -1 -79t-2.5 -57t-2.5 -40.5t-1 -30.5q0 -21 2 -47q2 -14 3 -27h45v-110h-136l-13 68h-5q-10 -15 -20.5 -29t-25 -24.5t-33.5 -16.5t-46 -6q-36 0 -65 13t-49 35t-30.5 51t-10.5 62q0 85 49 130.5t135 45.5
q18 0 38 -2t49 -4q2 10 2 20v19q0 19 -1.5 40t-10.5 39t-28 30t-54 12q-43 0 -83 -17t-70.5 -52.5t-49 -90t-18.5 -129.5q0 -60 17 -113t49.5 -92.5t80 -62t109.5 -22.5q29 0 66 7t67 21l31 -96q-41 -20 -83.5 -28t-97.5 -8q-86 0 -151.5 31.5t-109.5 85.5t-67 125t-23 151
q0 102 30 176.5t79 123.5t109.5 73t122.5 24zM346 99q35 0 55.5 17.5t31.5 37.5v80q-10 2 -30 4.5t-43 2.5q-29 0 -52 -16.5t-23 -51.5q0 -28 15 -51t46 -23z" />
    <glyph glyph-name="A" unicode="A" 
d="M400 155h-209l-48 -155h-137l226 700h137l225 -700h-144zM223 265h150l-71 234h-9z" />
    <glyph glyph-name="B" unicode="B" 
d="M533 537q0 -26 -6.5 -52t-21.5 -47.5t-39 -38t-58 -24.5v-6q30 -5 57 -17t47 -33t31.5 -51t11.5 -71q0 -54 -23 -93.5t-61.5 -64.5t-87.5 -37t-101 -12h-43.5t-57 1.5t-62 4.5t-57.5 9v690q19 3 43.5 6t52.5 5t57.5 3t58.5 1q49 0 95.5 -7.5t83 -26.5t58.5 -53t22 -86z
M283 103q25 0 48.5 6t41.5 18.5t29 31.5t11 45q0 33 -13 52t-34 29.5t-47 13.5t-52 3h-73v-193q5 -2 16 -3t23.5 -1.5t26 -1t23.5 -0.5zM238 406q14 0 32.5 1t30.5 3q38 12 65.5 36t27.5 63q0 26 -10 43t-26.5 27t-37.5 14t-44 4q-26 0 -48 -1t-34 -3v-187h44z" />
    <glyph glyph-name="C" unicode="C" 
d="M444 235h110v-200q-32 -23 -81.5 -36t-101.5 -13q-66 0 -125.5 19.5t-104.5 63t-72 113t-27 168.5q0 103 30.5 172.5t78.5 112t107 61t116 18.5q60 0 101.5 -10t68.5 -23v-208h-110v114q-31 5 -64 5q-39 0 -72.5 -14.5t-58.5 -44.5t-39 -75.5t-14 -107.5q0 -54 13 -98.5
t38 -76.5t61 -49.5t82 -17.5q33 0 64 6v121z" />
    <glyph glyph-name="D" unicode="D" 
d="M50 700q9 1 31.5 3t51 3.5t59 2.5t54.5 1q93 0 154 -27t96.5 -74.5t49.5 -112t14 -140.5q0 -69 -14 -135t-50.5 -117.5t-101 -83t-165.5 -31.5q-16 0 -41 1t-51 2.5t-50 3t-37 3.5v701zM251 588q-19 0 -37 -1.5t-27 -2.5v-469q4 -1 12 -1.5t16.5 -1t16.5 -1t13 -0.5
q58 0 92.5 21.5t51.5 56.5t22 79t5 88q0 38 -4.5 79t-21 75t-49.5 56t-90 22z" />
    <glyph glyph-name="E" unicode="E" 
d="M70 700h459v-122h-322v-163h297v-122h-297v-171h327v-122h-464v700z" />
    <glyph glyph-name="F" unicode="F" 
d="M84 700h444v-122h-307v-173h285v-122h-285v-283h-137v700z" />
    <glyph glyph-name="G" unicode="G" 
d="M323 365h239v-316q-34 -31 -88.5 -47t-111.5 -16q-67 0 -125.5 23t-101.5 69.5t-68 115t-25 160.5q0 97 30 165t77.5 111.5t106.5 63.5t117 20q60 0 100 -9.5t73 -24.5v-207h-110v111l-16 4q-20 4 -44 4q-41 0 -76 -14t-60.5 -43.5t-39.5 -75.5t-14 -110q0 -57 14 -102
t39 -76t59.5 -47t74.5 -16q26 0 47.5 6t29.5 12v139h-127v100z" />
    <glyph glyph-name="H" unicode="H" 
d="M413 293h-226v-293h-137v700h137v-285h226v285h137v-700h-137v293z" />
    <glyph glyph-name="I" unicode="I" 
d="M54 122h177v456h-177v122h492v-122h-178v-456h178v-122h-492v122z" />
    <glyph glyph-name="J" unicode="J" 
d="M92 700h418v-446q0 -57 -14.5 -107t-52.5 -89q-24 -24 -51.5 -38t-53.5 -21t-49 -9t-38 -2q-48 0 -93 10.5t-90 37.5l49 110q38 -22 65.5 -29t63.5 -7q22 0 47.5 8.5t44.5 28.5q35 38 35 106v325h-281v122z" />
    <glyph glyph-name="K" unicode="K" 
d="M256 292h-71v-292h-137v700h137v-286h71l160 286h156l-197 -338l222 -362h-169z" />
    <glyph glyph-name="L" unicode="L" 
d="M414 285h124v-285h-460v700h137v-578h199v163z" />
    <glyph glyph-name="M" unicode="M" 
d="M423 373l5 109h-6l-112 -183h-24l-117 183h-5l6 -98v-384h-130v700h139l120 -194h4l119 194h138v-700h-137v373z" />
    <glyph glyph-name="N" unicode="N" 
d="M185 414h-5l6 -83v-331h-130v700h120l242 -428h5l-9 84v344h130v-700h-120z" />
    <glyph glyph-name="O" unicode="O" 
d="M36 350q0 85 16 153t49 114.5t82.5 71.5t116.5 25q72 0 122 -27t81.5 -75t46 -115t14.5 -147q0 -171 -65.5 -267.5t-198.5 -96.5q-72 0 -122.5 27t-82 75t-45.5 115t-14 147zM180 350q0 -51 4.5 -95t17 -76.5t36 -51.5t62.5 -19q35 0 58 14.5t37 44.5t19.5 75.5
t5.5 107.5q0 49 -3.5 93t-16 77t-36.5 52.5t-64 19.5q-70 0 -95 -61t-25 -181z" />
    <glyph glyph-name="P" unicode="P" 
d="M73 693q42 8 92.5 12.5t100.5 4.5q52 0 104.5 -8.5t94.5 -34t68.5 -71t26.5 -118.5q0 -64 -23 -109.5t-61 -75t-86.5 -43t-100.5 -13.5h-16t-23 0.5t-23.5 1.5t-16.5 2v-241h-137v693zM277 592q-20 0 -38 -1.5t-29 -3.5v-227q4 -1 12 -2t17 -1.5t17.5 -0.5h12.5
q27 0 53.5 5t47.5 18.5t33.5 37.5t12.5 63q0 33 -12 54.5t-31.5 34.5t-44.5 18t-51 5z" />
    <glyph glyph-name="Q" unicode="Q" 
d="M548 -148q-26 -19 -55.5 -26t-57.5 -7q-48 0 -83.5 15t-60.5 41q-28 30 -42 74q-7 21 -10 43q-34 7 -62 21q-50 27 -81.5 75t-45.5 115t-14 147q0 85 16 153t49 114.5t82.5 71.5t116.5 25q72 0 122 -27t81.5 -75t46 -115t14.5 -147q0 -171 -66 -268q-48 -71 -133 -89
q4 -21 18 -37q11 -14 29 -20.5t41 -6.5q21 0 38.5 6t28.5 14zM180 350q0 -51 4.5 -95t17 -76.5t36 -51.5t62.5 -19q35 0 58 14.5t37 44.5t19.5 75.5t5.5 107.5q0 49 -3.5 93t-16 77t-36.5 52.5t-64 19.5q-70 0 -95 -61t-25 -181z" />
    <glyph glyph-name="R" unicode="R" 
d="M62 693q23 4 49.5 7.5t53 5.5t51.5 3t46 1q49 0 96.5 -9.5t85 -32.5t60 -62t22.5 -97q0 -43 -8.5 -74.5t-23.5 -55.5t-36.5 -41.5t-46.5 -31.5l169 -306h-158l-141 274h-82v-274h-137v693zM272 588q-21 0 -41.5 -1t-31.5 -4v-203h54q57 0 93 26t36 86q0 45 -28 70.5
t-82 25.5z" />
    <glyph glyph-name="S" unicode="S" 
d="M65 229h110v-99l6 -2q23 -10 50.5 -16.5t58.5 -6.5q56 0 87 22.5t31 60.5q0 34 -25.5 55t-63 37t-82 32t-82 40.5t-63 61.5t-25.5 96q0 45 17.5 82.5t49 64.5t75.5 42t98 15q61 0 120 -11t94 -30v-203h-110v111q-3 0 -6 1q-22 6 -47.5 9.5t-50.5 3.5q-48 0 -75.5 -19
t-27.5 -51q0 -33 25.5 -54t63 -38t82 -34t82 -41.5t63 -61.5t25.5 -93q0 -54 -20 -94.5t-56 -68t-85 -41t-106 -13.5q-38 0 -70.5 6t-60 15t-48.5 19t-34 17v186z" />
    <glyph glyph-name="T" unicode="T" 
d="M118 110h114v480h-96v-121h-110v231h548v-231h-110v121h-95v-480h113v-110h-364v110z" />
    <glyph glyph-name="U" unicode="U" 
d="M420 700h130v-448q0 -68 -18 -117.5t-50.5 -82t-77.5 -48.5t-99 -16q-130 0 -192.5 63t-62.5 184v465h137v-438q0 -80 29 -116t91 -36q60 0 86.5 38.5t26.5 113.5v438z" />
    <glyph glyph-name="V" unicode="V" 
d="M306 187h5l138 513h142l-210 -700h-156l-216 700h153z" />
    <glyph glyph-name="W" unicode="W" 
d="M175 309l2 -84h4l17 79l60 186h102l56 -186l18 -79h4l2 86l28 389h126l-72 -700h-116l-75 221l-23 96h-5l-24 -96l-81 -221h-120l-72 700h137z" />
    <glyph glyph-name="X" unicode="X" 
d="M220 359l-198 341h160l102 -190l23 -51l22 51l104 190h155l-201 -342l207 -358h-160l-107 200l-27 54l-26 -54l-112 -200h-155z" />
    <glyph glyph-name="Y" unicode="Y" 
d="M232 258l-226 442h163l135 -289h5l138 289h147l-225 -441v-259h-137v258z" />
    <glyph glyph-name="Z" unicode="Z" 
d="M53 122l328 456h-312v122h473v-122l-323 -456h328v-122h-494v122z" />
    <glyph glyph-name="bracketleft" unicode="[" 
d="M92 700h395v-110h-271v-710h271v-110h-395v930z" />
    <glyph glyph-name="backslash" unicode="\" 
d="M531 -95l-99 -45l-363 808l102 43z" />
    <glyph glyph-name="bracketright" unicode="]" 
d="M507 -230h-395v110h271v710h-271v110h395v-930z" />
    <glyph glyph-name="asciicircum" unicode="^" 
d="M281 705h49l242 -365h-131l-140 227l-153 -227h-124z" />
    <glyph glyph-name="underscore" unicode="_" 
d="M78 -117h444v-107h-444v107z" />
    <glyph glyph-name="grave" unicode="`" 
d="M398 566h-72l-152 154h164z" />
    <glyph glyph-name="a" unicode="a" 
d="M90 466q40 18 92.5 31t124.5 13q52 0 88.5 -12.5t59 -35.5t32.5 -55t10 -72q0 -51 -3.5 -87t-3.5 -64q0 -21 2 -47q2 -14 3 -27h65v-110h-166l-13 68h-5q-20 -31 -57 -53.5t-100 -22.5q-75 0 -119 40t-44 106q0 42 15.5 72.5t45 50t71 29t92.5 9.5q18 0 38 -2t49 -4
q2 10 2 20v19q0 38 -22 54.5t-65 16.5q-51 0 -92 -13t-69 -26zM261 99q48 0 72 17.5t35 37.5v60q-10 2 -30 4.5t-43 2.5q-19 0 -38 -3.5t-34 -11t-24 -19.5t-9 -29q0 -28 16.5 -43.5t54.5 -15.5z" />
    <glyph glyph-name="b" unicode="b" 
d="M-13 700h207v-240h4q21 24 56.5 38t87.5 14q99 0 158.5 -62t59.5 -187q0 -67 -20 -118.5t-56.5 -86t-89 -52.5t-118.5 -18q-78 0 -130.5 18t-81.5 36v548h-77v110zM306 402q-14 0 -31 -5t-32.5 -14t-29 -22.5t-19.5 -30.5v-208q16 -8 44 -16t60 -8q26 0 49.5 9.5t41 29.5
t27.5 50t10 72q0 71 -30.5 107t-89.5 36z" />
    <glyph glyph-name="c" unicode="c" 
d="M546 48q-41 -31 -96 -46.5t-115 -15.5q-65 0 -115.5 19t-85 53.5t-52.5 83.5t-18 108q0 63 21 112t58.5 83t88.5 51.5t111 17.5q56 0 105 -13t75 -25v-176h-110v92q-31 7 -62 7q-28 0 -55.5 -8.5t-49 -27t-35 -46.5t-13.5 -67q0 -32 11 -59t31 -47t49.5 -31.5t65.5 -11.5
q57 0 93.5 16t54.5 28z" />
    <glyph glyph-name="d" unicode="d" 
d="M306 700h209v-432q0 -75 8 -148q0 -5 1 -10h64v-110h-161l-13 64h-4q-10 -18 -27 -32t-38 -24.5t-46 -16t-50 -5.5q-47 0 -88.5 15t-72.5 46.5t-49 80t-18 114.5q0 64 19.5 114t54 84.5t81.5 53t103 18.5q31 0 58.5 -3.5t47.5 -11.5v93h-79v110zM279 96q38 0 67.5 18.5
t38.5 53.5v212q-14 11 -38.5 16.5t-51.5 5.5t-52.5 -9t-45 -28.5t-31 -50.5t-11.5 -76q0 -64 32 -103t92 -39z" />
    <glyph glyph-name="e" unicode="e" 
d="M534 53q-13 -12 -33.5 -23.5t-48 -21.5t-60.5 -16t-70 -6q-64 0 -114.5 18t-85.5 52.5t-53.5 83t-18.5 110.5q0 66 21 115.5t57.5 82.5t85.5 49.5t106 16.5q38 0 78.5 -10t74.5 -34.5t55.5 -65.5t21.5 -104q0 -43 -10 -93h-360q1 -32 13.5 -54t33 -36t47 -20.5t56.5 -6.5
q60 0 98.5 14t62.5 34zM318 410q-26 0 -49 -7t-41.5 -20.5t-30.5 -33.5t-14 -45h246q0 49 -27.5 77.5t-83.5 28.5z" />
    <glyph glyph-name="f" unicode="f" 
d="M71 0v110h118v280h-119v110h119v28q0 47 16.5 81t43.5 56t62.5 32.5t73.5 10.5q69 0 113.5 -11.5t73.5 -28.5l-38 -99q-23 11 -49.5 20t-68.5 9q-54 0 -75.5 -24.5t-21.5 -73.5h210v-110h-210v-280h211v-110h-459z" />
    <glyph glyph-name="g" unicode="g" 
d="M530 0q0 -54 -18.5 -94t-51 -66.5t-77 -39t-97.5 -12.5q-36 0 -67.5 5.5t-58 14.5t-46.5 19.5t-32 20.5l50 92q24 -16 57.5 -30.5t84.5 -14.5q63 0 96 29t33 83v32h-4q-18 -24 -53 -35.5t-81 -11.5q-48 0 -88.5 15t-70.5 45.5t-46.5 77.5t-16.5 110q0 66 19.5 117
t55 85.5t85 52t110.5 17.5q32 0 64 -2.5t60.5 -6.5t52.5 -9.5t40 -11.5v-482zM290 96q38 0 68.5 17t41.5 51v225q-14 6 -39.5 9.5t-48.5 3.5q-28 0 -52.5 -9t-43 -28.5t-29 -49t-10.5 -70.5q0 -36 9 -64t25 -47t36 -28.5t43 -9.5z" />
    <glyph glyph-name="h" unicode="h" 
d="M0 700h202v-256h4q24 32 64 51t94 19q38 0 70 -10t55 -33t36 -62.5t13 -97.5v-311h-130v284q0 61 -26 88t-68 27q-37 0 -68 -22.5t-44 -57.5v-319h-130v590h-72v110z" />
    <glyph glyph-name="i" unicode="i" 
d="M59 110h176v280h-176v110h306v-390h185v-110h-491v110zM211 636q0 31 23 53t64 22q42 0 67 -22t25 -53q0 -32 -25 -52.5t-67 -20.5q-41 0 -64 20.5t-23 52.5z" />
    <glyph glyph-name="j" unicode="j" 
d="M94 500h368v-461q0 -115 -60 -181t-180 -66q-49 0 -93 15t-76 44l58 96q11 -9 39.5 -22.5t64.5 -13.5q24 0 45.5 7.5t37.5 25t25 45.5t9 70v331h-238v110zM257 636q0 31 23 53t64 22q42 0 67 -22t25 -53q0 -32 -25 -52.5t-67 -20.5q-41 0 -64 20.5t-23 52.5z" />
    <glyph glyph-name="k" unicode="k" 
d="M0 700h212v-399h30l164 199h153l-202 -228l131 -162h93v-110h-162l-172 207h-35v-207h-130v590h-82v110z" />
    <glyph glyph-name="l" unicode="l" 
d="M87 700h213v-462q0 -77 19 -107t61 -30q31 0 51 6.5t40 18.5l49 -90q-17 -11 -34 -20.5t-36 -16t-41.5 -10t-50.5 -3.5q-94 0 -141 48t-47 136v420h-83v110z" />
    <glyph glyph-name="m" unicode="m" 
d="M241 0v306q0 30 -4 48.5t-10.5 29t-16 14t-19.5 3.5q-17 0 -31.5 -11t-19.5 -28v-362h-120v500h95l14 -55h3q15 29 44 47.5t68 18.5q33 0 63 -16t41 -56q15 35 46 53.5t67 18.5q27 0 48.5 -7.5t37.5 -26.5t24.5 -51.5t8.5 -83.5v-342h-120v320q0 45 -14.5 63t-35.5 18
q-18 0 -31 -8.5t-18 -27.5v-365h-120z" />
    <glyph glyph-name="n" unicode="n" 
d="M12 500h175l15 -66h4q23 32 66 56t103 24q37 0 69.5 -10t55.5 -33t36.5 -62.5t13.5 -97.5v-311h-130v284q0 61 -27.5 88t-69.5 27q-37 0 -67.5 -21.5t-41.5 -53.5v-324h-130v390h-72v110z" />
    <glyph glyph-name="o" unicode="o" 
d="M35 250q0 63 19 112t54 83t83.5 51.5t108.5 17.5q63 0 112.5 -19t83.5 -53.5t51.5 -83.5t17.5 -108q0 -63 -19 -112t-54 -83t-83.5 -51.5t-108.5 -17.5q-63 0 -112.5 19t-83.5 53.5t-51.5 83.5t-17.5 108zM169 250q0 -33 9 -61t26 -49t41 -32.5t55 -11.5q58 0 94.5 37
t36.5 117q0 69 -34 111.5t-97 42.5q-28 0 -52 -8.5t-41.5 -27.5t-27.5 -48t-10 -70z" />
    <glyph glyph-name="p" unicode="p" 
d="M0 500h170l15 -60h4q52 74 168 74q46 0 84.5 -14.5t66 -45.5t42.5 -78t15 -113q0 -64 -17 -115.5t-49 -87.5t-78 -55t-105 -19q-31 0 -61 4.5t-50 14.5v-205h-130v590h-75v110zM318 404q-38 0 -69.5 -19t-43.5 -57v-208q14 -11 40.5 -17.5t53.5 -6.5q28 0 52 9.5t42 30.5
t28 53t10 77q0 66 -32 102t-81 36z" />
    <glyph glyph-name="q" unicode="q" 
d="M530 -200h-130v243h-4q-17 -26 -56 -41.5t-85 -15.5t-85 16t-67 47.5t-44 79.5t-16 111q0 66 20.5 117t57.5 85.5t88.5 52t114.5 17.5q31 0 61.5 -2.5t58 -7t50 -10t36.5 -10.5v-682zM290 96q38 0 68.5 17t41.5 51v222q-15 8 -37.5 12t-46.5 4q-63 0 -101 -40t-38 -117
q0 -73 30 -111t83 -38z" />
    <glyph glyph-name="r" unicode="r" 
d="M39 110h124v280h-124v110h225l15 -66h4q28 33 64 55t84 22q60 0 94.5 -44t34.5 -147h-117q0 36 -10.5 52.5t-33.5 16.5q-40 0 -64.5 -20t-41.5 -46v-213h217v-110h-471v110z" />
    <glyph glyph-name="s" unicode="s" 
d="M402 138q0 20 -24.5 32t-60.5 22t-79 20.5t-79 29t-60.5 47t-24.5 73.5q0 37 16.5 65t45 47.5t68 29.5t85.5 10q49 0 86 -7t64.5 -17t47 -22.5t33.5 -22.5l-55 -89q-15 9 -34.5 18.5t-41 17.5t-45 13t-46.5 5q-42 0 -68 -11t-26 -34q0 -18 24.5 -29t60.5 -20.5t79 -20.5
t79 -28.5t60.5 -45.5t24.5 -72q0 -76 -55.5 -119.5t-164.5 -43.5q-86 0 -148.5 25.5t-100.5 59.5l60 94q13 -11 34.5 -24.5t48.5 -24.5t57.5 -18.5t60.5 -7.5q32 0 55 11t23 37z" />
    <glyph glyph-name="t" unicode="t" 
d="M116 390h-99v110h99v114l130 37v-151h262v-110h-262v-143q0 -77 29 -111.5t81 -34.5q27 0 49 6.5t39.5 16.5t32 22t26.5 22l60 -90q-17 -20 -42.5 -36.5t-55 -29t-61.5 -19.5t-63 -7q-112 0 -168.5 62.5t-56.5 198.5v143z" />
    <glyph glyph-name="u" unicode="u" 
d="M330 500h186v-348v-42h76v-110h-158l-23 74h-4q-23 -38 -69 -63t-102 -25q-38 0 -69.5 10t-53.5 33t-34 62t-12 98v201h-57v110h187v-284q0 -61 19.5 -88t61.5 -27q37 0 66.5 22t41.5 54v213h-56v110z" />
    <glyph glyph-name="v" unicode="v" 
d="M313 151h7l112 349h140l-191 -500h-139l-215 500h151z" />
    <glyph glyph-name="w" unicode="w" 
d="M351 380l75 -219h5l9 86l41 253h117l-101 -500h-131l-56 198h-5l-63 -198h-135l-105 500h130l49 -277l8 -62h5l74 219h83z" />
    <glyph glyph-name="x" unicode="x" 
d="M211 258l-174 242h155l113 -167l118 167h141l-171 -240l181 -260h-151l-127 184l-129 -184h-142z" />
    <glyph glyph-name="y" unicode="y" 
d="M301 141h38l97 359h134l-142 -451q-19 -56 -37 -102.5t-42 -80.5t-56.5 -52.5t-79.5 -18.5q-23 0 -43.5 6t-37.5 14.5t-30 18t-21 17.5l67 89q13 -11 31 -20.5t34 -9.5q30 0 47.5 21t33.5 69h-71l-208 500h141z" />
    <glyph glyph-name="z" unicode="z" 
d="M64 110l308 280h-308v110h472v-110l-305 -280h305v-110h-472v110z" />
    <glyph glyph-name="braceleft" unicode="{" 
d="M226 56q0 73 -36 101t-104 28v100q69 0 104.5 29.5t35.5 95.5v128q0 76 39.5 119t117.5 43h150v-110h-80q-29 0 -48.5 -4t-31.5 -15t-17 -30.5t-5 -50.5v-114q0 -66 -36 -97.5t-94 -36.5v-10q57 -4 93.5 -38.5t36.5 -99.5v-114q0 -31 5 -50.5t17 -30.5t32 -15t49 -4h79
v-110h-150q-75 0 -116 40t-41 121v125z" />
    <glyph glyph-name="bar" unicode="|" 
d="M246 700h107v-830h-107v830z" />
    <glyph glyph-name="braceright" unicode="}" 
d="M393 -69q0 -81 -41 -121t-116 -40h-150v110h79q29 0 49 4t32 15t17 30.5t5 50.5v114q0 65 36.5 99.5t93.5 38.5v10q-58 5 -94 36.5t-36 97.5v114q0 31 -5.5 50.5t-17.5 30.5t-31.5 15t-47.5 4h-80v110h150q78 0 117.5 -43t39.5 -119v-128q0 -66 35.5 -95.5t104.5 -29.5
v-100q-68 0 -104 -28t-36 -101v-125z" />
    <glyph glyph-name="asciitilde" unicode="~" 
d="M64 378q47 38 84.5 52.5t69.5 14.5q29 0 54 -8.5t48 -18t45.5 -18t45.5 -8.5q18 0 37 6t40 23l47 -103q-36 -27 -66 -38t-56 -11q-28 0 -52 9t-46.5 20t-45.5 20t-49 9q-24 0 -51.5 -10.5t-60.5 -38.5z" />
    <glyph glyph-name="uni00A0" unicode="&#xa0;" 
 />
    <glyph glyph-name="exclamdown" unicode="&#xa1;" 
d="M366 -200h-134v329l26 162h82l26 -162v-329zM219 435q0 35 22 55.5t58 20.5q38 0 60 -20.5t22 -55.5t-22 -56t-60 -21q-36 0 -58 21t-22 56z" />
    <glyph glyph-name="cent" unicode="&#xa2;" 
d="M535 33q-25 -17 -62 -27t-72 -12v-94h-121v89q-54 9 -92 30.5t-66 53.5q-36 42 -46.5 90t-10.5 87q0 57 18.5 105.5t48.5 80.5q29 30 67.5 49.5t80.5 24.5v90h121v-90q14 0 30.5 -2t33 -6t32 -9.5t27.5 -12.5l-30 -106q-25 12 -49 18t-60 7v-295q27 0 61 7.5t55 21.5z
M193 252q0 -51 23.5 -91t78.5 -53v286q-27 -3 -46 -16t-31.5 -32.5t-18.5 -43.5t-6 -50z" />
    <glyph glyph-name="sterling" unicode="&#xa3;" 
d="M64 394h68q-13 24 -22.5 54t-9.5 72q0 49 16.5 85.5t46 60.5t70.5 36t90 12q61 0 111 -11.5t86 -28.5l-42 -116q-20 11 -55 22.5t-84 11.5q-48 0 -75 -22.5t-27 -67.5q0 -34 12.5 -58.5t27.5 -49.5h141v-107h-98q3 -17 3 -34q0 -15 -1.5 -32.5t-7.5 -35.5t-19 -36
t-35 -34h276v-115h-472v115q32 1 56 11t39.5 26.5t23.5 38.5t8 46q0 27 -6 50h-121v107z" />
    <glyph glyph-name="currency" unicode="&#xa4;" 
d="M97 622l106 -108q20 12 44.5 18t51.5 6q26 0 52 -6.5t45 -17.5l106 108l77 -80l-107 -107q19 -38 19 -90q0 -51 -19 -89l107 -106l-77 -80l-108 106q-19 -11 -44.5 -16.5t-50.5 -5.5q-26 0 -50 5.5t-44 16.5l-108 -106l-76 80l107 105q-20 40 -20 90q0 25 5.5 46.5
t14.5 41.5l-107 109zM217 346q0 -38 23 -62t60 -24t59.5 24t22.5 62q0 36 -22.5 61t-59.5 25t-60 -25t-23 -61z" />
    <glyph glyph-name="yen" unicode="&#xa5;" 
d="M101 337h91l-186 363h163l135 -289h5l138 289h147l-185 -363h90v-80h-130v-58h130v-80h-130v-119h-137v119h-131v80h131v58h-131v80z" />
    <glyph glyph-name="brokenbar" unicode="&#xa6;" 
d="M246 213h107v-343h-107v343zM353 357h-107v343h107v-343z" />
    <glyph glyph-name="section" unicode="&#xa7;" 
d="M84 353q0 38 18 72t68 65q-18 13 -33.5 34t-15.5 62q0 56 43.5 92t131.5 36q59 0 110 -10t78 -23l-32 -105q-23 11 -61 19.5t-73 8.5q-37 0 -52 -11t-15 -28q0 -18 19.5 -28t49 -18t64 -18t64 -28t49 -48t19.5 -78q0 -31 -17.5 -66t-69.5 -67q21 -14 35.5 -36.5
t14.5 -63.5q0 -63 -49 -95.5t-130 -32.5q-68 0 -113.5 13.5t-74.5 29.5l34 100q23 -11 56 -22t77 -11q37 0 53.5 9.5t16.5 30.5q0 19 -19.5 29.5t-49 19t-64 18.5t-64 27.5t-49 46.5t-19.5 76zM386 345q0 18 -8.5 30t-24.5 21.5t-39 17.5t-52 17q-20 -12 -34 -31.5
t-14 -44.5q0 -35 32 -52t88 -33q22 12 37 32t15 43z" />
    <glyph glyph-name="dieresis" unicode="&#xa8;" 
d="M96 646q0 34 20.5 54.5t55.5 20.5q34 0 54 -20.5t20 -54.5q0 -32 -20 -52.5t-54 -20.5q-35 0 -55.5 20.5t-20.5 52.5zM354 646q0 34 20 54.5t54 20.5t55 -20.5t21 -54.5q0 -32 -21 -52.5t-55 -20.5t-54 20.5t-20 52.5z" />
    <glyph glyph-name="copyright" unicode="&#xa9;" 
d="M35 285q0 61 20.5 110.5t56.5 84t84 53t104 18.5t104.5 -18.5t84.5 -53t56.5 -84t20.5 -110.5t-20.5 -110t-56.5 -83.5t-84.5 -53t-104.5 -18.5q-62 0 -111 18.5t-83 53t-52.5 83.5t-18.5 110zM106 285q0 -45 14.5 -81.5t40.5 -62t61.5 -39.5t77.5 -14t78 14t62 39.5
t40.5 62t14.5 81.5q0 46 -14.5 82.5t-40.5 62t-62 39.5t-78 14t-77.5 -14t-61.5 -39.5t-40.5 -62t-14.5 -82.5zM392 168q-17 -10 -39.5 -16.5t-51.5 -6.5q-57 0 -90.5 38t-33.5 102q0 68 34.5 104.5t87.5 36.5q28 0 48.5 -6.5t39.5 -17.5l-23 -62q-14 7 -24.5 9t-20.5 2
q-21 0 -36 -16.5t-15 -51.5q0 -32 15.5 -48t40.5 -16q14 0 25 3.5t21 8.5z" />
    <glyph glyph-name="ordfeminine" unicode="&#xaa;" 
d="M151 674q26 14 73 24t107 10q76 0 104 -27.5t28 -84.5q0 -34 -1.5 -66.5t-1.5 -63.5q0 -24 1.5 -45.5t6.5 -40.5h-101l-13 46h-4q-13 -17 -37 -33.5t-67 -16.5q-52 0 -83 27.5t-31 71.5q0 31 15 52t40.5 34t60 19t74.5 6q7 0 13.5 -0.5t13.5 -0.5q2 26 -7 37.5t-44 11.5
q-41 0 -73 -8t-52 -16zM284 454q32 0 45 11.5t20 23.5v35q-9 1 -18 1.5t-17 0.5q-30 0 -48.5 -8.5t-18.5 -29.5q0 -16 10.5 -25t26.5 -9z" />
    <glyph glyph-name="guillemotleft" unicode="&#xab;" 
d="M50 259l183 258l75 -62l-137 -195l147 -186l-77 -64zM282 259l183 258l75 -62l-137 -195l147 -186l-77 -64z" />
    <glyph glyph-name="logicalnot" unicode="&#xac;" 
d="M79 412h442v-226h-120v114h-322v112z" />
    <glyph glyph-name="uni00AD" unicode="&#xad;" 
d="M154 345h291v-115h-291v115z" />
    <glyph glyph-name="registered" unicode="&#xae;" 
d="M17 451q0 67 22.5 119.5t61.5 88.5t90.5 55t108.5 19q59 0 110.5 -19t89.5 -55t60 -88.5t22 -119.5q0 -68 -22.5 -120.5t-61 -88.5t-90 -55t-108.5 -19q-59 0 -110.5 19t-90 55t-60.5 88.5t-22 120.5zM106 451q0 -50 16 -87.5t42.5 -62.5t62 -37t74.5 -12q41 0 76.5 11.5
t61.5 36.5t41 62.5t15 88.5q0 49 -15.5 86t-42 62t-62 37.5t-74.5 12.5q-44 0 -80 -14t-61.5 -39.5t-39.5 -62t-14 -82.5zM187 579q15 5 44.5 8.5t55.5 3.5q25 0 48 -4.5t40.5 -14.5t27.5 -26.5t10 -40.5q0 -26 -12 -43.5t-31 -26.5l65 -113h-85l-48 90h-43v-90h-72v257z
M278 466q21 0 38.5 6.5t17.5 29.5q0 35 -47 35q-9 0 -17.5 -1.5t-10.5 -2.5v-67h19z" />
    <glyph glyph-name="macron" unicode="&#xaf;" 
d="M138 658h323v-92h-323v92z" />
    <glyph glyph-name="degree" unicode="&#xb0;" 
d="M134 548q0 37 13 67.5t35.5 52.5t52 34t63.5 12t64.5 -11t53.5 -32.5t36 -52.5t13 -70t-13 -69.5t-36 -51.5t-53.5 -32t-64.5 -11t-63.5 11t-52 32t-35.5 51.5t-13 69.5zM234 548q0 -32 19 -50.5t46 -18.5t47 18.5t20 50.5t-20 51.5t-47 19.5t-46 -19.5t-19 -51.5z" />
    <glyph glyph-name="plusminus" unicode="&#xb1;" 
d="M79 518h162v164h117v-164h163v-112h-163v-107h-117v107h-162v112zM79 253h442v-112h-442v112z" />
    <glyph glyph-name="twosuperior" unicode="&#xb2;" 
d="M478 481v-101h-352v70q30 21 67 45.5t68.5 51t53 54t21.5 53.5q0 23 -17 37t-52 14q-39 0 -66 -14t-44 -25l-43 87q41 27 82.5 40.5t82.5 13.5q32 0 61 -6.5t55 -23.5t41 -42.5t15 -58.5q0 -32 -13 -60.5t-34 -53t-46.5 -45t-50.5 -36.5h171z" />
    <glyph glyph-name="threesuperior" unicode="&#xb3;" 
d="M343 630q48 -5 82.5 -33t34.5 -82q0 -36 -16 -62.5t-43 -44t-61.5 -26.5t-70.5 -9q-39 0 -89 11.5t-100 51.5l43 86q42 -31 77 -42.5t66 -11.5q32 0 55.5 14t23.5 37t-19.5 35t-70.5 12h-38v53l88 86h-177v95h315v-70l-100 -100v0z" />
    <glyph glyph-name="acute" unicode="&#xb4;" 
d="M260 720h158l-137 -154h-80z" />
    <glyph glyph-name="mu" unicode="&#xb5;" 
d="M189 500v-273q0 -64 20.5 -96.5t71.5 -32.5q46 0 74 23t40 64v315h130v-337q0 -41 2.5 -82.5t12.5 -80.5h-96l-32 74h-4q-17 -35 -50 -60.5t-86 -25.5q-39 0 -60 14t-39 36h-5l21 -105v-133h-130v700h130z" />
    <glyph glyph-name="mu" unicode="&#x3bc;" 
d="M189 500v-273q0 -64 20.5 -96.5t71.5 -32.5q46 0 74 23t40 64v315h130v-337q0 -41 2.5 -82.5t12.5 -80.5h-96l-32 74h-4q-17 -35 -50 -60.5t-86 -25.5q-39 0 -60 14t-39 36h-5l21 -105v-133h-130v700h130z" />
    <glyph glyph-name="paragraph" unicode="&#xb6;" 
d="M414 700h107v-830h-107v830zM229 294q-32 0 -60 16.5t-48.5 45t-31.5 65t-11 77.5q0 40 13 76.5t37 64.5t58 44.5t76 16.5h74v-830h-107v424z" />
    <glyph glyph-name="periodcentered" unicode="&#xb7;" 
d="M219 316q0 35 22 55.5t58 20.5q38 0 60 -20.5t22 -55.5t-22 -56t-60 -21q-36 0 -58 21t-22 56z" />
    <glyph glyph-name="cedilla" unicode="&#xb8;" 
d="M342 0l-24 -43q41 -4 64.5 -21.5t23.5 -53.5q0 -23 -11.5 -40t-31.5 -28.5t-47 -17.5t-58 -6t-64 6l9 48q7 -1 13 -1h11q38 0 49 9t11 21q0 28 -86 32l57 95h84z" />
    <glyph glyph-name="onesuperior" unicode="&#xb9;" 
d="M133 480h129v192l-100 -67l-49 77l169 118h95v-320h120v-100h-364v100z" />
    <glyph glyph-name="ordmasculine" unicode="&#xba;" 
d="M124 542q0 45 13 77t36.5 53t56 30.5t70.5 9.5t70 -9t55.5 -29t36.5 -52.5t13 -79.5t-13 -79.5t-36.5 -52.5t-55.5 -29t-70 -9t-70.5 9t-56 29t-36.5 52.5t-13 79.5zM241 542q0 -86 59 -86q31 0 44.5 18.5t13.5 67.5q0 48 -13.5 67t-44.5 19t-45 -19t-14 -67z" />
    <glyph glyph-name="guillemotright" unicode="&#xbb;" 
d="M359 10l-77 64l147 186l-137 195l75 62l183 -258zM127 10l-77 64l147 186l-137 195l75 62l183 -258z" />
    <glyph glyph-name="onequarter" unicode="&#xbc;" 
d="M596 78h-51v-78h-93v78h-146v71l147 279h92v-266h51v-84zM452 268l-53 -106h53v106zM425 724l72 -26l-315 -739l-74 28zM109 576l-58 -47l-47 66l125 105h76v-420h-96v296z" />
    <glyph glyph-name="onehalf" unicode="&#xbd;" 
d="M597 305q0 -52 -28.5 -102t-79.5 -112h108v-91h-213v84q13 16 33 41t39 52.5t32 54t13 46.5q0 26 -11.5 37.5t-29.5 11.5q-14 0 -25.5 -4.5t-22.5 -12.5l-26 88q19 12 41.5 20.5t56.5 8.5q56 0 84.5 -34t28.5 -88zM107 576l-58 -47l-47 66l125 105h76v-420h-96v296z
M420 724l72 -26l-315 -739l-74 28z" />
    <glyph glyph-name="threequarters" unicode="&#xbe;" 
d="M594 78h-51v-78h-93v78h-146v71l147 279h92v-266h51v-84zM91 368q22 0 36 14t14 37t-12.5 36t-41.5 13h-27v46l68 95h-116v91h218v-87l-64 -90q32 -8 54 -33t22 -79q0 -28 -9 -53t-27 -44t-45 -30t-63 -11q-39 0 -62 9.5t-33 14.5l24 90q8 -5 24.5 -12t39.5 -7zM432 724
l72 -26l-315 -739l-74 28zM450 268l-53 -106h53v106z" />
    <glyph glyph-name="questiondown" unicode="&#xbf;" 
d="M393 293q1 -8 1.5 -15.5t0.5 -15.5q0 -44 -14 -76t-35.5 -55.5t-46.5 -41t-46.5 -35t-35.5 -36.5t-14 -44q0 -35 29 -56t90 -21q31 0 57 9t48 21.5t39 26t30 22.5l63 -84q-24 -26 -54.5 -46t-64.5 -33t-70 -19.5t-71 -6.5q-109 0 -169.5 45.5t-60.5 122.5q0 51 15.5 84.5
t39.5 57t51.5 41.5t51 38.5t39.5 47.5t16 69h111zM413 435q0 -35 -22 -55.5t-58 -20.5q-38 0 -60 20.5t-22 55.5t22 56t60 21q36 0 58 -21t22 -56z" />
    <glyph glyph-name="Agrave" unicode="&#xc0;" 
d="M400 155h-209l-48 -155h-137l226 700h137l225 -700h-144zM223 265h150l-71 234h-9zM398 752h-105l-158 88v30h159z" />
    <glyph glyph-name="Aacute" unicode="&#xc1;" 
d="M400 155h-209l-48 -155h-137l226 700h137l225 -700h-144zM223 265h150l-71 234h-9zM307 870h159v-30l-160 -88h-103z" />
    <glyph glyph-name="Acircumflex" unicode="&#xc2;" 
d="M400 155h-209l-48 -155h-137l226 700h137l225 -700h-144zM223 265h150l-71 234h-9zM509 737h-136l-73 61l-68 -61h-141l155 133h102z" />
    <glyph glyph-name="Atilde" unicode="&#xc3;" 
d="M400 155h-209l-48 -155h-137l226 700h137l225 -700h-144zM223 265h150l-71 234h-9zM112 800q32 35 61.5 48t58.5 13q22 0 44 -5.5t42.5 -12t40.5 -12.5t38 -6q16 0 31 5.5t29 19.5l25 -67q-28 -26 -54.5 -36.5t-51.5 -10.5q-23 0 -44 5.5t-41.5 12.5t-40.5 12.5t-39 5.5
t-37.5 -7.5t-37.5 -27.5z" />
    <glyph glyph-name="Adieresis" unicode="&#xc4;" 
d="M400 155h-209l-48 -155h-137l226 700h137l225 -700h-144zM223 265h150l-71 234h-9zM97 805q0 27 19 44t61 17t61 -17t19 -44q0 -28 -19 -44t-61 -16t-61 16t-19 44zM343 805q0 27 19 44t61 17t61 -17t19 -44q0 -28 -19 -44t-61 -16t-61 16t-19 44z" />
    <glyph glyph-name="Aring" unicode="&#xc5;" 
d="M172 772q0 18 6 34.5t20.5 29t39 19.5t62.5 7q70 0 99 -24t29 -66q0 -18 -6.5 -34t-21.5 -28q-12 -9 -30 -15l224 -695h-144l-50 155h-209l-48 -155h-137l224 693q-18 6 -30 16q-28 25 -28 63zM223 265h150l-71 234h-9zM256 772q0 -31 44 -31q25 0 35 8t10 23
q0 17 -10.5 25t-34.5 9q-44 -1 -44 -34z" />
    <glyph glyph-name="AE" unicode="&#xc6;" 
d="M296 480l-70 -204h74v204h-4zM300 168h-115l-62 -168h-125l270 700h331v-121h-179v-163h161v-123h-161v-171h182v-122h-302v168z" />
    <glyph glyph-name="Ccedilla" unicode="&#xc7;" 
d="M444 235h110v-200q-32 -23 -82 -36q-27 -7 -55 -10l-17 -32q41 -4 64.5 -21.5t23.5 -53.5q0 -23 -11.5 -40t-31.5 -28.5t-47 -17.5t-58 -6t-64 6l9 48q7 -1 13 -1h11q38 0 49 9t11 21q0 28 -86 32l49 83q-45 4 -87 17q-59 20 -104 63.5t-72 113t-27 168.5
q0 103 30.5 172.5t78.5 112t107 61t116 18.5q60 0 101.5 -10t68.5 -23v-208h-110v114q-31 5 -64 5q-39 0 -72.5 -14.5t-58.5 -44.5t-39 -75.5t-14 -107.5q0 -54 13 -98.5t38 -76.5t61 -49.5t82 -17.5q33 0 64 6v121z" />
    <glyph glyph-name="Egrave" unicode="&#xc8;" 
d="M70 700h459v-122h-322v-163h297v-122h-297v-171h327v-122h-464v700zM393 752h-105l-158 88v30h159z" />
    <glyph glyph-name="Eacute" unicode="&#xc9;" 
d="M70 700h459v-122h-322v-163h297v-122h-297v-171h327v-122h-464v700zM323 870h159v-30l-160 -88h-103z" />
    <glyph glyph-name="Ecircumflex" unicode="&#xca;" 
d="M70 700h459v-122h-322v-163h297v-122h-297v-171h327v-122h-464v700zM509 737h-136l-73 61l-68 -61h-141l155 133h102z" />
    <glyph glyph-name="Edieresis" unicode="&#xcb;" 
d="M70 700h459v-122h-322v-163h297v-122h-297v-171h327v-122h-464v700zM95 805q0 27 19 44t61 17t61 -17t19 -44q0 -28 -19 -44t-61 -16t-61 16t-19 44zM341 805q0 27 19 44t61 17t61 -17t19 -44q0 -28 -19 -44t-61 -16t-61 16t-19 44z" />
    <glyph glyph-name="Igrave" unicode="&#xcc;" 
d="M54 122h177v456h-177v122h492v-122h-178v-456h178v-122h-492v122zM408 752h-105l-158 88v30h159z" />
    <glyph glyph-name="Iacute" unicode="&#xcd;" 
d="M54 122h177v456h-177v122h492v-122h-178v-456h178v-122h-492v122zM309 870h159v-30l-160 -88h-103z" />
    <glyph glyph-name="Icircumflex" unicode="&#xce;" 
d="M54 122h177v456h-177v122h492v-122h-178v-456h178v-122h-492v122zM508 737h-136l-73 61l-68 -61h-141l155 133h102z" />
    <glyph glyph-name="Idieresis" unicode="&#xcf;" 
d="M54 122h177v456h-177v122h492v-122h-178v-456h178v-122h-492v122zM98 805q0 27 19 44t61 17t61 -17t19 -44q0 -28 -19 -44t-61 -16t-61 16t-19 44zM344 805q0 27 19 44t61 17t61 -17t19 -44q0 -28 -19 -44t-61 -16t-61 16t-19 44z" />
    <glyph glyph-name="Eth" unicode="&#xd0;" 
d="M89 700q9 1 31.5 3t51 3.5t59 2.5t54.5 1q93 0 154 -27t96.5 -74.5t49.5 -112t14 -140.5q0 -69 -14 -135t-50.5 -117.5t-101 -83t-165.5 -31.5q-16 0 -41 1t-51 2.5t-50 3t-37 3.5v322h-88v80h88v299zM290 588q-19 0 -37 -1.5t-27 -2.5v-183h140v-80h-140v-206
q4 -1 12 -1.5t16.5 -1t16.5 -1t13 -0.5q58 0 92.5 21.5t51.5 56.5t22 79t5 88q0 38 -4.5 79t-21 75t-49.5 56t-90 22z" />
    <glyph glyph-name="Ntilde" unicode="&#xd1;" 
d="M185 414h-5l6 -83v-331h-130v700h120l242 -428h5l-9 84v344h130v-700h-120zM110 800q32 35 61.5 48t58.5 13q22 0 44 -5.5t42.5 -12t40.5 -12.5t38 -6q16 0 31 5.5t29 19.5l25 -67q-28 -26 -54.5 -36.5t-51.5 -10.5q-23 0 -44 5.5t-41.5 12.5t-40.5 12.5t-39 5.5
t-37.5 -7.5t-37.5 -27.5z" />
    <glyph glyph-name="Ograve" unicode="&#xd2;" 
d="M36 350q0 85 16 153t49 114.5t82.5 71.5t116.5 25q72 0 122 -27t81.5 -75t46 -115t14.5 -147q0 -171 -65.5 -267.5t-198.5 -96.5q-72 0 -122.5 27t-82 75t-45.5 115t-14 147zM180 350q0 -51 4.5 -95t17 -76.5t36 -51.5t62.5 -19q35 0 58 14.5t37 44.5t19.5 75.5
t5.5 107.5q0 49 -3.5 93t-16 77t-36.5 52.5t-64 19.5q-70 0 -95 -61t-25 -181zM378 752h-105l-158 88v30h159z" />
    <glyph glyph-name="Oacute" unicode="&#xd3;" 
d="M36 350q0 85 16 153t49 114.5t82.5 71.5t116.5 25q72 0 122 -27t81.5 -75t46 -115t14.5 -147q0 -171 -65.5 -267.5t-198.5 -96.5q-72 0 -122.5 27t-82 75t-45.5 115t-14 147zM180 350q0 -51 4.5 -95t17 -76.5t36 -51.5t62.5 -19q35 0 58 14.5t37 44.5t19.5 75.5
t5.5 107.5q0 49 -3.5 93t-16 77t-36.5 52.5t-64 19.5q-70 0 -95 -61t-25 -181zM333 870h159v-30l-160 -88h-103z" />
    <glyph glyph-name="Ocircumflex" unicode="&#xd4;" 
d="M36 350q0 85 16 153t49 114.5t82.5 71.5t116.5 25q72 0 122 -27t81.5 -75t46 -115t14.5 -147q0 -171 -65.5 -267.5t-198.5 -96.5q-72 0 -122.5 27t-82 75t-45.5 115t-14 147zM180 350q0 -51 4.5 -95t17 -76.5t36 -51.5t62.5 -19q35 0 58 14.5t37 44.5t19.5 75.5
t5.5 107.5q0 49 -3.5 93t-16 77t-36.5 52.5t-64 19.5q-70 0 -95 -61t-25 -181zM509 737h-136l-73 61l-68 -61h-141l155 133h102z" />
    <glyph glyph-name="Otilde" unicode="&#xd5;" 
d="M36 350q0 85 16 153t49 114.5t82.5 71.5t116.5 25q72 0 122 -27t81.5 -75t46 -115t14.5 -147q0 -171 -65.5 -267.5t-198.5 -96.5q-72 0 -122.5 27t-82 75t-45.5 115t-14 147zM180 350q0 -51 4.5 -95t17 -76.5t36 -51.5t62.5 -19q35 0 58 14.5t37 44.5t19.5 75.5
t5.5 107.5q0 49 -3.5 93t-16 77t-36.5 52.5t-64 19.5q-70 0 -95 -61t-25 -181zM110 800q32 35 61.5 48t58.5 13q22 0 44 -5.5t42.5 -12t40.5 -12.5t38 -6q16 0 31 5.5t29 19.5l25 -67q-28 -26 -54.5 -36.5t-51.5 -10.5q-23 0 -44 5.5t-41.5 12.5t-40.5 12.5t-39 5.5
t-37.5 -7.5t-37.5 -27.5z" />
    <glyph glyph-name="Odieresis" unicode="&#xd6;" 
d="M36 350q0 85 16 153t49 114.5t82.5 71.5t116.5 25q72 0 122 -27t81.5 -75t46 -115t14.5 -147q0 -171 -65.5 -267.5t-198.5 -96.5q-72 0 -122.5 27t-82 75t-45.5 115t-14 147zM180 350q0 -51 4.5 -95t17 -76.5t36 -51.5t62.5 -19q35 0 58 14.5t37 44.5t19.5 75.5
t5.5 107.5q0 49 -3.5 93t-16 77t-36.5 52.5t-64 19.5q-70 0 -95 -61t-25 -181zM97 805q0 27 19 44t61 17t61 -17t19 -44q0 -28 -19 -44t-61 -16t-61 16t-19 44zM343 805q0 27 19 44t61 17t61 -17t19 -44q0 -28 -19 -44t-61 -16t-61 16t-19 44z" />
    <glyph glyph-name="multiply" unicode="&#xd7;" 
d="M170 547l131 -130l130 130l79 -81l-130 -127l130 -129l-79 -82l-130 131l-132 -132l-79 81l131 131l-129 127z" />
    <glyph glyph-name="Oslash" unicode="&#xd8;" 
d="M151 350q0 -36 3.5 -65.5t11.5 -56.5l212 331q-30 33 -78 33q-73 0 -111 -58.5t-38 -183.5zM449 350q0 33 -3 60.5t-11 53.5l-208 -329q12 -12 31 -19.5t42 -7.5q73 0 111 57t38 185zM79 91q-37 48 -52.5 112t-15.5 147q0 175 73 269.5t216 94.5q45 0 83 -12t65 -32
l29 45l85 -50l-39 -62q35 -48 50.5 -110.5t15.5 -142.5q0 -175 -73.5 -269.5t-215.5 -94.5q-44 0 -81 10.5t-63 27.5l-24 -38l-86 53z" />
    <glyph glyph-name="Ugrave" unicode="&#xd9;" 
d="M420 700h130v-448q0 -68 -18 -117.5t-50.5 -82t-77.5 -48.5t-99 -16q-130 0 -192.5 63t-62.5 184v465h137v-438q0 -80 29 -116t91 -36q60 0 86.5 38.5t26.5 113.5v438zM382 752h-105l-158 88v30h159z" />
    <glyph glyph-name="Uacute" unicode="&#xda;" 
d="M420 700h130v-448q0 -68 -18 -117.5t-50.5 -82t-77.5 -48.5t-99 -16q-130 0 -192.5 63t-62.5 184v465h137v-438q0 -80 29 -116t91 -36q60 0 86.5 38.5t26.5 113.5v438zM351 870h159v-30l-160 -88h-103z" />
    <glyph glyph-name="Ucircumflex" unicode="&#xdb;" 
d="M420 700h130v-448q0 -68 -18 -117.5t-50.5 -82t-77.5 -48.5t-99 -16q-130 0 -192.5 63t-62.5 184v465h137v-438q0 -80 29 -116t91 -36q60 0 86.5 38.5t26.5 113.5v438zM509 737h-136l-73 61l-68 -61h-141l155 133h102z" />
    <glyph glyph-name="Udieresis" unicode="&#xdc;" 
d="M420 700h130v-448q0 -68 -18 -117.5t-50.5 -82t-77.5 -48.5t-99 -16q-130 0 -192.5 63t-62.5 184v465h137v-438q0 -80 29 -116t91 -36q60 0 86.5 38.5t26.5 113.5v438zM97 805q0 27 19 44t61 17t61 -17t19 -44q0 -28 -19 -44t-61 -16t-61 16t-19 44zM343 805q0 27 19 44
t61 17t61 -17t19 -44q0 -28 -19 -44t-61 -16t-61 16t-19 44z" />
    <glyph glyph-name="Yacute" unicode="&#xdd;" 
d="M232 258l-226 442h163l135 -289h5l138 289h147l-225 -441v-259h-137v258zM330 870h159v-30l-160 -88h-103z" />
    <glyph glyph-name="Thorn" unicode="&#xde;" 
d="M56 700h137v-72q14 1 28 1.5t28 0.5q52 0 104.5 -8.5t94.5 -34t68.5 -71t26.5 -118.5q0 -66 -23 -111.5t-61 -74.5t-86.5 -42t-100.5 -13h-16t-23 0.5t-23.5 1.5t-16.5 2v-161h-137v700zM193 280q4 -1 12 -2t17 -1.5t17.5 -0.5h12.5q27 0 53.5 5t47.5 18.5t33.5 37.5
t12.5 63q0 33 -12 54.5t-31.5 34.5t-44.5 18t-51 5q-20 0 -38 -1.5t-29 -3.5v-227z" />
    <glyph glyph-name="germandbls" unicode="&#xdf;" 
d="M379 537q0 13 -7 24t-19 19.5t-27 13t-30 4.5q-48 0 -70 -23t-22 -87v-488h-130v390h-69v110h69q0 58 16 97.5t44.5 64t68 35.5t86.5 11q51 0 91.5 -11.5t69 -32.5t44 -50.5t15.5 -65.5q0 -39 -17.5 -63t-39 -41t-39 -32t-17.5 -37q0 -18 14.5 -29t37 -20.5t48 -20
t48 -27.5t37 -43.5t14.5 -67.5q0 -35 -11 -67.5t-34.5 -58t-59 -40.5t-83.5 -15q-47 0 -86.5 11.5t-67.5 28.5l35 97q23 -13 46 -23t62 -10q30 0 49.5 20.5t19.5 49.5q0 21 -14.5 34t-37 23.5t-48 20.5t-48 25.5t-37 38.5t-14.5 59q0 43 17.5 67t39 40.5t39 30.5t17.5 38z
" />
    <glyph glyph-name="agrave" unicode="&#xe0;" 
d="M90 466q40 18 92.5 31t124.5 13q52 0 88.5 -12.5t59 -35.5t32.5 -55t10 -72q0 -51 -3.5 -87t-3.5 -64q0 -21 2 -47q2 -14 3 -27h65v-110h-166l-13 68h-5q-20 -31 -57 -53.5t-100 -22.5q-75 0 -119 40t-44 106q0 42 15.5 72.5t45 50t71 29t92.5 9.5q18 0 38 -2t49 -4
q2 10 2 20v19q0 38 -22 54.5t-65 16.5q-51 0 -92 -13t-69 -26zM261 99q48 0 72 17.5t35 37.5v60q-10 2 -30 4.5t-43 2.5q-19 0 -38 -3.5t-34 -11t-24 -19.5t-9 -29q0 -28 16.5 -43.5t54.5 -15.5zM369 566h-72l-152 154h164z" />
    <glyph glyph-name="aacute" unicode="&#xe1;" 
d="M90 466q40 18 92.5 31t124.5 13q52 0 88.5 -12.5t59 -35.5t32.5 -55t10 -72q0 -51 -3.5 -87t-3.5 -64q0 -21 2 -47q2 -14 3 -27h65v-110h-166l-13 68h-5q-20 -31 -57 -53.5t-100 -22.5q-75 0 -119 40t-44 106q0 42 15.5 72.5t45 50t71 29t92.5 9.5q18 0 38 -2t49 -4
q2 10 2 20v19q0 38 -22 54.5t-65 16.5q-51 0 -92 -13t-69 -26zM261 99q48 0 72 17.5t35 37.5v60q-10 2 -30 4.5t-43 2.5q-19 0 -38 -3.5t-34 -11t-24 -19.5t-9 -29q0 -28 16.5 -43.5t54.5 -15.5zM298 720h158l-137 -154h-80z" />
    <glyph glyph-name="acircumflex" unicode="&#xe2;" 
d="M90 466q40 18 92.5 31t124.5 13q52 0 88.5 -12.5t59 -35.5t32.5 -55t10 -72q0 -51 -3.5 -87t-3.5 -64q0 -21 2 -47q2 -14 3 -27h65v-110h-166l-13 68h-5q-20 -31 -57 -53.5t-100 -22.5q-75 0 -119 40t-44 106q0 42 15.5 72.5t45 50t71 29t92.5 9.5q18 0 38 -2t49 -4
q2 10 2 20v19q0 38 -22 54.5t-65 16.5q-51 0 -92 -13t-69 -26zM261 99q48 0 72 17.5t35 37.5v60q-10 2 -30 4.5t-43 2.5q-19 0 -38 -3.5t-34 -11t-24 -19.5t-9 -29q0 -28 16.5 -43.5t54.5 -15.5zM262 732h86l111 -182h-103l-55 94l-63 -94h-99z" />
    <glyph glyph-name="atilde" unicode="&#xe3;" 
d="M90 466q40 18 92.5 31t124.5 13q52 0 88.5 -12.5t59 -35.5t32.5 -55t10 -72q0 -51 -3.5 -87t-3.5 -64q0 -21 2 -47q2 -14 3 -27h65v-110h-166l-13 68h-5q-20 -31 -57 -53.5t-100 -22.5q-75 0 -119 40t-44 106q0 42 15.5 72.5t45 50t71 29t92.5 9.5q18 0 38 -2t49 -4
q2 10 2 20v19q0 38 -22 54.5t-65 16.5q-51 0 -92 -13t-69 -26zM261 99q48 0 72 17.5t35 37.5v60q-10 2 -30 4.5t-43 2.5q-19 0 -38 -3.5t-34 -11t-24 -19.5t-9 -29q0 -28 16.5 -43.5t54.5 -15.5zM130 658q31 37 57.5 51t50.5 14q20 0 38.5 -7t36.5 -15t35 -15t35 -5
q14 -2 28.5 4t30.5 21l20 -70q-29 -32 -53.5 -44t-47.5 -12q-20 0 -39 6.5t-37 14.5t-36 14.5t-36 6.5q-15 0 -31 -6.5t-33 -22.5z" />
    <glyph glyph-name="adieresis" unicode="&#xe4;" 
d="M90 466q40 18 92.5 31t124.5 13q52 0 88.5 -12.5t59 -35.5t32.5 -55t10 -72q0 -51 -3.5 -87t-3.5 -64q0 -21 2 -47q2 -14 3 -27h65v-110h-166l-13 68h-5q-20 -31 -57 -53.5t-100 -22.5q-75 0 -119 40t-44 106q0 42 15.5 72.5t45 50t71 29t92.5 9.5q18 0 38 -2t49 -4
q2 10 2 20v19q0 38 -22 54.5t-65 16.5q-51 0 -92 -13t-69 -26zM261 99q48 0 72 17.5t35 37.5v60q-10 2 -30 4.5t-43 2.5q-19 0 -38 -3.5t-34 -11t-24 -19.5t-9 -29q0 -28 16.5 -43.5t54.5 -15.5zM89 646q0 34 20.5 54.5t55.5 20.5q34 0 54 -20.5t20 -54.5q0 -32 -20 -52.5
t-54 -20.5q-35 0 -55.5 20.5t-20.5 52.5zM347 646q0 34 20 54.5t54 20.5t55 -20.5t21 -54.5q0 -32 -21 -52.5t-55 -20.5t-54 20.5t-20 52.5z" />
    <glyph glyph-name="aring" unicode="&#xe5;" 
d="M90 466q40 18 92.5 31t124.5 13q52 0 88.5 -12.5t59 -35.5t32.5 -55t10 -72q0 -51 -3.5 -87t-3.5 -64q0 -21 2 -47q2 -14 3 -27h65v-110h-166l-13 68h-5q-20 -31 -57 -53.5t-100 -22.5q-75 0 -119 40t-44 106q0 42 15.5 72.5t45 50t71 29t92.5 9.5q18 0 38 -2t49 -4
q2 10 2 20v19q0 38 -22 54.5t-65 16.5q-51 0 -92 -13t-69 -26zM261 99q48 0 72 17.5t35 37.5v60q-10 2 -30 4.5t-43 2.5q-19 0 -38 -3.5t-34 -11t-24 -19.5t-9 -29q0 -28 16.5 -43.5t54.5 -15.5zM176 647q0 42 28.5 69t82.5 27q51 0 81 -24.5t30 -71.5q0 -39 -29.5 -66.5
t-81.5 -27.5q-53 0 -82 25.5t-29 68.5zM248 647q0 -16 12 -24.5t27 -8.5q17 0 28 8t11 25t-11.5 25.5t-27.5 8.5q-15 0 -27 -8t-12 -26z" />
    <glyph glyph-name="ae" unicode="&#xe6;" 
d="M179 100q41 0 52 35v90q-5 1 -9 1.5t-9 0.5q-29 -1 -48.5 -15.5t-19.5 -53.5q0 -58 34 -58zM257 62q-17 -34 -44.5 -52t-72.5 -18q-26 0 -49 11t-40 30.5t-26.5 46.5t-9.5 60q0 41 13 71t37 50t57 30t72 10h15t15 -1q1 8 1 16v15q0 42 -15 56.5t-41 14.5q-9 0 -22 -2.5
t-26.5 -6.5t-27 -10t-23.5 -12l-33 96q14 10 33 18.5t41 13.5t44.5 8t43.5 3q34 0 65 -12.5t45 -40.5q35 57 103 57q29 0 57 -10t50.5 -32.5t36.5 -59.5t14 -90q0 -29 -3 -56.5t-7 -50.5h-211q1 -68 22.5 -95t56.5 -27q12 0 26 2t27 5.5t24 8t17 8.5l36 -86
q-11 -9 -27.5 -16.5t-36.5 -13.5t-43 -9.5t-45 -3.5q-48 0 -86.5 18t-58.5 56h-4zM409 410q-28 0 -42.5 -28t-16.5 -89h101q0 5 0.5 12t0.5 12q0 45 -10.5 69t-32.5 24z" />
    <glyph glyph-name="ccedilla" unicode="&#xe7;" 
d="M546 48q-41 -31 -96 -47q-39 -10 -81 -14l-17 -30q41 -4 64.5 -21.5t23.5 -53.5q0 -23 -11.5 -40t-31.5 -28.5t-47 -17.5t-58 -6t-64 6l9 48q7 -1 13 -1h11q38 0 49 9t11 21q0 28 -86 32l50 84q-35 5 -66 16q-50 19 -84.5 53.5t-52.5 83.5t-18 108q0 63 21 112t58.5 83
t88.5 51.5t111 17.5q56 0 105 -13t75 -25v-176h-110v92q-31 7 -62 7q-28 0 -55.5 -8.5t-49 -27t-35 -46.5t-13.5 -67q0 -32 11 -59t31 -47t49.5 -31.5t65.5 -11.5q57 0 93.5 16t54.5 28z" />
    <glyph glyph-name="egrave" unicode="&#xe8;" 
d="M534 53q-13 -12 -33.5 -23.5t-48 -21.5t-60.5 -16t-70 -6q-64 0 -114.5 18t-85.5 52.5t-53.5 83t-18.5 110.5q0 66 21 115.5t57.5 82.5t85.5 49.5t106 16.5q38 0 78.5 -10t74.5 -34.5t55.5 -65.5t21.5 -104q0 -43 -10 -93h-360q1 -32 13.5 -54t33 -36t47 -20.5t56.5 -6.5
q60 0 98.5 14t62.5 34zM318 410q-26 0 -49 -7t-41.5 -20.5t-30.5 -33.5t-14 -45h246q0 49 -27.5 77.5t-83.5 28.5zM377 566h-72l-152 154h164z" />
    <glyph glyph-name="eacute" unicode="&#xe9;" 
d="M534 53q-13 -12 -33.5 -23.5t-48 -21.5t-60.5 -16t-70 -6q-64 0 -114.5 18t-85.5 52.5t-53.5 83t-18.5 110.5q0 66 21 115.5t57.5 82.5t85.5 49.5t106 16.5q38 0 78.5 -10t74.5 -34.5t55.5 -65.5t21.5 -104q0 -43 -10 -93h-360q1 -32 13.5 -54t33 -36t47 -20.5t56.5 -6.5
q60 0 98.5 14t62.5 34zM318 410q-26 0 -49 -7t-41.5 -20.5t-30.5 -33.5t-14 -45h246q0 49 -27.5 77.5t-83.5 28.5zM321 720h158l-137 -154h-80z" />
    <glyph glyph-name="ecircumflex" unicode="&#xea;" 
d="M534 53q-13 -12 -33.5 -23.5t-48 -21.5t-60.5 -16t-70 -6q-64 0 -114.5 18t-85.5 52.5t-53.5 83t-18.5 110.5q0 66 21 115.5t57.5 82.5t85.5 49.5t106 16.5q38 0 78.5 -10t74.5 -34.5t55.5 -65.5t21.5 -104q0 -43 -10 -93h-360q1 -32 13.5 -54t33 -36t47 -20.5t56.5 -6.5
q60 0 98.5 14t62.5 34zM318 410q-26 0 -49 -7t-41.5 -20.5t-30.5 -33.5t-14 -45h246q0 49 -27.5 77.5t-83.5 28.5zM278 732h86l111 -182h-103l-55 94l-63 -94h-99z" />
    <glyph glyph-name="edieresis" unicode="&#xeb;" 
d="M534 53q-13 -12 -33.5 -23.5t-48 -21.5t-60.5 -16t-70 -6q-64 0 -114.5 18t-85.5 52.5t-53.5 83t-18.5 110.5q0 66 21 115.5t57.5 82.5t85.5 49.5t106 16.5q38 0 78.5 -10t74.5 -34.5t55.5 -65.5t21.5 -104q0 -43 -10 -93h-360q1 -32 13.5 -54t33 -36t47 -20.5t56.5 -6.5
q60 0 98.5 14t62.5 34zM318 410q-26 0 -49 -7t-41.5 -20.5t-30.5 -33.5t-14 -45h246q0 49 -27.5 77.5t-83.5 28.5zM111 646q0 34 20.5 54.5t55.5 20.5q34 0 54 -20.5t20 -54.5q0 -32 -20 -52.5t-54 -20.5q-35 0 -55.5 20.5t-20.5 52.5zM369 646q0 34 20 54.5t54 20.5
t55 -20.5t21 -54.5q0 -32 -21 -52.5t-55 -20.5t-54 20.5t-20 52.5z" />
    <glyph glyph-name="igrave" unicode="&#xec;" 
d="M59 110h176v280h-176v110h306v-390h185v-110h-491v110zM359 566h-72l-152 154h164z" />
    <glyph glyph-name="iacute" unicode="&#xed;" 
d="M59 110h176v280h-176v110h306v-390h185v-110h-491v110zM289 720h158l-137 -154h-80z" />
    <glyph glyph-name="icircumflex" unicode="&#xee;" 
d="M59 110h176v280h-176v110h306v-390h185v-110h-491v110zM258 732h86l111 -182h-103l-55 94l-63 -94h-99z" />
    <glyph glyph-name="idieresis" unicode="&#xef;" 
d="M59 110h176v280h-176v110h306v-390h185v-110h-491v110zM96 646q0 34 20.5 54.5t55.5 20.5q34 0 54 -20.5t20 -54.5q0 -32 -20 -52.5t-54 -20.5q-35 0 -55.5 20.5t-20.5 52.5zM354 646q0 34 20 54.5t54 20.5t55 -20.5t21 -54.5q0 -32 -21 -52.5t-55 -20.5t-54 20.5
t-20 52.5z" />
    <glyph glyph-name="eth" unicode="&#xf0;" 
d="M215 584l44 30q-17 7 -34.5 12.5t-34.5 8.5l52 80q22 -7 48.5 -16.5t55.5 -25.5l53 36l42 -55l-33 -22q27 -23 55.5 -53.5t51 -71t37 -91.5t14.5 -114q0 -81 -21 -140.5t-57.5 -98.5t-85.5 -58t-104 -19q-59 0 -106 19t-79.5 53.5t-50 82t-17.5 104.5q0 54 18.5 100
t51 80.5t77 54t95.5 19.5q19 0 39.5 -3t40 -8t35.5 -13t26 -18q-15 37 -44.5 66t-58.5 52l-67 -46zM171 243q0 -36 11 -63.5t29 -46t41.5 -28t49.5 -9.5q27 0 52.5 10.5t45 32.5t31 56t11.5 81q0 13 -1.5 34t-5.5 33q-13 13 -29.5 22t-34.5 14t-35.5 7.5t-32.5 2.5
q-30 0 -54.5 -11t-41.5 -30.5t-26.5 -46.5t-9.5 -58z" />
    <glyph glyph-name="ntilde" unicode="&#xf1;" 
d="M12 500h175l15 -66h4q23 32 66 56t103 24q37 0 69.5 -10t55.5 -33t36.5 -62.5t13.5 -97.5v-311h-130v284q0 61 -27.5 88t-69.5 27q-37 0 -67.5 -21.5t-41.5 -53.5v-324h-130v390h-72v110zM142 658q31 37 57.5 51t50.5 14q20 0 38.5 -7t36.5 -15t35 -15t35 -5
q14 -2 28.5 4t30.5 21l20 -70q-29 -32 -53.5 -44t-47.5 -12q-20 0 -39 6.5t-37 14.5t-36 14.5t-36 6.5q-15 0 -31 -6.5t-33 -22.5z" />
    <glyph glyph-name="ograve" unicode="&#xf2;" 
d="M35 250q0 63 19 112t54 83t83.5 51.5t108.5 17.5q63 0 112.5 -19t83.5 -53.5t51.5 -83.5t17.5 -108q0 -63 -19 -112t-54 -83t-83.5 -51.5t-108.5 -17.5q-63 0 -112.5 19t-83.5 53.5t-51.5 83.5t-17.5 108zM169 250q0 -33 9 -61t26 -49t41 -32.5t55 -11.5q58 0 94.5 37
t36.5 117q0 69 -34 111.5t-97 42.5q-28 0 -52 -8.5t-41.5 -27.5t-27.5 -48t-10 -70zM349 566h-72l-152 154h164z" />
    <glyph glyph-name="oacute" unicode="&#xf3;" 
d="M35 250q0 63 19 112t54 83t83.5 51.5t108.5 17.5q63 0 112.5 -19t83.5 -53.5t51.5 -83.5t17.5 -108q0 -63 -19 -112t-54 -83t-83.5 -51.5t-108.5 -17.5q-63 0 -112.5 19t-83.5 53.5t-51.5 83.5t-17.5 108zM169 250q0 -33 9 -61t26 -49t41 -32.5t55 -11.5q58 0 94.5 37
t36.5 117q0 69 -34 111.5t-97 42.5q-28 0 -52 -8.5t-41.5 -27.5t-27.5 -48t-10 -70zM316 720h158l-137 -154h-80z" />
    <glyph glyph-name="ocircumflex" unicode="&#xf4;" 
d="M35 250q0 63 19 112t54 83t83.5 51.5t108.5 17.5q63 0 112.5 -19t83.5 -53.5t51.5 -83.5t17.5 -108q0 -63 -19 -112t-54 -83t-83.5 -51.5t-108.5 -17.5q-63 0 -112.5 19t-83.5 53.5t-51.5 83.5t-17.5 108zM169 250q0 -33 9 -61t26 -49t41 -32.5t55 -11.5q58 0 94.5 37
t36.5 117q0 69 -34 111.5t-97 42.5q-28 0 -52 -8.5t-41.5 -27.5t-27.5 -48t-10 -70zM263 732h86l111 -182h-103l-55 94l-63 -94h-99z" />
    <glyph glyph-name="otilde" unicode="&#xf5;" 
d="M35 250q0 63 19 112t54 83t83.5 51.5t108.5 17.5q63 0 112.5 -19t83.5 -53.5t51.5 -83.5t17.5 -108q0 -63 -19 -112t-54 -83t-83.5 -51.5t-108.5 -17.5q-63 0 -112.5 19t-83.5 53.5t-51.5 83.5t-17.5 108zM169 250q0 -33 9 -61t26 -49t41 -32.5t55 -11.5q58 0 94.5 37
t36.5 117q0 69 -34 111.5t-97 42.5q-28 0 -52 -8.5t-41.5 -27.5t-27.5 -48t-10 -70zM134 658q31 37 57.5 51t50.5 14q20 0 38.5 -7t36.5 -15t35 -15t35 -5q14 -2 28.5 4t30.5 21l20 -70q-29 -32 -53.5 -44t-47.5 -12q-20 0 -39 6.5t-37 14.5t-36 14.5t-36 6.5
q-15 0 -31 -6.5t-33 -22.5z" />
    <glyph glyph-name="odieresis" unicode="&#xf6;" 
d="M35 250q0 63 19 112t54 83t83.5 51.5t108.5 17.5q63 0 112.5 -19t83.5 -53.5t51.5 -83.5t17.5 -108q0 -63 -19 -112t-54 -83t-83.5 -51.5t-108.5 -17.5q-63 0 -112.5 19t-83.5 53.5t-51.5 83.5t-17.5 108zM169 250q0 -33 9 -61t26 -49t41 -32.5t55 -11.5q58 0 94.5 37
t36.5 117q0 69 -34 111.5t-97 42.5q-28 0 -52 -8.5t-41.5 -27.5t-27.5 -48t-10 -70zM96 646q0 34 20.5 54.5t55.5 20.5q34 0 54 -20.5t20 -54.5q0 -32 -20 -52.5t-54 -20.5q-35 0 -55.5 20.5t-20.5 52.5zM354 646q0 34 20 54.5t54 20.5t55 -20.5t21 -54.5q0 -32 -21 -52.5
t-55 -20.5t-54 20.5t-20 52.5z" />
    <glyph glyph-name="divide" unicode="&#xf7;" 
d="M59 394h482v-112h-482v112zM213 537q0 38 24 59.5t62 21.5q40 0 63.5 -21.5t23.5 -59.5t-23.5 -60t-63.5 -22q-38 0 -62 22t-24 60zM213 140q0 38 24 59.5t62 21.5q40 0 63.5 -21.5t23.5 -59.5t-23.5 -60t-63.5 -22q-38 0 -62 22t-24 60z" />
    <glyph glyph-name="oslash" unicode="&#xf8;" 
d="M35 250q0 63 19 112t54 83t83.5 51.5t108.5 17.5q62 0 111 -19l34 46l80 -59l-29 -41q34 -34 51.5 -83t17.5 -108q0 -63 -19 -112t-54 -83t-83.5 -51.5t-108.5 -17.5q-63 0 -113 19l-6 2l-34 -47l-83 60l33 45q-29 33 -45 77q-17 49 -17 108zM300 96q58 0 94.5 37
t36.5 117q0 46 -16 81l-164 -227q22 -8 49 -8zM169 250q0 -33 9 -61l3 -9l160 218q-19 6 -41 6q-28 0 -52 -8.5t-41.5 -27.5t-27.5 -48t-10 -70z" />
    <glyph glyph-name="ugrave" unicode="&#xf9;" 
d="M330 500h186v-348v-42h76v-110h-158l-23 74h-4q-23 -38 -69 -63t-102 -25q-38 0 -69.5 10t-53.5 33t-34 62t-12 98v201h-57v110h187v-284q0 -61 19.5 -88t61.5 -27q37 0 66.5 22t41.5 54v213h-56v110zM334 566h-72l-152 154h164z" />
    <glyph glyph-name="uacute" unicode="&#xfa;" 
d="M330 500h186v-348v-42h76v-110h-158l-23 74h-4q-23 -38 -69 -63t-102 -25q-38 0 -69.5 10t-53.5 33t-34 62t-12 98v201h-57v110h187v-284q0 -61 19.5 -88t61.5 -27q37 0 66.5 22t41.5 54v213h-56v110zM296 720h158l-137 -154h-80z" />
    <glyph glyph-name="ucircumflex" unicode="&#xfb;" 
d="M330 500h186v-348v-42h76v-110h-158l-23 74h-4q-23 -38 -69 -63t-102 -25q-38 0 -69.5 10t-53.5 33t-34 62t-12 98v201h-57v110h187v-284q0 -61 19.5 -88t61.5 -27q37 0 66.5 22t41.5 54v213h-56v110zM244 732h86l111 -182h-103l-55 94l-63 -94h-99z" />
    <glyph glyph-name="udieresis" unicode="&#xfc;" 
d="M330 500h186v-348v-42h76v-110h-158l-23 74h-4q-23 -38 -69 -63t-102 -25q-38 0 -69.5 10t-53.5 33t-34 62t-12 98v201h-57v110h187v-284q0 -61 19.5 -88t61.5 -27q37 0 66.5 22t41.5 54v213h-56v110zM68 646q0 34 20.5 54.5t55.5 20.5q34 0 54 -20.5t20 -54.5
q0 -32 -20 -52.5t-54 -20.5q-35 0 -55.5 20.5t-20.5 52.5zM326 646q0 34 20 54.5t54 20.5t55 -20.5t21 -54.5q0 -32 -21 -52.5t-55 -20.5t-54 20.5t-20 52.5z" />
    <glyph glyph-name="yacute" unicode="&#xfd;" 
d="M301 141h38l97 359h134l-142 -451q-19 -56 -37 -102.5t-42 -80.5t-56.5 -52.5t-79.5 -18.5q-23 0 -43.5 6t-37.5 14.5t-30 18t-21 17.5l67 89q13 -11 31 -20.5t34 -9.5q30 0 47.5 21t33.5 69h-71l-208 500h141zM295 720h158l-137 -154h-80z" />
    <glyph glyph-name="thorn" unicode="&#xfe;" 
d="M0 700h205v-240q24 26 62 40t89 14q46 0 84.5 -14.5t66.5 -45.5t43 -78t15 -113q0 -64 -16.5 -115.5t-49 -87.5t-79 -55t-106.5 -19q-31 0 -60 4.5t-49 14.5v-205h-130v790h-75v110zM318 404q-38 0 -69.5 -19t-43.5 -57v-208q14 -11 40.5 -17.5t53.5 -6.5q28 0 52 9.5
t42 30.5t28 53t10 77q0 66 -32 102t-81 36z" />
    <glyph glyph-name="ydieresis" unicode="&#xff;" 
d="M301 141h38l97 359h134l-142 -451q-19 -56 -37 -102.5t-42 -80.5t-56.5 -52.5t-79.5 -18.5q-23 0 -43.5 6t-37.5 14.5t-30 18t-21 17.5l67 89q13 -11 31 -20.5t34 -9.5q30 0 47.5 21t33.5 69h-71l-208 500h141zM101 646q0 34 20.5 54.5t55.5 20.5q34 0 54 -20.5t20 -54.5
q0 -32 -20 -52.5t-54 -20.5q-35 0 -55.5 20.5t-20.5 52.5zM359 646q0 34 20 54.5t54 20.5t55 -20.5t21 -54.5q0 -32 -21 -52.5t-55 -20.5t-54 20.5t-20 52.5z" />
    <glyph glyph-name="Amacron" unicode="&#x100;" 
d="M400 155h-209l-48 -155h-137l226 700h137l225 -700h-144zM223 265h150l-71 234h-9zM129 856h343v-89h-343v89z" />
    <glyph glyph-name="amacron" unicode="&#x101;" 
d="M90 466q40 18 92.5 31t124.5 13q52 0 88.5 -12.5t59 -35.5t32.5 -55t10 -72q0 -51 -3.5 -87t-3.5 -64q0 -21 2 -47q2 -14 3 -27h65v-110h-166l-13 68h-5q-20 -31 -57 -53.5t-100 -22.5q-75 0 -119 40t-44 106q0 42 15.5 72.5t45 50t71 29t92.5 9.5q18 0 38 -2t49 -4
q2 10 2 20v19q0 38 -22 54.5t-65 16.5q-51 0 -92 -13t-69 -26zM261 99q48 0 72 17.5t35 37.5v60q-10 2 -30 4.5t-43 2.5q-19 0 -38 -3.5t-34 -11t-24 -19.5t-9 -29q0 -28 16.5 -43.5t54.5 -15.5zM137 658h323v-92h-323v92z" />
    <glyph glyph-name="Abreve" unicode="&#x102;" 
d="M400 155h-209l-48 -155h-137l226 700h137l225 -700h-144zM223 265h150l-71 234h-9zM162 885q20 -26 58 -40t85 -14q48 0 82.5 15t54.5 39l58 -45q-37 -54 -88 -77t-108 -23q-27 0 -54.5 4.5t-53.5 15.5t-50.5 30.5t-44.5 49.5z" />
    <glyph glyph-name="abreve" unicode="&#x103;" 
d="M90 466q40 18 92.5 31t124.5 13q52 0 88.5 -12.5t59 -35.5t32.5 -55t10 -72q0 -51 -3.5 -87t-3.5 -64q0 -21 2 -47q2 -14 3 -27h65v-110h-166l-13 68h-5q-20 -31 -57 -53.5t-100 -22.5q-75 0 -119 40t-44 106q0 42 15.5 72.5t45 50t71 29t92.5 9.5q18 0 38 -2t49 -4
q2 10 2 20v19q0 38 -22 54.5t-65 16.5q-51 0 -92 -13t-69 -26zM261 99q48 0 72 17.5t35 37.5v60q-10 2 -30 4.5t-43 2.5q-19 0 -38 -3.5t-34 -11t-24 -19.5t-9 -29q0 -28 16.5 -43.5t54.5 -15.5zM189 720q17 -30 47.5 -44.5t64.5 -14.5t62.5 15t43.5 44l60 -27
q-3 -24 -16.5 -47.5t-35.5 -41.5t-51.5 -29t-63.5 -11q-66 0 -113 33.5t-61 90.5z" />
    <glyph glyph-name="Aogonek" unicode="&#x104;" 
d="M400 155h-209l-48 -155h-137l226 700h137l225 -700h-46q-58 -22 -58 -73q0 -18 11 -30.5t31 -12.5q18 0 42 12l19 -62q-15 -12 -47.5 -23.5t-67.5 -11.5q-56 0 -85.5 25t-29.5 66q0 38 23 65.5t64 44.5zM223 265h150l-71 234h-9z" />
    <glyph glyph-name="aogonek" unicode="&#x105;" 
d="M90 466q40 18 92.5 31t124.5 13q52 0 88.5 -12.5t59 -35.5t32.5 -55t10 -72q0 -51 -3.5 -87t-3.5 -64q0 -21 2 -47q2 -14 3 -27h65v-110h-28q-48 -23 -48 -69q0 -18 11 -30.5t31 -12.5q18 0 42 12l19 -62q-15 -12 -47.5 -23.5t-67.5 -11.5q-56 0 -85.5 25t-29.5 66t27 70
q20 21 51 36h-41l-13 68h-5q-20 -31 -57 -53.5t-100 -22.5q-75 0 -119 40t-44 106q0 42 15.5 72.5t45 50t71 29t92.5 9.5q18 0 38 -2t49 -4q2 10 2 20v19q0 38 -22 54.5t-65 16.5q-51 0 -92 -13t-69 -26zM261 99q48 0 72 17.5t35 37.5v60q-10 2 -30 4.5t-43 2.5
q-19 0 -38 -3.5t-34 -11t-24 -19.5t-9 -29q0 -28 16.5 -43.5t54.5 -15.5z" />
    <glyph glyph-name="Cacute" unicode="&#x106;" 
d="M444 235h110v-200q-32 -23 -81.5 -36t-101.5 -13q-66 0 -125.5 19.5t-104.5 63t-72 113t-27 168.5q0 103 30.5 172.5t78.5 112t107 61t116 18.5q60 0 101.5 -10t68.5 -23v-208h-110v114q-31 5 -64 5q-39 0 -72.5 -14.5t-58.5 -44.5t-39 -75.5t-14 -107.5q0 -54 13 -98.5
t38 -76.5t61 -49.5t82 -17.5q33 0 64 6v121zM391 870h159v-30l-160 -88h-103z" />
    <glyph glyph-name="cacute" unicode="&#x107;" 
d="M546 48q-41 -31 -96 -46.5t-115 -15.5q-65 0 -115.5 19t-85 53.5t-52.5 83.5t-18 108q0 63 21 112t58.5 83t88.5 51.5t111 17.5q56 0 105 -13t75 -25v-176h-110v92q-31 7 -62 7q-28 0 -55.5 -8.5t-49 -27t-35 -46.5t-13.5 -67q0 -32 11 -59t31 -47t49.5 -31.5t65.5 -11.5
q57 0 93.5 16t54.5 28zM348 720h158l-137 -154h-80z" />
    <glyph glyph-name="Ccircumflex" unicode="&#x108;" 
d="M444 235h110v-200q-32 -23 -81.5 -36t-101.5 -13q-66 0 -125.5 19.5t-104.5 63t-72 113t-27 168.5q0 103 30.5 172.5t78.5 112t107 61t116 18.5q60 0 101.5 -10t68.5 -23v-208h-110v114q-31 5 -64 5q-39 0 -72.5 -14.5t-58.5 -44.5t-39 -75.5t-14 -107.5q0 -54 13 -98.5
t38 -76.5t61 -49.5t82 -17.5q33 0 64 6v121zM556 737h-136l-73 61l-68 -61h-141l155 133h102z" />
    <glyph glyph-name="ccircumflex" unicode="&#x109;" 
d="M546 48q-41 -31 -96 -46.5t-115 -15.5q-65 0 -115.5 19t-85 53.5t-52.5 83.5t-18 108q0 63 21 112t58.5 83t88.5 51.5t111 17.5q56 0 105 -13t75 -25v-176h-110v92q-31 7 -62 7q-28 0 -55.5 -8.5t-49 -27t-35 -46.5t-13.5 -67q0 -32 11 -59t31 -47t49.5 -31.5t65.5 -11.5
q57 0 93.5 16t54.5 28zM282 732h86l111 -182h-103l-55 94l-63 -94h-99z" />
    <glyph glyph-name="Ccaron" unicode="&#x10c;" 
d="M444 235h110v-200q-32 -23 -81.5 -36t-101.5 -13q-66 0 -125.5 19.5t-104.5 63t-72 113t-27 168.5q0 103 30.5 172.5t78.5 112t107 61t116 18.5q60 0 101.5 -10t68.5 -23v-208h-110v114q-31 5 -64 5q-39 0 -72.5 -14.5t-58.5 -44.5t-39 -75.5t-14 -107.5q0 -54 13 -98.5
t38 -76.5t61 -49.5t82 -17.5q33 0 64 6v121zM418 737h-102l-155 133h141l68 -61l73 61h136z" />
    <glyph glyph-name="ccaron" unicode="&#x10d;" 
d="M546 48q-41 -31 -96 -46.5t-115 -15.5q-65 0 -115.5 19t-85 53.5t-52.5 83.5t-18 108q0 63 21 112t58.5 83t88.5 51.5t111 17.5q56 0 105 -13t75 -25v-176h-110v92q-31 7 -62 7q-28 0 -55.5 -8.5t-49 -27t-35 -46.5t-13.5 -67q0 -32 11 -59t31 -47t49.5 -31.5t65.5 -11.5
q57 0 93.5 16t54.5 28zM380 550h-91l-115 182h110l56 -94l62 94h101z" />
    <glyph glyph-name="Dcaron" unicode="&#x10e;" 
d="M50 700q9 1 31.5 3t51 3.5t59 2.5t54.5 1q93 0 154 -27t96.5 -74.5t49.5 -112t14 -140.5q0 -69 -14 -135t-50.5 -117.5t-101 -83t-165.5 -31.5q-16 0 -41 1t-51 2.5t-50 3t-37 3.5v701zM251 588q-19 0 -37 -1.5t-27 -2.5v-469q4 -1 12 -1.5t16.5 -1t16.5 -1t13 -0.5
q58 0 92.5 21.5t51.5 56.5t22 79t5 88q0 38 -4.5 79t-21 75t-49.5 56t-90 22zM298 737h-102l-155 133h141l68 -61l73 61h136z" />
    <glyph glyph-name="dcaron" unicode="&#x10f;" 
d="M306 700h209v-432q0 -75 8 -148q0 -5 1 -10h64v-110h-161l-13 64h-4q-10 -18 -27 -32t-38 -24.5t-46 -16t-50 -5.5q-47 0 -88.5 15t-72.5 46.5t-49 80t-18 114.5q0 64 19.5 114t54 84.5t81.5 53t103 18.5q31 0 58.5 -3.5t47.5 -11.5v93h-79v110zM279 96q38 0 67.5 18.5
t38.5 53.5v212q-14 11 -38.5 16.5t-51.5 5.5t-52.5 -9t-45 -28.5t-31 -50.5t-11.5 -76q0 -64 32 -103t92 -39zM697 700q-2 -29 -12 -60.5t-23.5 -60t-28.5 -51t-27 -32.5l-58 31q17 36 26 81.5t9 91.5h114z" />
    <glyph glyph-name="Dcroat" unicode="&#x110;" 
d="M89 700q9 1 31.5 3t51 3.5t59 2.5t54.5 1q93 0 154 -27t96.5 -74.5t49.5 -112t14 -140.5q0 -69 -14 -135t-50.5 -117.5t-101 -83t-165.5 -31.5q-16 0 -41 1t-51 2.5t-50 3t-37 3.5v322h-88v80h88v299zM290 588q-19 0 -37 -1.5t-27 -2.5v-183h140v-80h-140v-206
q4 -1 12 -1.5t16.5 -1t16.5 -1t13 -0.5q58 0 92.5 21.5t51.5 56.5t22 79t5 88q0 38 -4.5 79t-21 75t-49.5 56t-90 22z" />
    <glyph glyph-name="dcroat" unicode="&#x111;" 
d="M515 268q0 -75 8 -148q0 -5 1 -10h64v-110h-161l-13 64h-4q-10 -18 -27 -32t-38 -24.5t-46 -16t-50 -5.5q-47 0 -88.5 15t-72.5 46.5t-49 80t-18 114.5q0 64 19.5 114t54 84.5t81.5 53t103 18.5q31 0 58.5 -3.5t47.5 -11.5v64h-145v80h145v59h130v-59h79v-80h-79v-293z
M279 96q38 0 67.5 18.5t38.5 53.5v212q-14 11 -38.5 16.5t-51.5 5.5t-52.5 -9t-45 -28.5t-31 -50.5t-11.5 -76q0 -64 32 -103t92 -39z" />
    <glyph glyph-name="Emacron" unicode="&#x112;" 
d="M70 700h459v-122h-322v-163h297v-122h-297v-171h327v-122h-464v700zM137 856h343v-89h-343v89z" />
    <glyph glyph-name="emacron" unicode="&#x113;" 
d="M534 53q-13 -12 -33.5 -23.5t-48 -21.5t-60.5 -16t-70 -6q-64 0 -114.5 18t-85.5 52.5t-53.5 83t-18.5 110.5q0 66 21 115.5t57.5 82.5t85.5 49.5t106 16.5q38 0 78.5 -10t74.5 -34.5t55.5 -65.5t21.5 -104q0 -43 -10 -93h-360q1 -32 13.5 -54t33 -36t47 -20.5t56.5 -6.5
q60 0 98.5 14t62.5 34zM318 410q-26 0 -49 -7t-41.5 -20.5t-30.5 -33.5t-14 -45h246q0 49 -27.5 77.5t-83.5 28.5zM150 658h323v-92h-323v92z" />
    <glyph glyph-name="Edotaccent" unicode="&#x116;" 
d="M70 700h459v-122h-322v-163h297v-122h-297v-171h327v-122h-464v700zM216 809q0 27 23 46t70 19q46 0 71 -19t25 -46q0 -29 -25 -48t-71 -19q-47 0 -70 19t-23 48z" />
    <glyph glyph-name="edotaccent" unicode="&#x117;" 
d="M534 53q-13 -12 -33.5 -23.5t-48 -21.5t-60.5 -16t-70 -6q-64 0 -114.5 18t-85.5 52.5t-53.5 83t-18.5 110.5q0 66 21 115.5t57.5 82.5t85.5 49.5t106 16.5q38 0 78.5 -10t74.5 -34.5t55.5 -65.5t21.5 -104q0 -43 -10 -93h-360q1 -32 13.5 -54t33 -36t47 -20.5t56.5 -6.5
q60 0 98.5 14t62.5 34zM318 410q-26 0 -49 -7t-41.5 -20.5t-30.5 -33.5t-14 -45h246q0 49 -27.5 77.5t-83.5 28.5zM227 636q0 31 23 53t64 22q42 0 67 -22t25 -53q0 -32 -25 -52.5t-67 -20.5q-41 0 -64 20.5t-23 52.5z" />
    <glyph glyph-name="Eogonek" unicode="&#x118;" 
d="M87 700h409v-122h-272v-163h247v-122h-247v-171h277v-122h-27q-58 -22 -58 -73q0 -18 11 -30.5t31 -12.5q18 0 42 12l19 -62q-15 -12 -47.5 -23.5t-67.5 -11.5q-56 0 -85.5 25t-29.5 66q0 38 23 65.5t64 44.5h-289v700z" />
    <glyph glyph-name="eogonek" unicode="&#x119;" 
d="M534 53q-13 -12 -33.5 -23.5t-48.5 -21.5q-9 -4 -18 -7q-52 -23 -52 -70q0 -18 11 -30.5t31 -12.5q18 0 42 12l19 -62q-15 -12 -47.5 -23.5t-67.5 -11.5q-56 0 -85.5 25t-29.5 66t27 70q12 12 26 22q-56 2 -101 18q-50 18 -85 52.5t-53.5 83t-18.5 110.5q0 66 21 115.5
t57.5 82.5t85.5 49.5t106 16.5q38 0 78.5 -10t74.5 -34.5t55.5 -65.5t21.5 -104q0 -43 -10 -93h-360q1 -32 13.5 -54t33 -36t47 -20.5t56.5 -6.5q60 0 98.5 14t62.5 34zM318 410q-26 0 -49 -7t-41.5 -20.5t-30.5 -33.5t-14 -45h246q0 49 -27.5 77.5t-83.5 28.5z" />
    <glyph glyph-name="Ecaron" unicode="&#x11a;" 
d="M70 700h459v-122h-322v-163h297v-122h-297v-171h327v-122h-464v700zM356 737h-102l-155 133h141l68 -61l73 61h136z" />
    <glyph glyph-name="ecaron" unicode="&#x11b;" 
d="M534 53q-13 -12 -33.5 -23.5t-48 -21.5t-60.5 -16t-70 -6q-64 0 -114.5 18t-85.5 52.5t-53.5 83t-18.5 110.5q0 66 21 115.5t57.5 82.5t85.5 49.5t106 16.5q38 0 78.5 -10t74.5 -34.5t55.5 -65.5t21.5 -104q0 -43 -10 -93h-360q1 -32 13.5 -54t33 -36t47 -20.5t56.5 -6.5
q60 0 98.5 14t62.5 34zM318 410q-26 0 -49 -7t-41.5 -20.5t-30.5 -33.5t-14 -45h246q0 49 -27.5 77.5t-83.5 28.5zM361 550h-91l-115 182h110l56 -94l62 94h101z" />
    <glyph glyph-name="Gcircumflex" unicode="&#x11c;" 
d="M323 365h239v-316q-34 -31 -88.5 -47t-111.5 -16q-67 0 -125.5 23t-101.5 69.5t-68 115t-25 160.5q0 97 30 165t77.5 111.5t106.5 63.5t117 20q60 0 100 -9.5t73 -24.5v-207h-110v111l-16 4q-20 4 -44 4q-41 0 -76 -14t-60.5 -43.5t-39.5 -75.5t-14 -110q0 -57 14 -102
t39 -76t59.5 -47t74.5 -16q26 0 47.5 6t29.5 12v139h-127v100zM554 737h-136l-73 61l-68 -61h-141l155 133h102z" />
    <glyph glyph-name="gcircumflex" unicode="&#x11d;" 
d="M530 0q0 -54 -18.5 -94t-51 -66.5t-77 -39t-97.5 -12.5q-36 0 -67.5 5.5t-58 14.5t-46.5 19.5t-32 20.5l50 92q24 -16 57.5 -30.5t84.5 -14.5q63 0 96 29t33 83v32h-4q-18 -24 -53 -35.5t-81 -11.5q-48 0 -88.5 15t-70.5 45.5t-46.5 77.5t-16.5 110q0 66 19.5 117
t55 85.5t85 52t110.5 17.5q32 0 64 -2.5t60.5 -6.5t52.5 -9.5t40 -11.5v-482zM290 96q38 0 68.5 17t41.5 51v225q-14 6 -39.5 9.5t-48.5 3.5q-28 0 -52.5 -9t-43 -28.5t-29 -49t-10.5 -70.5q0 -36 9 -64t25 -47t36 -28.5t43 -9.5zM281 732h86l111 -182h-103l-55 94l-63 -94
h-99z" />
    <glyph glyph-name="Gbreve" unicode="&#x11e;" 
d="M323 365h239v-316q-34 -31 -88.5 -47t-111.5 -16q-67 0 -125.5 23t-101.5 69.5t-68 115t-25 160.5q0 97 30 165t77.5 111.5t106.5 63.5t117 20q60 0 100 -9.5t73 -24.5v-207h-110v111l-16 4q-20 4 -44 4q-41 0 -76 -14t-60.5 -43.5t-39.5 -75.5t-14 -110q0 -57 14 -102
t39 -76t59.5 -47t74.5 -16q26 0 47.5 6t29.5 12v139h-127v100zM223 885q20 -26 58 -40t85 -14q48 0 82.5 15t54.5 39l58 -45q-37 -54 -88 -77t-108 -23q-27 0 -54.5 4.5t-53.5 15.5t-50.5 30.5t-44.5 49.5z" />
    <glyph glyph-name="gbreve" unicode="&#x11f;" 
d="M530 0q0 -54 -18.5 -94t-51 -66.5t-77 -39t-97.5 -12.5q-36 0 -67.5 5.5t-58 14.5t-46.5 19.5t-32 20.5l50 92q24 -16 57.5 -30.5t84.5 -14.5q63 0 96 29t33 83v32h-4q-18 -24 -53 -35.5t-81 -11.5q-48 0 -88.5 15t-70.5 45.5t-46.5 77.5t-16.5 110q0 66 19.5 117
t55 85.5t85 52t110.5 17.5q32 0 64 -2.5t60.5 -6.5t52.5 -9.5t40 -11.5v-482zM290 96q38 0 68.5 17t41.5 51v225q-14 6 -39.5 9.5t-48.5 3.5q-28 0 -52.5 -9t-43 -28.5t-29 -49t-10.5 -70.5q0 -36 9 -64t25 -47t36 -28.5t43 -9.5zM215 720q17 -30 47.5 -44.5t64.5 -14.5
t62.5 15t43.5 44l60 -27q-3 -24 -16.5 -47.5t-35.5 -41.5t-51.5 -29t-63.5 -11q-66 0 -113 33.5t-61 90.5z" />
    <glyph glyph-name="Gcommaaccent" unicode="&#x122;" 
d="M323 365h239v-316q-34 -31 -88.5 -47t-111.5 -16q-67 0 -125.5 23t-101.5 69.5t-68 115t-25 160.5q0 97 30 165t77.5 111.5t106.5 63.5t117 20q60 0 100 -9.5t73 -24.5v-207h-110v111l-16 4q-20 4 -44 4q-41 0 -76 -14t-60.5 -43.5t-39.5 -75.5t-14 -110q0 -57 14 -102
t39 -76t59.5 -47t74.5 -16q26 0 47.5 6t29.5 12v139h-127v100zM258 -95q0 18 8 30t20 19.5t27 10.5t30 3q35 0 62 -20t27 -62q0 -29 -12.5 -50.5t-32 -36t-45 -22t-50.5 -7.5l-13 48q28 1 47 12t20 26q-38 -5 -63 9.5t-25 39.5z" />
    <glyph glyph-name="gcommaaccent" unicode="&#x123;" 
d="M530 0q0 -54 -18.5 -94t-51 -66.5t-77 -39t-97.5 -12.5q-36 0 -67.5 5.5t-58 14.5t-46.5 19.5t-32 20.5l50 92q24 -16 57.5 -30.5t84.5 -14.5q63 0 96 29t33 83v32h-4q-18 -24 -53 -35.5t-81 -11.5q-48 0 -88.5 15t-70.5 45.5t-46.5 77.5t-16.5 110q0 66 19.5 117
t55 85.5t85 52t110.5 17.5q32 0 64 -2.5t60.5 -6.5t52.5 -9.5t40 -11.5v-482zM290 96q38 0 68.5 17t41.5 51v225q-14 6 -39.5 9.5t-48.5 3.5q-28 0 -52.5 -9t-43 -28.5t-29 -49t-10.5 -70.5q0 -36 9 -64t25 -47t36 -28.5t43 -9.5zM412.013 603.994
q0 -17.999 -7.99902 -29.998q-8 -11.999 -19.999 -19.499q-11.999 -7.49902 -26.999 -10.499q-14.999 -3 -29.998 -3q-34.9971 0 -61.9961 19.999q-26.998 19.999 -26.998 61.9961q0 28.998 12.499 50.4971q12.499 21.498 31.998 35.9971q19.499 14.5 44.9971 21.999
q25.499 7.5 50.4971 7.5l12.999 -47.9971q-27.998 -1 -46.9971 -12q-18.999 -10.999 -19.998 -25.998q37.9971 5 62.9961 -9.49902q24.998 -14.5 24.998 -39.498z" />
    <glyph glyph-name="Hcircumflex" unicode="&#x124;" 
d="M413 293h-226v-293h-137v700h137v-285h226v285h137v-700h-137v293zM509 737h-136l-73 61l-68 -61h-141l155 133h102z" />
    <glyph glyph-name="hcircumflex" unicode="&#x125;" 
d="M51 700h202v-256h4q24 32 64 51t94 19q38 0 70 -10t55 -33t36 -62.5t13 -97.5v-311h-130v284q0 61 -26 88t-68 27q-37 0 -68 -22.5t-44 -57.5v-319h-130v590h-72v110zM418 737h-136l-73 61l-68 -61h-141l155 133h102z" />
    <glyph glyph-name="Hbar" unicode="&#x126;" 
d="M3 598h71v102h137v-102h180v102h137v-102h68v-82h-68v-516h-137v293h-180v-293h-137v516h-71v82zM391 415v101h-180v-101h180z" />
    <glyph glyph-name="hbar" unicode="&#x127;" 
d="M415 0v284q0 61 -26 88t-68 27q-37 0 -68 -22.5t-44 -57.5v-319h-130v561h-74v80h74v59h130v-59h161v-80h-161v-117h4q24 32 64 51t94 19q38 0 70 -10t55 -33t36 -62.5t13 -97.5v-311h-130z" />
    <glyph glyph-name="Imacron" unicode="&#x12a;" 
d="M54 122h177v456h-177v122h492v-122h-178v-456h178v-122h-492v122zM132 856h343v-89h-343v89z" />
    <glyph glyph-name="imacron" unicode="&#x12b;" 
d="M59 110h176v280h-176v110h306v-390h185v-110h-491v110zM138 658h323v-92h-323v92z" />
    <glyph glyph-name="Iogonek" unicode="&#x12e;" 
d="M54 122h177v456h-177v122h492v-122h-178v-456h178v-122h-66q-23 -12 -36 -30t-12 -43q0 -18 11 -30.5t31 -12.5q17 0 41 12l20 -62q-15 -12 -47.5 -24t-67.5 -12q-57 0 -86 25.5t-29 66.5q0 38 23 65.5t64 44.5h-338v122z" />
    <glyph glyph-name="iogonek" unicode="&#x12f;" 
d="M84 110h176v280h-176v110h306v-390h185v-110h-55q-48 -23 -48 -69q0 -18 11 -30.5t31 -12.5q18 0 42 12l19 -62q-15 -12 -47.5 -23.5t-67.5 -11.5q-56 0 -85.5 25t-29.5 66t27 70q20 21 51 36h-339v110zM235 636q0 31 23 53t64 22q42 0 67 -22t25 -53q0 -32 -25 -52.5
t-67 -20.5q-41 0 -64 20.5t-23 52.5z" />
    <glyph glyph-name="Idotaccent" unicode="&#x130;" 
d="M54 122h177v456h-177v122h492v-122h-178v-456h178v-122h-492v122zM207 809q0 27 23 46t70 19q46 0 71 -19t25 -46q0 -29 -25 -48t-71 -19q-47 0 -70 19t-23 48z" />
    <glyph glyph-name="dotlessi" unicode="&#x131;" 
d="M59 110h176v280h-176v110h306v-390h185v-110h-491v110z" />
    <glyph glyph-name="Jcircumflex" unicode="&#x134;" 
d="M39 700h418v-446q0 -57 -14.5 -107t-52.5 -89q-24 -24 -51.5 -38t-53.5 -21t-49 -9t-38 -2q-48 0 -93 10.5t-90 37.5l49 110q38 -22 65.5 -29t63.5 -7q22 0 47.5 8.5t44.5 28.5q35 38 35 106v325h-281v122zM461 737h-136l-73 61l-68 -61h-141l155 133h102z" />
    <glyph glyph-name="jcircumflex" unicode="&#x135;" 
d="M94 500h368v-461q0 -115 -60 -181t-180 -66q-49 0 -93 15t-76 44l58 96q11 -9 39.5 -22.5t64.5 -13.5q24 0 45.5 7.5t37.5 25t25 45.5t9 70v331h-238v110zM243 732h86l111 -182h-103l-55 94l-63 -94h-99z" />
    <glyph glyph-name="Kcommaaccent" unicode="&#x136;" 
d="M256 292h-71v-292h-137v700h137v-286h71l160 286h156l-197 -338l222 -362h-169zM200 -95q0 18 8 30t20 19.5t27 10.5t30 3q35 0 62 -20t27 -62q0 -29 -12.5 -50.5t-32 -36t-45 -22t-50.5 -7.5l-13 48q28 1 47 12t20 26q-38 -5 -63 9.5t-25 39.5z" />
    <glyph glyph-name="kcommaaccent" unicode="&#x137;" 
d="M0 700h212v-399h30l164 199h153l-202 -228l131 -162h93v-110h-162l-172 207h-35v-207h-130v590h-82v110zM213 -95q0 18 8 30t20 19.5t27 10.5t30 3q35 0 62 -20t27 -62q0 -29 -12.5 -50.5t-32 -36t-45 -22t-50.5 -7.5l-13 48q28 1 47 12t20 26q-38 -5 -63 9.5t-25 39.5z
" />
    <glyph glyph-name="Lacute" unicode="&#x139;" 
d="M414 285h124v-285h-460v700h137v-578h199v163zM233 870h159v-30l-160 -88h-103z" />
    <glyph glyph-name="lacute" unicode="&#x13a;" 
d="M87 700h213v-462q0 -77 19 -107t61 -30q31 0 51 6.5t40 18.5l49 -90q-17 -11 -34 -20.5t-36 -16t-41.5 -10t-50.5 -3.5q-94 0 -141 48t-47 136v420h-83v110zM319 870h159v-30l-160 -88h-103z" />
    <glyph glyph-name="Lcommaaccent" unicode="&#x13b;" 
d="M414 285h124v-285h-460v700h137v-578h199v163zM203 -95q0 18 8 30t20 19.5t27 10.5t30 3q35 0 62 -20t27 -62q0 -29 -12.5 -50.5t-32 -36t-45 -22t-50.5 -7.5l-13 48q28 1 47 12t20 26q-38 -5 -63 9.5t-25 39.5z" />
    <glyph glyph-name="lcommaaccent" unicode="&#x13c;" 
d="M87 700h213v-462q0 -77 19 -107t61 -30q31 0 51 6.5t40 18.5l49 -90q-17 -11 -34 -20.5t-36 -16t-41.5 -10t-50.5 -3.5q-94 0 -141 48t-47 136v420h-83v110zM247 -95q0 18 8 30t20 19.5t27 10.5t30 3q35 0 62 -20t27 -62q0 -29 -12.5 -50.5t-32 -36t-45 -22t-50.5 -7.5
l-13 48q28 1 47 12t20 26q-38 -5 -63 9.5t-25 39.5z" />
    <glyph glyph-name="Lcaron" unicode="&#x13d;" 
d="M414 285h124v-285h-460v700h137v-578h199v163zM491 700q-2 -29 -12 -60.5t-23.5 -60t-28.5 -51t-27 -32.5l-58 31q17 36 26 81.5t9 91.5h114z" />
    <glyph glyph-name="lcaron" unicode="&#x13e;" 
d="M87 700h213v-462q0 -77 19 -107t61 -30q31 0 51 6.5t40 18.5l49 -90q-17 -11 -34 -20.5t-36 -16t-41.5 -10t-50.5 -3.5q-94 0 -141 48t-47 136v420h-83v110zM505 700q-2 -29 -12 -60.5t-23.5 -60t-28.5 -51t-27 -32.5l-58 31q17 36 26 81.5t9 91.5h114z" />
    <glyph glyph-name="Lslash" unicode="&#x141;" 
d="M418 285h124v-285h-460v241l-68 -44v121l68 45v337h137v-245l100 67v-125l-100 -66v-209h199v163z" />
    <glyph glyph-name="lslash" unicode="&#x142;" 
d="M95 307l75 50v233h-83v110h213v-256l100 67v-125l-100 -66v-82q0 -77 19 -107t61 -30q31 0 50 9.5t39 21.5l51 -96q-17 -11 -34 -20.5t-36 -16t-41.5 -10t-50.5 -3.5q-94 0 -141 48t-47 136v65l-75 -49v121z" />
    <glyph glyph-name="Nacute" unicode="&#x143;" 
d="M185 414h-5l6 -83v-331h-130v700h120l242 -428h5l-9 84v344h130v-700h-120zM337 870h159v-30l-160 -88h-103z" />
    <glyph glyph-name="nacute" unicode="&#x144;" 
d="M12 500h175l15 -66h4q23 32 66 56t103 24q37 0 69.5 -10t55.5 -33t36.5 -62.5t13.5 -97.5v-311h-130v284q0 61 -27.5 88t-69.5 27q-37 0 -67.5 -21.5t-41.5 -53.5v-324h-130v390h-72v110zM308 720h158l-137 -154h-80z" />
    <glyph glyph-name="Ncommaaccent" unicode="&#x145;" 
d="M185 414h-5l6 -83v-331h-130v700h120l242 -428h5l-9 84v344h130v-700h-120zM209 -95q0 18 8 30t20 19.5t27 10.5t30 3q35 0 62 -20t27 -62q0 -29 -12.5 -50.5t-32 -36t-45 -22t-50.5 -7.5l-13 48q28 1 47 12t20 26q-38 -5 -63 9.5t-25 39.5z" />
    <glyph glyph-name="ncommaaccent" unicode="&#x146;" 
d="M12 500h175l15 -66h4q23 32 66 56t103 24q37 0 69.5 -10t55.5 -33t36.5 -62.5t13.5 -97.5v-311h-130v284q0 61 -27.5 88t-69.5 27q-37 0 -67.5 -21.5t-41.5 -53.5v-324h-130v390h-72v110zM227 -95q0 18 8 30t20 19.5t27 10.5t30 3q35 0 62 -20t27 -62q0 -29 -12.5 -50.5
t-32 -36t-45 -22t-50.5 -7.5l-13 48q28 1 47 12t20 26q-38 -5 -63 9.5t-25 39.5z" />
    <glyph glyph-name="Ncaron" unicode="&#x147;" 
d="M185 414h-5l6 -83v-331h-130v700h120l242 -428h5l-9 84v344h130v-700h-120zM348 737h-102l-155 133h141l68 -61l73 61h136z" />
    <glyph glyph-name="ncaron" unicode="&#x148;" 
d="M12 500h175l15 -66h4q23 32 66 56t103 24q37 0 69.5 -10t55.5 -33t36.5 -62.5t13.5 -97.5v-311h-130v284q0 61 -27.5 88t-69.5 27q-37 0 -67.5 -21.5t-41.5 -53.5v-324h-130v390h-72v110zM367 550h-91l-115 182h110l56 -94l62 94h101z" />
    <glyph glyph-name="Omacron" unicode="&#x14c;" 
d="M36 350q0 85 16 153t49 114.5t82.5 71.5t116.5 25q72 0 122 -27t81.5 -75t46 -115t14.5 -147q0 -171 -65.5 -267.5t-198.5 -96.5q-72 0 -122.5 27t-82 75t-45.5 115t-14 147zM180 350q0 -51 4.5 -95t17 -76.5t36 -51.5t62.5 -19q35 0 58 14.5t37 44.5t19.5 75.5
t5.5 107.5q0 49 -3.5 93t-16 77t-36.5 52.5t-64 19.5q-70 0 -95 -61t-25 -181zM129 856h343v-89h-343v89z" />
    <glyph glyph-name="omacron" unicode="&#x14d;" 
d="M35 250q0 63 19 112t54 83t83.5 51.5t108.5 17.5q63 0 112.5 -19t83.5 -53.5t51.5 -83.5t17.5 -108q0 -63 -19 -112t-54 -83t-83.5 -51.5t-108.5 -17.5q-63 0 -112.5 19t-83.5 53.5t-51.5 83.5t-17.5 108zM169 250q0 -33 9 -61t26 -49t41 -32.5t55 -11.5q58 0 94.5 37
t36.5 117q0 69 -34 111.5t-97 42.5q-28 0 -52 -8.5t-41.5 -27.5t-27.5 -48t-10 -70zM139 658h323v-92h-323v92z" />
    <glyph glyph-name="Ohungarumlaut" unicode="&#x150;" 
d="M36 350q0 85 16 153t49 114.5t82.5 71.5t116.5 25q72 0 122 -27t81.5 -75t46 -115t14.5 -147q0 -171 -65.5 -267.5t-198.5 -96.5q-72 0 -122.5 27t-82 75t-45.5 115t-14 147zM180 350q0 -51 4.5 -95t17 -76.5t36 -51.5t62.5 -19q35 0 58 14.5t37 44.5t19.5 75.5
t5.5 107.5q0 49 -3.5 93t-16 77t-36.5 52.5t-64 19.5q-70 0 -95 -61t-25 -181zM215 850h134v-16l-100 -93h-93zM413 850h140v-16l-143 -93h-94z" />
    <glyph glyph-name="ohungarumlaut" unicode="&#x151;" 
d="M35 250q0 63 19 112t54 83t83.5 51.5t108.5 17.5q63 0 112.5 -19t83.5 -53.5t51.5 -83.5t17.5 -108q0 -63 -19 -112t-54 -83t-83.5 -51.5t-108.5 -17.5q-63 0 -112.5 19t-83.5 53.5t-51.5 83.5t-17.5 108zM169 250q0 -33 9 -61t26 -49t41 -32.5t55 -11.5q58 0 94.5 37
t36.5 117q0 69 -34 111.5t-97 42.5q-28 0 -52 -8.5t-41.5 -27.5t-27.5 -48t-10 -70zM215 700h129l-86 -129h-78zM393 700h142l-134 -129h-81z" />
    <glyph glyph-name="OE" unicode="&#x152;" 
d="M291 578q-8 8 -19 14t-31 6q-27 0 -45.5 -18.5t-31.5 -53.5q-12 -32 -18 -77.5t-6 -96.5q0 -48 4 -93.5t17 -80.5q27 -76 84 -76q20 0 29 4t17 10v462zM291 0q-13 -6 -36 -10t-43 -4q-66 0 -109 37t-66 105q-15 45 -21.5 100.5t-6.5 121.5q0 78 12 141t36 108
q29 55 69 85t93 30q24 0 41 -4t31 -10h300v-122h-176v-163h159v-122h-159v-171h179v-122h-303z" />
    <glyph glyph-name="oe" unicode="&#x153;" 
d="M138 250q0 -76 13 -116t42 -40q27 0 40 35t13 121q0 78 -12 117t-41 39q-13 0 -23 -8t-17 -26t-11 -48t-4 -74zM302 51q-17 -32 -44 -48.5t-70 -16.5q-82 0 -130.5 65.5t-48.5 198.5q0 66 13.5 115.5t38 82.5t58.5 49.5t74 16.5q47 0 73 -19.5t41 -46.5q14 26 47.5 46
t79.5 20q29 0 57.5 -9.5t51 -31.5t36.5 -58t14 -89q0 -9 -1 -23t-2.5 -29l-3 -30t-3.5 -27h-214q1 -129 80 -129q14 0 29 3t28.5 8t24.5 11t16 12l37 -86q-11 -12 -28.5 -21t-39 -15.5t-44.5 -10t-44 -3.5q-38 0 -74 18t-52 47zM431 412q-32 0 -44.5 -33t-14.5 -84h103
q1 7 1 11v9q0 43 -10.5 70t-34.5 27z" />
    <glyph glyph-name="Racute" unicode="&#x154;" 
d="M62 693q23 4 49.5 7.5t53 5.5t51.5 3t46 1q49 0 96.5 -9.5t85 -32.5t60 -62t22.5 -97q0 -43 -8.5 -74.5t-23.5 -55.5t-36.5 -41.5t-46.5 -31.5l169 -306h-158l-141 274h-82v-274h-137v693zM272 588q-21 0 -41.5 -1t-31.5 -4v-203h54q57 0 93 26t36 86q0 45 -28 70.5
t-82 25.5zM289 870h159v-30l-160 -88h-103z" />
    <glyph glyph-name="racute" unicode="&#x155;" 
d="M39 110h124v280h-124v110h225l15 -66h4q28 33 64 55t84 22q60 0 94.5 -44t34.5 -147h-117q0 36 -10.5 52.5t-33.5 16.5q-40 0 -64.5 -20t-41.5 -46v-213h217v-110h-471v110zM318 720h158l-137 -154h-80z" />
    <glyph glyph-name="Rcommaaccent" unicode="&#x156;" 
d="M62 693q23 4 49.5 7.5t53 5.5t51.5 3t46 1q49 0 96.5 -9.5t85 -32.5t60 -62t22.5 -97q0 -43 -8.5 -74.5t-23.5 -55.5t-36.5 -41.5t-46.5 -31.5l169 -306h-158l-141 274h-82v-274h-137v693zM272 588q-21 0 -41.5 -1t-31.5 -4v-203h54q57 0 93 26t36 86q0 45 -28 70.5
t-82 25.5zM214 -95q0 18 8 30t20 19.5t27 10.5t30 3q35 0 62 -20t27 -62q0 -29 -12.5 -50.5t-32 -36t-45 -22t-50.5 -7.5l-13 48q28 1 47 12t20 26q-38 -5 -63 9.5t-25 39.5z" />
    <glyph glyph-name="rcommaaccent" unicode="&#x157;" 
d="M39 110h124v280h-124v110h225l15 -66h4q28 33 64 55t84 22q60 0 94.5 -44t34.5 -147h-117q0 36 -10.5 52.5t-33.5 16.5q-40 0 -64.5 -20t-41.5 -46v-213h217v-110h-471v110zM187 -95q0 18 8 30t20 19.5t27 10.5t30 3q35 0 62 -20t27 -62q0 -29 -12.5 -50.5t-32 -36
t-45 -22t-50.5 -7.5l-13 48q28 1 47 12t20 26q-38 -5 -63 9.5t-25 39.5z" />
    <glyph glyph-name="Rcaron" unicode="&#x158;" 
d="M62 693q23 4 49.5 7.5t53 5.5t51.5 3t46 1q49 0 96.5 -9.5t85 -32.5t60 -62t22.5 -97q0 -43 -8.5 -74.5t-23.5 -55.5t-36.5 -41.5t-46.5 -31.5l169 -306h-158l-141 274h-82v-274h-137v693zM272 588q-21 0 -41.5 -1t-31.5 -4v-203h54q57 0 93 26t36 86q0 45 -28 70.5
t-82 25.5zM315 737h-102l-155 133h141l68 -61l73 61h136z" />
    <glyph glyph-name="rcaron" unicode="&#x159;" 
d="M39 110h124v280h-124v110h225l15 -66h4q28 33 64 55t84 22q60 0 94.5 -44t34.5 -147h-117q0 36 -10.5 52.5t-33.5 16.5q-40 0 -64.5 -20t-41.5 -46v-213h217v-110h-471v110zM360 550h-91l-115 182h110l56 -94l62 94h101z" />
    <glyph glyph-name="Sacute" unicode="&#x15a;" 
d="M65 229h110v-99l6 -2q23 -10 50.5 -16.5t58.5 -6.5q56 0 87 22.5t31 60.5q0 34 -25.5 55t-63 37t-82 32t-82 40.5t-63 61.5t-25.5 96q0 45 17.5 82.5t49 64.5t75.5 42t98 15q61 0 120 -11t94 -30v-203h-110v111q-3 0 -6 1q-22 6 -47.5 9.5t-50.5 3.5q-48 0 -75.5 -19
t-27.5 -51q0 -33 25.5 -54t63 -38t82 -34t82 -41.5t63 -61.5t25.5 -93q0 -54 -20 -94.5t-56 -68t-85 -41t-106 -13.5q-38 0 -70.5 6t-60 15t-48.5 19t-34 17v186zM349 870h159v-30l-160 -88h-103z" />
    <glyph glyph-name="sacute" unicode="&#x15b;" 
d="M402 138q0 20 -24.5 32t-60.5 22t-79 20.5t-79 29t-60.5 47t-24.5 73.5q0 37 16.5 65t45 47.5t68 29.5t85.5 10q49 0 86 -7t64.5 -17t47 -22.5t33.5 -22.5l-55 -89q-15 9 -34.5 18.5t-41 17.5t-45 13t-46.5 5q-42 0 -68 -11t-26 -34q0 -18 24.5 -29t60.5 -20.5t79 -20.5
t79 -28.5t60.5 -45.5t24.5 -72q0 -76 -55.5 -119.5t-164.5 -43.5q-86 0 -148.5 25.5t-100.5 59.5l60 94q13 -11 34.5 -24.5t48.5 -24.5t57.5 -18.5t60.5 -7.5q32 0 55 11t23 37zM298 720h158l-137 -154h-80z" />
    <glyph glyph-name="Scircumflex" unicode="&#x15c;" 
d="M65 229h110v-99l6 -2q23 -10 50.5 -16.5t58.5 -6.5q56 0 87 22.5t31 60.5q0 34 -25.5 55t-63 37t-82 32t-82 40.5t-63 61.5t-25.5 96q0 45 17.5 82.5t49 64.5t75.5 42t98 15q61 0 120 -11t94 -30v-203h-110v111q-3 0 -6 1q-22 6 -47.5 9.5t-50.5 3.5q-48 0 -75.5 -19
t-27.5 -51q0 -33 25.5 -54t63 -38t82 -34t82 -41.5t63 -61.5t25.5 -93q0 -54 -20 -94.5t-56 -68t-85 -41t-106 -13.5q-38 0 -70.5 6t-60 15t-48.5 19t-34 17v186zM531 737h-136l-73 61l-68 -61h-141l155 133h102z" />
    <glyph glyph-name="scircumflex" unicode="&#x15d;" 
d="M402 138q0 20 -24.5 32t-60.5 22t-79 20.5t-79 29t-60.5 47t-24.5 73.5q0 37 16.5 65t45 47.5t68 29.5t85.5 10q49 0 86 -7t64.5 -17t47 -22.5t33.5 -22.5l-55 -89q-15 9 -34.5 18.5t-41 17.5t-45 13t-46.5 5q-42 0 -68 -11t-26 -34q0 -18 24.5 -29t60.5 -20.5t79 -20.5
t79 -28.5t60.5 -45.5t24.5 -72q0 -76 -55.5 -119.5t-164.5 -43.5q-86 0 -148.5 25.5t-100.5 59.5l60 94q13 -11 34.5 -24.5t48.5 -24.5t57.5 -18.5t60.5 -7.5q32 0 55 11t23 37zM266 732h86l111 -182h-103l-55 94l-63 -94h-99z" />
    <glyph glyph-name="Scedilla" unicode="&#x15e;" 
d="M65 229h110v-99l6 -2q23 -10 50.5 -16.5t58.5 -6.5q56 0 87 22.5t31 60.5q0 34 -25.5 55t-63 37t-82 32t-82 40.5t-63 61.5t-25.5 96q0 45 17.5 82.5t49 64.5t75.5 42t98 15q61 0 120 -11t94 -30v-203h-110v111q-3 0 -6 1q-22 6 -47.5 9.5t-50.5 3.5q-48 0 -75.5 -19
t-27.5 -51q0 -33 25.5 -54t63 -38t82 -34t82 -41.5t63 -61.5t25.5 -93q0 -54 -19.5 -94.5t-54.5 -68t-84 -40.5q-20 -6 -43 -9l-17 -34q41 -4 64.5 -21.5t23.5 -53.5q0 -23 -11.5 -40t-31.5 -28.5t-47 -17.5t-58 -6t-64 6l9 48q7 -1 13 -1h11q38 0 49 9t11 21q0 28 -86 32
l48 82q-60 2 -106 17q-55 19 -87 39v186z" />
    <glyph glyph-name="scedilla" unicode="&#x15f;" 
d="M402 138q0 20 -24.5 32t-60.5 22t-79 20.5t-79 29t-60.5 47t-24.5 73.5q0 37 16.5 65t45 47.5t68 29.5t85.5 10q49 0 86 -7t64.5 -17t47 -22.5t33.5 -22.5l-55 -89q-15 9 -34.5 18.5t-41 17.5t-45 13t-46.5 5q-42 0 -68 -11t-26 -34q0 -18 24.5 -29t60.5 -20.5t79 -20.5
t79 -28.5t60.5 -45.5t24.5 -72q0 -76 -56 -120q-45 -35 -127 -42l-17 -30q41 -4 64.5 -21.5t23.5 -53.5q0 -23 -11.5 -40t-31.5 -28.5t-47 -17.5t-58 -6t-64 6l9 48q7 -1 13 -1h11q38 0 49 9t11 21q0 28 -86 32l50 83q-57 6 -102 23q-62 26 -100 60l60 94q13 -11 34.5 -24.5
t48.5 -24.5t57.5 -18.5t60.5 -7.5q32 0 55 11t23 37z" />
    <glyph glyph-name="Scaron" unicode="&#x160;" 
d="M65 229h110v-99l6 -2q23 -10 50.5 -16.5t58.5 -6.5q56 0 87 22.5t31 60.5q0 34 -25.5 55t-63 37t-82 32t-82 40.5t-63 61.5t-25.5 96q0 45 17.5 82.5t49 64.5t75.5 42t98 15q61 0 120 -11t94 -30v-203h-110v111q-3 0 -6 1q-22 6 -47.5 9.5t-50.5 3.5q-48 0 -75.5 -19
t-27.5 -51q0 -33 25.5 -54t63 -38t82 -34t82 -41.5t63 -61.5t25.5 -93q0 -54 -20 -94.5t-56 -68t-85 -41t-106 -13.5q-38 0 -70.5 6t-60 15t-48.5 19t-34 17v186zM358 737h-102l-155 133h141l68 -61l73 61h136z" />
    <glyph glyph-name="scaron" unicode="&#x161;" 
d="M402 138q0 20 -24.5 32t-60.5 22t-79 20.5t-79 29t-60.5 47t-24.5 73.5q0 37 16.5 65t45 47.5t68 29.5t85.5 10q49 0 86 -7t64.5 -17t47 -22.5t33.5 -22.5l-55 -89q-15 9 -34.5 18.5t-41 17.5t-45 13t-46.5 5q-42 0 -68 -11t-26 -34q0 -18 24.5 -29t60.5 -20.5t79 -20.5
t79 -28.5t60.5 -45.5t24.5 -72q0 -76 -55.5 -119.5t-164.5 -43.5q-86 0 -148.5 25.5t-100.5 59.5l60 94q13 -11 34.5 -24.5t48.5 -24.5t57.5 -18.5t60.5 -7.5q32 0 55 11t23 37zM342 550h-91l-115 182h110l56 -94l62 94h101z" />
    <glyph glyph-name="Tcedilla" unicode="&#x162;" 
d="M346 0l-24 -43q41 -4 64.5 -21.5t23.5 -53.5q0 -23 -11.5 -40t-31.5 -28.5t-47 -17.5t-58 -6t-64 6l9 48q7 -1 13 -1h11q38 0 49 9t11 21q0 28 -86 32l57 95h-144v110h114v480h-96v-121h-110v231h548v-231h-110v121h-95v-480h113v-110h-136z" />
    <glyph glyph-name="tcedilla" unicode="&#x163;" 
d="M116 390h-99v110h99v114l130 37v-151h262v-110h-262v-143q0 -77 29 -111.5t81 -34.5q27 0 49 6.5t39.5 16.5t32 22t26.5 22l60 -90q-17 -20 -42.5 -36.5t-55 -29t-61.5 -19.5q-25 -5 -50 -7l-16 -29q41 -4 64.5 -21.5t23.5 -53.5q0 -23 -11.5 -40t-31.5 -28.5t-47 -17.5
t-58 -6t-64 6l9 48q7 -1 13 -1h11q38 0 49 9t11 21q0 28 -86 32l52 88q-63 13 -101 55q-56 63 -56 199v143z" />
    <glyph glyph-name="Tcaron" unicode="&#x164;" 
d="M118 110h114v480h-96v-121h-110v231h548v-231h-110v121h-95v-480h113v-110h-364v110zM348 737h-102l-155 133h141l68 -61l73 61h136z" />
    <glyph glyph-name="tcaron" unicode="&#x165;" 
d="M116 390h-99v110h99v114l130 37v-151h262v-110h-262v-143q0 -77 29 -111.5t81 -34.5q27 0 49 6.5t39.5 16.5t32 22t26.5 22l60 -90q-17 -20 -42.5 -36.5t-55 -29t-61.5 -19.5t-63 -7q-112 0 -168.5 62.5t-56.5 198.5v143zM450 733q-2 -29 -12 -60.5t-23.5 -60t-28.5 -51
t-27 -32.5l-58 31q17 36 26 81.5t9 91.5h114z" />
    <glyph glyph-name="Umacron" unicode="&#x16a;" 
d="M420 700h130v-448q0 -68 -18 -117.5t-50.5 -82t-77.5 -48.5t-99 -16q-130 0 -192.5 63t-62.5 184v465h137v-438q0 -80 29 -116t91 -36q60 0 86.5 38.5t26.5 113.5v438zM129 856h343v-89h-343v89z" />
    <glyph glyph-name="umacron" unicode="&#x16b;" 
d="M330 500h186v-348v-42h76v-110h-158l-23 74h-4q-23 -38 -69 -63t-102 -25q-38 0 -69.5 10t-53.5 33t-34 62t-12 98v201h-57v110h187v-284q0 -61 19.5 -88t61.5 -27q37 0 66.5 22t41.5 54v213h-56v110zM122 658h323v-92h-323v92z" />
    <glyph glyph-name="Ubreve" unicode="&#x16c;" 
d="M420 700h130v-448q0 -68 -18 -117.5t-50.5 -82t-77.5 -48.5t-99 -16q-130 0 -192.5 63t-62.5 184v465h137v-438q0 -80 29 -116t91 -36q60 0 86.5 38.5t26.5 113.5v438zM162 885q20 -26 58 -40t85 -14q48 0 82.5 15t54.5 39l58 -45q-37 -54 -88 -77t-108 -23
q-27 0 -54.5 4.5t-53.5 15.5t-50.5 30.5t-44.5 49.5z" />
    <glyph glyph-name="ubreve" unicode="&#x16d;" 
d="M330 500h186v-348v-42h76v-110h-158l-23 74h-4q-23 -38 -69 -63t-102 -25q-38 0 -69.5 10t-53.5 33t-34 62t-12 98v201h-57v110h187v-284q0 -61 19.5 -88t61.5 -27q37 0 66.5 22t41.5 54v213h-56v110zM165 720q17 -30 47.5 -44.5t64.5 -14.5t62.5 15t43.5 44l60 -27
q-3 -24 -16.5 -47.5t-35.5 -41.5t-51.5 -29t-63.5 -11q-66 0 -113 33.5t-61 90.5z" />
    <glyph glyph-name="Uring" unicode="&#x16e;" 
d="M420 700h130v-448q0 -68 -18 -117.5t-50.5 -82t-77.5 -48.5t-99 -16q-130 0 -192.5 63t-62.5 184v465h137v-438q0 -80 29 -116t91 -36q60 0 86.5 38.5t26.5 113.5v438zM176 772q0 18 6 34.5t20.5 29t39 19.5t62.5 7q70 0 99 -24t29 -66q0 -18 -6.5 -34t-21.5 -27.5
t-39.5 -18.5t-60.5 -7q-71 0 -99.5 24.5t-28.5 62.5zM260 772q0 -31 44 -31q25 0 35 8t10 23q0 17 -10.5 25t-34.5 9q-44 -1 -44 -34z" />
    <glyph glyph-name="uring" unicode="&#x16f;" 
d="M330 500h186v-348v-42h76v-110h-158l-23 74h-4q-23 -38 -69 -63t-102 -25q-38 0 -69.5 10t-53.5 33t-34 62t-12 98v201h-57v110h187v-284q0 -61 19.5 -88t61.5 -27q37 0 66.5 22t41.5 54v213h-56v110zM171 647q0 42 28.5 69t82.5 27q51 0 81 -24.5t30 -71.5
q0 -39 -29.5 -66.5t-81.5 -27.5q-53 0 -82 25.5t-29 68.5zM243 647q0 -16 12 -24.5t27 -8.5q17 0 28 8t11 25t-11.5 25.5t-27.5 8.5q-15 0 -27 -8t-12 -26z" />
    <glyph glyph-name="Uhungarumlaut" unicode="&#x170;" 
d="M420 700h130v-448q0 -68 -18 -117.5t-50.5 -82t-77.5 -48.5t-99 -16q-130 0 -192.5 63t-62.5 184v465h137v-438q0 -80 29 -116t91 -36q60 0 86.5 38.5t26.5 113.5v438zM211 850h134v-16l-100 -93h-93zM409 850h140v-16l-143 -93h-94z" />
    <glyph glyph-name="uhungarumlaut" unicode="&#x171;" 
d="M330 500h186v-348v-42h76v-110h-158l-23 74h-4q-23 -38 -69 -63t-102 -25q-38 0 -69.5 10t-53.5 33t-34 62t-12 98v201h-57v110h187v-284q0 -61 19.5 -88t61.5 -27q37 0 66.5 22t41.5 54v213h-56v110zM191 700h129l-86 -129h-78zM369 700h142l-134 -129h-81z" />
    <glyph glyph-name="Uogonek" unicode="&#x172;" 
d="M420 700h130v-448q0 -68 -18 -117.5t-51 -82.5q-27 -27 -62 -42q-21 -15 -34 -34q-15 -22 -15 -45q0 -18 11.5 -32t33.5 -14q18 0 39 11l19 -62q-15 -12 -47.5 -24t-67.5 -12q-56 0 -85.5 27.5t-29.5 68.5q0 55 54 94q-124 2 -185 63q-62 63 -62 184v465h137v-438
q0 -80 29 -116t91 -36q60 0 86.5 38.5t26.5 113.5v438z" />
    <glyph glyph-name="uogonek" unicode="&#x173;" 
d="M330 500h186v-390h76v-110h-28q-48 -23 -48 -69q0 -18 11 -30.5t31 -12.5q18 0 42 12l19 -62q-15 -12 -47.5 -23.5t-67.5 -11.5q-56 0 -85.5 25t-29.5 66t27 70q20 21 51 36h-33l-23 74h-4q-23 -38 -69 -63t-102 -25q-38 0 -69.5 10t-53.5 33t-34 62t-12 98v201h-57v110
h187v-284q0 -61 19.5 -88t61.5 -27q37 0 66.5 22t41.5 54v213h-56v110z" />
    <glyph glyph-name="Ydieresis" unicode="&#x178;" 
d="M232 258l-226 442h163l135 -289h5l138 289h147l-225 -441v-259h-137v258zM97 805q0 27 19 44t61 17t61 -17t19 -44q0 -28 -19 -44t-61 -16t-61 16t-19 44zM343 805q0 27 19 44t61 17t61 -17t19 -44q0 -28 -19 -44t-61 -16t-61 16t-19 44z" />
    <glyph glyph-name="Zacute" unicode="&#x179;" 
d="M53 122l328 456h-312v122h473v-122l-323 -456h328v-122h-494v122zM328 870h159v-30l-160 -88h-103z" />
    <glyph glyph-name="zacute" unicode="&#x17a;" 
d="M64 110l308 280h-308v110h472v-110l-305 -280h305v-110h-472v110zM305 720h158l-137 -154h-80z" />
    <glyph glyph-name="Zdotaccent" unicode="&#x17b;" 
d="M53 122l328 456h-312v122h473v-122l-323 -456h328v-122h-494v122zM210 809q0 27 23 46t70 19q46 0 71 -19t25 -46q0 -29 -25 -48t-71 -19q-47 0 -70 19t-23 48z" />
    <glyph glyph-name="zdotaccent" unicode="&#x17c;" 
d="M64 110l308 280h-308v110h472v-110l-305 -280h305v-110h-472v110zM218 636q0 31 23 53t64 22q42 0 67 -22t25 -53q0 -32 -25 -52.5t-67 -20.5q-41 0 -64 20.5t-23 52.5z" />
    <glyph glyph-name="Zcaron" unicode="&#x17d;" 
d="M53 122l328 456h-312v122h473v-122l-323 -456h328v-122h-494v122zM348 737h-102l-155 133h141l68 -61l73 61h136z" />
    <glyph glyph-name="zcaron" unicode="&#x17e;" 
d="M64 110l308 280h-308v110h472v-110l-305 -280h305v-110h-472v110zM342 550h-91l-115 182h110l56 -94l62 94h101z" />
    <glyph glyph-name="longs" unicode="&#x17f;" 
d="M80 500h109v12q0 95 52.5 145.5t143.5 50.5q45 0 89.5 -7t74.5 -20l-26 -104q-29 11 -55.5 16t-46.5 5q-51 0 -76.5 -29.5t-25.5 -78.5v-490h-130v390h-109v110z" />
    <glyph glyph-name="florin" unicode="&#x192;" 
d="M390 390l-71 -424q-6 -37 -17.5 -68.5t-32 -55t-51 -37t-74.5 -13.5q-14 0 -34 2t-40.5 5t-39 7.5t-30.5 9.5l21 105q23 -10 42 -14.5t47 -4.5q36 0 56 24.5t29 81.5l61 382h-78v110h96l11 67q6 37 16.5 64.5t29 46t47.5 27.5t72 9q16 0 36 -2.5t40.5 -7t39.5 -10
t34 -12.5l-32 -97q-23 9 -45.5 14t-45.5 5q-32 0 -44.5 -15.5t-18.5 -55.5l-5 -33h119v-110h-138z" />
    <glyph glyph-name="uni01F4" unicode="&#x1f4;" 
d="M323 365h239v-316q-34 -31 -88.5 -47t-111.5 -16q-67 0 -125.5 23t-101.5 69.5t-68 115t-25 160.5q0 97 30 165t77.5 111.5t106.5 63.5t117 20q60 0 100 -9.5t73 -24.5v-207h-110v111l-16 4q-20 4 -44 4q-41 0 -76 -14t-60.5 -43.5t-39.5 -75.5t-14 -110q0 -57 14 -102
t39 -76t59.5 -47t74.5 -16q26 0 47.5 6t29.5 12v139h-127v100zM398 870h159v-30l-160 -88h-103z" />
    <glyph glyph-name="uni01F5" unicode="&#x1f5;" 
d="M530 0q0 -54 -18.5 -94t-51 -66.5t-77 -39t-97.5 -12.5q-36 0 -67.5 5.5t-58 14.5t-46.5 19.5t-32 20.5l50 92q24 -16 57.5 -30.5t84.5 -14.5q63 0 96 29t33 83v32h-4q-18 -24 -53 -35.5t-81 -11.5q-48 0 -88.5 15t-70.5 45.5t-46.5 77.5t-16.5 110q0 66 19.5 117
t55 85.5t85 52t110.5 17.5q32 0 64 -2.5t60.5 -6.5t52.5 -9.5t40 -11.5v-482zM290 96q38 0 68.5 17t41.5 51v225q-14 6 -39.5 9.5t-48.5 3.5q-28 0 -52.5 -9t-43 -28.5t-29 -49t-10.5 -70.5q0 -36 9 -64t25 -47t36 -28.5t43 -9.5zM327 720h158l-137 -154h-80z" />
    <glyph glyph-name="Scommaaccent" unicode="&#x218;" 
d="M65 229h110v-99l6 -2q23 -10 50.5 -16.5t58.5 -6.5q56 0 87 22.5t31 60.5q0 34 -25.5 55t-63 37t-82 32t-82 40.5t-63 61.5t-25.5 96q0 45 17.5 82.5t49 64.5t75.5 42t98 15q61 0 120 -11t94 -30v-203h-110v111q-3 0 -6 1q-22 6 -47.5 9.5t-50.5 3.5q-48 0 -75.5 -19
t-27.5 -51q0 -33 25.5 -54t63 -38t82 -34t82 -41.5t63 -61.5t25.5 -93q0 -54 -20 -94.5t-56 -68t-85 -41t-106 -13.5q-38 0 -70.5 6t-60 15t-48.5 19t-34 17v186zM210 -95q0 18 8 30t20 19.5t27 10.5t30 3q35 0 62 -20t27 -62q0 -29 -12.5 -50.5t-32 -36t-45 -22t-50.5 -7.5
l-13 48q28 1 47 12t20 26q-38 -5 -63 9.5t-25 39.5z" />
    <glyph glyph-name="scommaaccent" unicode="&#x219;" 
d="M402 138q0 20 -24.5 32t-60.5 22t-79 20.5t-79 29t-60.5 47t-24.5 73.5q0 37 16.5 65t45 47.5t68 29.5t85.5 10q49 0 86 -7t64.5 -17t47 -22.5t33.5 -22.5l-55 -89q-15 9 -34.5 18.5t-41 17.5t-45 13t-46.5 5q-42 0 -68 -11t-26 -34q0 -18 24.5 -29t60.5 -20.5t79 -20.5
t79 -28.5t60.5 -45.5t24.5 -72q0 -76 -55.5 -119.5t-164.5 -43.5q-86 0 -148.5 25.5t-100.5 59.5l60 94q13 -11 34.5 -24.5t48.5 -24.5t57.5 -18.5t60.5 -7.5q32 0 55 11t23 37zM214 -95q0 18 8 30t20 19.5t27 10.5t30 3q35 0 62 -20t27 -62q0 -29 -12.5 -50.5t-32 -36
t-45 -22t-50.5 -7.5l-13 48q28 1 47 12t20 26q-38 -5 -63 9.5t-25 39.5z" />
    <glyph glyph-name="Tcommaaccent" unicode="&#x21a;" 
d="M118 110h114v480h-96v-121h-110v231h548v-231h-110v121h-95v-480h113v-110h-364v110zM210 -95q0 18 8 30t20 19.5t27 10.5t30 3q35 0 62 -20t27 -62q0 -29 -12.5 -50.5t-32 -36t-45 -22t-50.5 -7.5l-13 48q28 1 47 12t20 26q-38 -5 -63 9.5t-25 39.5z" />
    <glyph glyph-name="tcommaaccent" unicode="&#x21b;" 
d="M116 390h-99v110h99v114l130 37v-151h262v-110h-262v-143q0 -77 29 -111.5t81 -34.5q27 0 49 6.5t39.5 16.5t32 22t26.5 22l60 -90q-17 -20 -42.5 -36.5t-55 -29t-61.5 -19.5t-63 -7q-112 0 -168.5 62.5t-56.5 198.5v143zM237 -95q0 18 8 30t20 19.5t27 10.5t30 3
q35 0 62 -20t27 -62q0 -29 -12.5 -50.5t-32 -36t-45 -22t-50.5 -7.5l-13 48q28 1 47 12t20 26q-38 -5 -63 9.5t-25 39.5z" />
    <glyph glyph-name="uni0237" unicode="&#x237;" 
d="M94 500h368v-461q0 -115 -60 -181t-180 -66q-49 0 -93 15t-76 44l58 96q11 -9 39.5 -22.5t64.5 -13.5q24 0 45.5 7.5t37.5 25t25 45.5t9 70v331h-238v110z" />
    <glyph glyph-name="afii57929" unicode="&#x2bc;" 
d="M218 646q0 13 5 26t15 23.5t24.5 17t32.5 6.5q20 0 38.5 -7.5t31.5 -21.5q11 -13 17 -31t6 -38q0 -38 -13.5 -70t-38.5 -57q-11 -11 -25 -20.5t-26.5 -16t-21.5 -10.5t-11 -5l-40 59q11 4 24.5 10.5t25.5 16t20 22.5t9 30q-29 0 -51 17t-22 49z" />
    <glyph glyph-name="circumflex" unicode="&#x2c6;" 
d="M263 732h86l111 -182h-103l-55 94l-63 -94h-99z" />
    <glyph glyph-name="caron" unicode="&#x2c7;" 
d="M341 550h-91l-115 182h110l56 -94l62 94h101z" />
    <glyph glyph-name="breve" unicode="&#x2d8;" 
d="M192 720q17 -30 47.5 -44.5t64.5 -14.5t62.5 15t43.5 44l60 -27q-3 -24 -16.5 -47.5t-35.5 -41.5t-51.5 -29t-63.5 -11q-66 0 -113 33.5t-61 90.5z" />
    <glyph glyph-name="dotaccent" unicode="&#x2d9;" 
d="M211 636q0 31 23 53t64 22q42 0 67 -22t25 -53q0 -32 -25 -52.5t-67 -20.5q-41 0 -64 20.5t-23 52.5z" />
    <glyph glyph-name="ring" unicode="&#x2da;" 
d="M189 647q0 42 28.5 69t82.5 27q51 0 81 -24.5t30 -71.5q0 -39 -29.5 -66.5t-81.5 -27.5q-53 0 -82 25.5t-29 68.5zM261 647q0 -16 12 -24.5t27 -8.5q17 0 28 8t11 25t-11.5 25.5t-27.5 8.5q-15 0 -27 -8t-12 -26z" />
    <glyph glyph-name="ogonek" unicode="&#x2db;" 
d="M388 10q-76 -22 -76 -79q0 -18 11 -30.5t31 -12.5q18 0 42 12l19 -62q-15 -12 -47.5 -23.5t-67.5 -11.5q-56 0 -85.5 25t-29.5 66t27.5 70t75.5 46h100z" />
    <glyph glyph-name="tilde" unicode="&#x2dc;" 
d="M134 658q31 37 57.5 51t50.5 14q20 0 38.5 -7t36.5 -15t35 -15t35 -5q14 -2 28.5 4t30.5 21l20 -70q-29 -32 -53.5 -44t-47.5 -12q-20 0 -39 6.5t-37 14.5t-36 14.5t-36 6.5q-15 0 -31 -6.5t-33 -22.5z" />
    <glyph glyph-name="hungarumlaut" unicode="&#x2dd;" 
d="M165 700h129l-86 -129h-78zM343 700h142l-134 -129h-81z" />
    <glyph glyph-name="acutecomb" unicode="&#x301;" 
d="M260 720h158l-137 -154h-80z" />
    <glyph glyph-name="uni0394" unicode="&#x394;" 
d="M18 0v71l241 634h79l243 -634v-71h-563zM164 115h270l-135 369h-5z" />
    <glyph glyph-name="uni0394" unicode="&#x2206;" 
d="M18 0v71l241 634h79l243 -634v-71h-563zM164 115h270l-135 369h-5z" />
    <glyph glyph-name="uni03A9" unicode="&#x3a9;" 
d="M7 110h152v13q-82 31 -113.5 100t-31.5 174q0 73 19 131.5t55.5 99.5t90 63.5t121.5 22.5q72 0 125.5 -23.5t89.5 -65.5t53.5 -101t17.5 -131q0 -52 -6.5 -93.5t-23 -74.5t-45 -58t-71.5 -44v-13h153v-110h-262v203q52 9 81.5 52t29.5 137q0 37 -5 73t-20.5 64.5
t-43.5 45.5t-74 17q-77 0 -109 -51t-32 -152q0 -91 27.5 -134.5t82.5 -51.5v-203h-261v110z" />
    <glyph glyph-name="uni03A9" unicode="&#x2126;" 
d="M7 110h152v13q-82 31 -113.5 100t-31.5 174q0 73 19 131.5t55.5 99.5t90 63.5t121.5 22.5q72 0 125.5 -23.5t89.5 -65.5t53.5 -101t17.5 -131q0 -52 -6.5 -93.5t-23 -74.5t-45 -58t-71.5 -44v-13h153v-110h-262v203q52 9 81.5 52t29.5 137q0 37 -5 73t-20.5 64.5
t-43.5 45.5t-74 17q-77 0 -109 -51t-32 -152q0 -91 27.5 -134.5t82.5 -51.5v-203h-261v110z" />
    <glyph glyph-name="pi" unicode="&#x3c0;" 
d="M516 156q0 -28 9 -39t23 -11q10 0 20.5 2t19.5 4l20 -90q-12 -5 -40.5 -16.5t-73.5 -11.5q-59 0 -83.5 32t-24.5 90v274h-120v-390h-130v390h-10q-22 0 -34.5 -11t-22.5 -33l-76 48q16 52 50 79t93 27h463v-110h-83v-234z" />
    <glyph glyph-name="afii10023" unicode="&#x401;" 
d="M70 700h459v-122h-322v-163h297v-122h-297v-171h327v-122h-464v700zM102 805q0 27 19 44t61 17t61 -17t19 -44q0 -28 -19 -44t-61 -16t-61 16t-19 44zM348 805q0 27 19 44t61 17t61 -17t19 -44q0 -28 -19 -44t-61 -16t-61 16t-19 44z" />
    <glyph glyph-name="afii10051" unicode="&#x402;" 
d="M295 0h-137v578h-144v122h475v-122h-194v-140q8 4 31 11.5t61 7.5q37 0 73.5 -11.5t68.5 -43.5q27 -27 44 -68t17 -102q0 -48 -9 -88.5t-29 -71.5q-22 -33 -60.5 -56t-98.5 -23q-11 0 -28 1t-25 3v117q13 -3 33 -3q14 0 28.5 4.5t26.5 21.5q11 14 14.5 38.5t3.5 50.5
q0 20 -5.5 40.5t-17.5 36.5q-14 18 -31 25t-40 7q-22 0 -37 -6t-20 -9v-320z" />
    <glyph glyph-name="afii10052" unicode="&#x403;" 
d="M54 122h92v456h-92v122h514v-227h-110v105h-175v-456h149v-122h-378v122zM348 870h159v-30l-160 -88h-103z" />
    <glyph glyph-name="afii10053" unicode="&#x404;" 
d="M556 24q-10 -6 -28 -13t-41.5 -12.5t-51 -9t-55.5 -3.5q-63 0 -122 18t-105 60q-50 45 -79.5 115.5t-29.5 170.5q0 106 30 177t78 114q42 38 95 55.5t112 17.5q52 0 101.5 -9t81.5 -27v-199h-110v109q-30 8 -60 8q-44 0 -74 -12t-58 -38q-24 -23 -39 -59t-20 -77h237
v-110h-238q4 -48 20 -84.5t40 -60.5q26 -26 61 -38.5t75 -12.5q39 0 70 8v123h110v-211z" />
    <glyph glyph-name="afii10054" unicode="&#x405;" 
d="M65 229h110v-99l6 -2q23 -10 50.5 -16.5t58.5 -6.5q56 0 87 22.5t31 60.5q0 34 -25.5 55t-63 37t-82 32t-82 40.5t-63 61.5t-25.5 96q0 45 17.5 82.5t49 64.5t75.5 42t98 15q61 0 120 -11t94 -30v-203h-110v111q-3 0 -6 1q-22 6 -47.5 9.5t-50.5 3.5q-48 0 -75.5 -19
t-27.5 -51q0 -33 25.5 -54t63 -38t82 -34t82 -41.5t63 -61.5t25.5 -93q0 -54 -20 -94.5t-56 -68t-85 -41t-106 -13.5q-38 0 -70.5 6t-60 15t-48.5 19t-34 17v186z" />
    <glyph glyph-name="afii10055" unicode="&#x406;" 
d="M54 122h177v456h-177v122h492v-122h-178v-456h178v-122h-492v122z" />
    <glyph glyph-name="afii10056" unicode="&#x407;" 
d="M54 122h177v456h-177v122h492v-122h-178v-456h178v-122h-492v122zM97 805q0 27 19 44t61 17t61 -17t19 -44q0 -28 -19 -44t-61 -16t-61 16t-19 44zM343 805q0 27 19 44t61 17t61 -17t19 -44q0 -28 -19 -44t-61 -16t-61 16t-19 44z" />
    <glyph glyph-name="afii10057" unicode="&#x408;" 
d="M92 700h418v-446q0 -57 -14.5 -107t-52.5 -89q-24 -24 -51.5 -38t-53.5 -21t-49 -9t-38 -2q-48 0 -93 10.5t-90 37.5l49 110q38 -22 65.5 -29t63.5 -7q22 0 47.5 8.5t44.5 28.5q35 38 35 106v325h-281v122z" />
    <glyph glyph-name="afii10058" unicode="&#x409;" 
d="M269 589h-75q-5 -192 -15 -322.5t-38 -194.5q-10 -24 -23 -39.5t-26.5 -24t-27.5 -12t-26 -3.5q-18 0 -35 3.5t-29 11.5l13 109q4 -2 7.5 -2h6.5q12 0 22 8t18 27q9 22 16.5 65t12.5 110.5t8.5 160t4.5 214.5h304v-252q11 3 32 6t37 3q37 0 68 -9.5t53.5 -34.5
t35.5 -68.5t13 -110.5q0 -120 -46 -182t-160 -62q-9 0 -27 0.5t-39 2t-43.5 5t-41.5 8.5v583zM427 101q38 0 57 28.5t19 97.5q0 36 -5.5 59t-15 36.5t-23.5 18.5t-32 5q-8 0 -21.5 -2.5t-18.5 -6.5v-230q8 -2 18.5 -4t21.5 -2z" />
    <glyph glyph-name="afii10059" unicode="&#x40a;" 
d="M251 311h-141v-311h-118v700h118v-278h141v278h118v-271q7 2 28.5 5t37.5 3q36 0 67.5 -8.5t55 -31.5t37 -64.5t13.5 -108.5q0 -120 -48 -177t-157 -57q-10 0 -28 0.5t-39.5 2t-44 4t-40.5 6.5v308zM410 101q38 0 56.5 28t18.5 90q0 32 -5 53t-14.5 33t-23 16.5
t-31.5 4.5q-10 0 -23.5 -2.5t-18.5 -5.5v-211q7 -3 18.5 -4.5t22.5 -1.5z" />
    <glyph glyph-name="afii10060" unicode="&#x40b;" 
d="M290 0h-137v578h-144v122h475v-122h-194v-177q17 15 46 28t72 13q34 0 68 -11.5t57 -36.5q24 -26 38 -60.5t14 -85.5v-248h-137v196q0 22 -3 51.5t-16 46.5q-10 13 -25 22t-38 9q-25 0 -44.5 -10.5t-31.5 -23.5v-291z" />
    <glyph glyph-name="afii10061" unicode="&#x40c;" 
d="M256 292h-71v-292h-137v700h137v-286h71l160 286h156l-197 -338l222 -362h-169zM329 870h159v-30l-160 -88h-103z" />
    <glyph glyph-name="afii10062" unicode="&#x40e;" 
d="M297 332h48l99 368h141l-160 -517q-14 -44 -30.5 -79.5t-40 -60t-56.5 -37.5t-80 -13q-29 0 -52 5t-50 21l35 111q18 -9 31.5 -12t29.5 -3q22 0 37 6t24.5 18t16.5 30t13 41h-101l-196 490h147zM239 884q4 -32 23.5 -46t50.5 -14q67 0 74 59l111 -17q-11 -63 -57.5 -92
t-128.5 -29q-41 0 -75 6t-59.5 19.5t-42 36.5t-20.5 57z" />
    <glyph glyph-name="afii10145" unicode="&#x40f;" 
d="M58 0v700h137v-578h209v578h137v-700h-182v-175h-123v175h-178z" />
    <glyph glyph-name="afii10017" unicode="&#x410;" 
d="M400 155h-209l-48 -155h-137l226 700h137l225 -700h-144zM223 265h150l-71 234h-9z" />
    <glyph glyph-name="afii10018" unicode="&#x411;" 
d="M74 700h431v-122h-294v-146q17 3 41.5 6t48.5 3q56 0 103 -11t80.5 -36.5t52.5 -67t19 -101.5q0 -59 -19.5 -103t-56 -73t-88 -44t-115.5 -15q-17 0 -42.5 1t-54 3t-56.5 5t-50 8v693zM287 103q26 0 48.5 6.5t39.5 20t27 34.5t10 51q0 36 -11 58t-30 34.5t-43.5 16.5
t-52.5 4q-14 0 -35 -2.5t-29 -4.5v-213q11 -3 33.5 -4t42.5 -1z" />
    <glyph glyph-name="afii10019" unicode="&#x412;" 
d="M533 537q0 -26 -6.5 -52t-21.5 -47.5t-39 -38t-58 -24.5v-6q30 -5 57 -17t47 -33t31.5 -51t11.5 -71q0 -54 -23 -93.5t-61.5 -64.5t-87.5 -37t-101 -12h-43.5t-57 1.5t-62 4.5t-57.5 9v690q19 3 43.5 6t52.5 5t57.5 3t58.5 1q49 0 95.5 -7.5t83 -26.5t58.5 -53t22 -86z
M283 103q25 0 48.5 6t41.5 18.5t29 31.5t11 45q0 33 -13 52t-34 29.5t-47 13.5t-52 3h-73v-193q5 -2 16 -3t23.5 -1.5t26 -1t23.5 -0.5zM238 406q14 0 32.5 1t30.5 3q38 12 65.5 36t27.5 63q0 26 -10 43t-26.5 27t-37.5 14t-44 4q-26 0 -48 -1t-34 -3v-187h44z" />
    <glyph glyph-name="afii10020" unicode="&#x413;" 
d="M54 122h92v456h-92v122h514v-227h-110v105h-175v-456h149v-122h-378v122z" />
    <glyph glyph-name="afii10021" unicode="&#x414;" 
d="M592 -135h-120v135h-348v-135h-120v257h59q10 19 24.5 57t27 102.5t20.5 160t5 229.5v29h379v-578h73v-257zM382 122v456h-118q-2 -89 -8 -160.5t-15 -128t-20 -98t-22 -69.5h183z" />
    <glyph glyph-name="afii10022" unicode="&#x415;" 
d="M70 700h459v-122h-322v-163h297v-122h-297v-171h327v-122h-464v700z" />
    <glyph glyph-name="afii10024" unicode="&#x416;" 
d="M235 700h130v-297h34l50 297h136l-70 -349l82 -351h-138l-60 299h-34v-299h-130v299h-34l-60 -299h-138l82 351l-70 349h136l50 -297h34v297z" />
    <glyph glyph-name="afii10025" unicode="&#x417;" 
d="M51 235h110v-112q3 -1 5 -2q22 -7 46.5 -12t53.5 -5q24 0 46.5 6t40.5 19t28.5 33t10.5 48q0 31 -12.5 50.5t-33.5 30t-47.5 14.5t-53.5 5h-30v107h29q21 0 43.5 4t40.5 14t30 27.5t12 44.5q0 23 -9 39.5t-25 27t-37 15.5t-46 5q-47 0 -82 -10v-103h-110v190
q37 16 95.5 28.5t123.5 12.5q44 0 86 -8.5t75 -29t53 -55t20 -86.5t-27.5 -94t-88.5 -62v-5q66 -17 102 -57t36 -112q0 -57 -23 -98t-60.5 -67.5t-86.5 -39t-100 -12.5q-66 0 -121.5 11.5t-93.5 29.5v208z" />
    <glyph glyph-name="afii10026" unicode="&#x418;" 
d="M413 370l8 91h-5l-41 -94l-198 -367h-127v700h137v-363l-10 -94h6l43 97l198 360h126v-700h-137v370z" />
    <glyph glyph-name="afii10027" unicode="&#x419;" 
d="M413 370l8 91h-5l-41 -94l-198 -367h-127v700h137v-363l-10 -94h6l43 97l198 360h126v-700h-137v370zM240 884q4 -32 23.5 -46t50.5 -14q67 0 74 59l111 -17q-11 -63 -57.5 -92t-128.5 -29q-41 0 -75 6t-59.5 19.5t-42 36.5t-20.5 57z" />
    <glyph glyph-name="afii10028" unicode="&#x41a;" 
d="M256 292h-71v-292h-137v700h137v-286h71l160 286h156l-197 -338l222 -362h-169z" />
    <glyph glyph-name="afii10029" unicode="&#x41b;" 
d="M421 578h-129q-5 -95 -10.5 -173t-14 -140.5t-21 -109.5t-32.5 -79q-29 -48 -65 -65.5t-74 -17.5q-23 0 -40.5 4.5t-26.5 9.5l15 118q5 -2 11.5 -3t12.5 -1q16 0 32.5 8t28.5 27q14 22 24 65.5t16.5 110t10 158t6.5 210.5h393v-700h-137v578z" />
    <glyph glyph-name="afii10030" unicode="&#x41c;" 
d="M423 373l5 109h-6l-112 -183h-24l-117 183h-5l6 -98v-384h-130v700h139l120 -194h4l119 194h138v-700h-137v373z" />
    <glyph glyph-name="afii10031" unicode="&#x41d;" 
d="M413 293h-226v-293h-137v700h137v-285h226v285h137v-700h-137v293z" />
    <glyph glyph-name="afii10032" unicode="&#x41e;" 
d="M36 350q0 85 16 153t49 114.5t82.5 71.5t116.5 25q72 0 122 -27t81.5 -75t46 -115t14.5 -147q0 -171 -65.5 -267.5t-198.5 -96.5q-72 0 -122.5 27t-82 75t-45.5 115t-14 147zM180 350q0 -51 4.5 -95t17 -76.5t36 -51.5t62.5 -19q35 0 58 14.5t37 44.5t19.5 75.5
t5.5 107.5q0 49 -3.5 93t-16 77t-36.5 52.5t-64 19.5q-70 0 -95 -61t-25 -181z" />
    <glyph glyph-name="afii10033" unicode="&#x41f;" 
d="M407 578h-214v-578h-137v700h488v-700h-137v578z" />
    <glyph glyph-name="afii10034" unicode="&#x420;" 
d="M73 693q42 8 92.5 12.5t100.5 4.5q52 0 104.5 -8.5t94.5 -34t68.5 -71t26.5 -118.5q0 -64 -23 -109.5t-61 -75t-86.5 -43t-100.5 -13.5h-16t-23 0.5t-23.5 1.5t-16.5 2v-241h-137v693zM277 592q-20 0 -38 -1.5t-29 -3.5v-227q4 -1 12 -2t17 -1.5t17.5 -0.5h12.5
q27 0 53.5 5t47.5 18.5t33.5 37.5t12.5 63q0 33 -12 54.5t-31.5 34.5t-44.5 18t-51 5z" />
    <glyph glyph-name="afii10035" unicode="&#x421;" 
d="M444 235h110v-200q-32 -23 -81.5 -36t-101.5 -13q-66 0 -125.5 19.5t-104.5 63t-72 113t-27 168.5q0 103 30.5 172.5t78.5 112t107 61t116 18.5q60 0 101.5 -10t68.5 -23v-208h-110v114q-31 5 -64 5q-39 0 -72.5 -14.5t-58.5 -44.5t-39 -75.5t-14 -107.5q0 -54 13 -98.5
t38 -76.5t61 -49.5t82 -17.5q33 0 64 6v121z" />
    <glyph glyph-name="afii10036" unicode="&#x422;" 
d="M118 110h114v480h-96v-121h-110v231h548v-231h-110v121h-95v-480h113v-110h-364v110z" />
    <glyph glyph-name="afii10037" unicode="&#x423;" 
d="M297 332h48l99 368h141l-160 -517q-14 -44 -30.5 -79.5t-40 -60t-56.5 -37.5t-80 -13q-29 0 -52 5t-50 21l35 111q18 -9 31.5 -12t29.5 -3q22 0 37 6t24.5 18t16.5 30t13 41h-101l-196 490h147z" />
    <glyph glyph-name="afii10038" unicode="&#x424;" 
d="M360 173q22 3 41 11.5t33 29t21.5 55.5t7.5 90q0 91 -24.5 131t-78.5 45v-362zM240 535q-54 -5 -78.5 -45t-24.5 -131q0 -55 7.5 -90t21.5 -55.5t32.5 -29t41.5 -11.5v362zM233 720h134v-76q43 -2 84 -15.5t73.5 -45t52 -85.5t19.5 -138q0 -81 -18.5 -136t-49.5 -89.5
t-73 -50t-88 -18.5v-86h-134v86q-47 3 -88.5 18.5t-72.5 50t-49.5 89.5t-18.5 136q0 80 19.5 133.5t52 86t73.5 47.5t84 17v76z" />
    <glyph glyph-name="afii10039" unicode="&#x425;" 
d="M220 359l-198 341h160l102 -190l23 -51l22 51l104 190h155l-201 -342l207 -358h-160l-107 200l-27 54l-26 -54l-112 -200h-155z" />
    <glyph glyph-name="afii10040" unicode="&#x426;" 
d="M596 -135h-120v135h-430v700h137v-578h192v578h137v-578h84v-257z" />
    <glyph glyph-name="afii10041" unicode="&#x427;" 
d="M187 700v-222q0 -60 23.5 -89.5t77.5 -29.5q38 0 71.5 8.5t53.5 25.5v307h137v-700h-137v282q-26 -15 -69.5 -27.5t-103.5 -12.5q-42 0 -76.5 10.5t-60 34t-39.5 60t-14 88.5v265h137z" />
    <glyph glyph-name="afii10042" unicode="&#x428;" 
d="M44 0v700h120v-578h76v578h120v-578h76v578h120v-700h-512z" />
    <glyph glyph-name="afii10043" unicode="&#x429;" 
d="M30 0v700h120v-578h66v578h120v-578h66v578h120v-578h76v-257h-120v135h-448z" />
    <glyph glyph-name="afii10044" unicode="&#x42a;" 
d="M137 578h-129v122h266v-251q32 8 81 8q48 0 87.5 -12t68.5 -38q30 -26 48 -68t18 -104q0 -54 -16 -101.5t-53 -82.5q-31 -29 -79 -45t-109 -16q-14 0 -34.5 1t-45 3t-51.5 5t-52 8v571zM334 112q28 0 47.5 10t30.5 26t16 36.5t5 42.5q0 49 -22.5 78.5t-76.5 29.5
q-18 0 -34 -2.5t-26 -5.5v-209q7 -2 23.5 -4t36.5 -2z" />
    <glyph glyph-name="afii10045" unicode="&#x42b;" 
d="M450 700h133v-700h-133v700zM17 700h135v-251q7 2 23 5t39 3q42 0 79.5 -13.5t66.5 -45.5q22 -25 35.5 -64.5t13.5 -96.5q0 -51 -13.5 -99.5t-47.5 -84.5q-28 -29 -73 -46t-102 -17q-31 0 -71 4t-85 13v693zM193 112q35 0 58.5 27.5t23.5 89.5q0 32 -7.5 52.5t-19 32.5
t-26 16.5t-27.5 4.5q-14 0 -24.5 -2t-18.5 -4v-212q12 -3 19.5 -4t21.5 -1z" />
    <glyph glyph-name="afii10046" unicode="&#x42c;" 
d="M67 700h137v-251q5 1 16.5 2.5t25 2.5t27.5 2t26 1q49 0 95 -10t81.5 -35.5t56.5 -69t21 -110.5q0 -120 -74.5 -181t-213.5 -61q-14 0 -37.5 0.5t-51.5 2.5t-56.5 5t-52.5 9v693zM272 112q28 0 53 5.5t44 19t29.5 35.5t10.5 54q0 34 -11.5 55.5t-30 33.5t-43.5 16t-52 4
q-7 0 -17 -1l-20 -2t-18.5 -2.5t-12.5 -2.5v-209q11 -3 29.5 -4.5t38.5 -1.5z" />
    <glyph glyph-name="afii10047" unicode="&#x42d;" 
d="M46 235h110v-123q35 -8 74 -8q40 0 74 12.5t60 38.5q24 24 39 60.5t19 84.5h-210v110h209q-5 42 -20 77.5t-39 58.5q-28 26 -57.5 38t-74.5 12q-21 0 -35.5 -4t-28.5 -8v-111h-110v199q32 18 83.5 30t103.5 12q60 0 112.5 -17.5t94.5 -55.5q48 -43 78 -114t30 -177
q0 -100 -29 -170.5t-80 -115.5q-46 -42 -105 -60t-122 -18q-57 0 -103 11t-73 22v216z" />
    <glyph glyph-name="afii10048" unicode="&#x42e;" 
d="M144 415h47q0 54 8 107.5t29.5 96t59.5 69t97 26.5q68 0 107 -31.5t59 -82.5t25.5 -116.5t5.5 -133.5q0 -36 -2 -77.5t-9 -82t-20.5 -77.5t-35.5 -65t-54.5 -45t-78.5 -17q-59 0 -96 26.5t-58 70t-28.5 98.5t-8.5 112h-47v-293h-127v700h127v-285zM321 350
q0 -64 3 -115.5t13 -82.5q14 -44 47 -44q35 0 47 41q8 29 11.5 78t3.5 123q0 63 -2 114.5t-13 83.5q-14 44 -48 44q-36 0 -49 -47q-8 -29 -10.5 -77.5t-2.5 -117.5z" />
    <glyph glyph-name="afii10049" unicode="&#x42f;" 
d="M557 0h-137v261h-68l-150 -261h-159l176 285q-23 9 -45.5 24.5t-40.5 39.5t-29 57.5t-11 78.5q0 67 31 112.5t75 72.5q39 24 83.5 32t103.5 8q17 0 39 -1t45.5 -3t46 -5t40.5 -8v-693zM420 583q-10 2 -22.5 3.5t-29.5 1.5q-23 0 -47 -5.5t-41 -19.5q-16 -12 -29.5 -34.5
t-13.5 -49.5q0 -26 10 -46.5t27 -35.5q18 -16 47 -23.5t58 -7.5h41v217z" />
    <glyph glyph-name="afii10065" unicode="&#x430;" 
d="M90 466q40 18 92.5 31t124.5 13q52 0 88.5 -12.5t59 -35.5t32.5 -55t10 -72q0 -51 -3.5 -87t-3.5 -64q0 -21 2 -47q2 -14 3 -27h65v-110h-166l-13 68h-5q-20 -31 -57 -53.5t-100 -22.5q-75 0 -119 40t-44 106q0 42 15.5 72.5t45 50t71 29t92.5 9.5q18 0 38 -2t49 -4
q2 10 2 20v19q0 38 -22 54.5t-65 16.5q-51 0 -92 -13t-69 -26zM261 99q48 0 72 17.5t35 37.5v60q-10 2 -30 4.5t-43 2.5q-19 0 -38 -3.5t-34 -11t-24 -19.5t-9 -29q0 -28 16.5 -43.5t54.5 -15.5z" />
    <glyph glyph-name="afii10066" unicode="&#x431;" 
d="M143 406q37 44 87.5 63.5t106.5 19.5q45 0 86.5 -14t73 -43t50 -73.5t18.5 -105.5q0 -64 -20.5 -114t-56 -84t-83.5 -51.5t-103 -17.5q-60 0 -109.5 19t-85 58t-54.5 99t-19 141q0 86 12 147t34 103t51.5 67t64 39.5t73 20.5t78.5 10q52 5 89 12.5t55 24.5l5 -115
q-20 -17 -57 -24t-100 -12q-38 -3 -71.5 -10t-60 -25t-44 -50t-23.5 -85h3zM168 244q0 -32 11 -59t29 -47t42 -31t50 -11q27 0 50.5 9.5t41.5 28.5t28.5 46.5t10.5 63.5q0 32 -10 57t-27.5 42.5t-40 26.5t-47.5 9q-27 0 -52 -9.5t-44 -27t-30.5 -42.5t-11.5 -56z" />
    <glyph glyph-name="afii10067" unicode="&#x432;" 
d="M76 499q17 1 43.5 3t58 3t67 2t70.5 1q113 0 164 -31.5t51 -94.5q0 -35 -21 -67.5t-72 -48.5v-4q62 -7 87 -40t25 -81q0 -74 -63.5 -111.5t-208.5 -37.5q-21 0 -48.5 0.5t-55.5 2t-54 3t-43 3.5v498zM203 100q7 -1 18 -2t23 -1.5t24 -0.5h21q68 0 99 15t31 46
q0 26 -26.5 42.5t-92.5 16.5h-97v-116zM302 296q50 0 76.5 15.5t26.5 39.5q0 26 -25 39.5t-86 13.5q-23 0 -51.5 -1t-39.5 -2v-105h99z" />
    <glyph glyph-name="afii10068" unicode="&#x433;" 
d="M58 110h68v280h-68v110h481v-200h-110v90h-169v-280h169v-110h-371v110z" />
    <glyph glyph-name="afii10069" unicode="&#x434;" 
d="M570 -120h-110v120h-342v-120h-110v235h59q8 11 20.5 37.5t25 72.5t21.5 114t9 161h348v-385h79v-235zM361 109v281h-105q-2 -36 -7 -76.5t-12.5 -78.5t-17.5 -71t-22 -55h164z" />
    <glyph glyph-name="afii10070" unicode="&#x435;" 
d="M534 53q-13 -12 -33.5 -23.5t-48 -21.5t-60.5 -16t-70 -6q-64 0 -114.5 18t-85.5 52.5t-53.5 83t-18.5 110.5q0 66 21 115.5t57.5 82.5t85.5 49.5t106 16.5q38 0 78.5 -10t74.5 -34.5t55.5 -65.5t21.5 -104q0 -43 -10 -93h-360q1 -32 13.5 -54t33 -36t47 -20.5t56.5 -6.5
q60 0 98.5 14t62.5 34zM318 410q-26 0 -49 -7t-41.5 -20.5t-30.5 -33.5t-14 -45h246q0 49 -27.5 77.5t-83.5 28.5z" />
    <glyph glyph-name="afii10072" unicode="&#x436;" 
d="M213 207l-82 -207h-126l110 252l-106 248h128l76 -203h33v203h114v-203h28l74 203h128l-99 -236l104 -264h-130l-72 207h-33v-207h-114v207h-33z" />
    <glyph glyph-name="afii10073" unicode="&#x437;" 
d="M80 457q15 9 38 18t52.5 16.5t63.5 12.5t71 5q117 0 169 -32t52 -93q0 -17 -5 -36t-17 -36t-30.5 -30t-45.5 -18v-4q58 -5 87.5 -37t29.5 -83q0 -32 -14 -59.5t-43.5 -47.5t-74.5 -32t-108 -12q-42 0 -80 6t-70 16.5t-57.5 23.5t-41.5 27l50 96q15 -12 36 -22.5
t45.5 -18.5t51 -13t52.5 -5q53 0 88.5 15t35.5 43q0 26 -33.5 36t-97.5 10h-29v91h41q51 0 75.5 16t24.5 39q0 27 -28.5 38.5t-79.5 11.5q-28 0 -57 -5q-22 -3 -42 -8v-86h-109v157z" />
    <glyph glyph-name="afii10074" unicode="&#x438;" 
d="M405 228l5 71h-3l-241 -299h-102v500h130v-238l-6 -68h4l241 306h102v-500h-130v228z" />
    <glyph glyph-name="afii10075" unicode="&#x439;" 
d="M405 228l5 71h-3l-241 -299h-102v500h130v-238l-6 -68h4l241 306h102v-500h-130v228zM246 704q7 -39 23.5 -55t42.5 -16q28 0 44.5 16t22.5 54l99 -25q-12 -65 -59 -96.5t-110 -31.5q-31 0 -60 7t-52 22.5t-39 39.5t-22 59z" />
    <glyph glyph-name="afii10076" unicode="&#x43a;" 
d="M271 197h-65v-197h-130v500h130v-203h53l165 203h147l-199 -233l123 -157h88v-110h-150z" />
    <glyph glyph-name="afii10077" unicode="&#x43b;" 
d="M389 385h-129q-6 -71 -15.5 -141t-29 -125.5t-51 -90t-79.5 -34.5q-58 0 -82 15l16 108q16 -6 30 -6q20 0 36.5 17t29 61t20.5 119.5t11 191.5h373v-500h-130v385z" />
    <glyph glyph-name="afii10078" unicode="&#x43c;" 
d="M441 229l3 104h-5l-129 -191h-27l-136 191h-6l8 -103v-230h-116v500h135l133 -191h4l125 191h136v-500h-125v229z" />
    <glyph glyph-name="afii10079" unicode="&#x43d;" 
d="M407 197h-213v-197h-130v500h130v-188h213v188h130v-500h-130v197z" />
    <glyph glyph-name="afii10080" unicode="&#x43e;" 
d="M35 250q0 63 19 112t54 83t83.5 51.5t108.5 17.5q63 0 112.5 -19t83.5 -53.5t51.5 -83.5t17.5 -108q0 -63 -19 -112t-54 -83t-83.5 -51.5t-108.5 -17.5q-63 0 -112.5 19t-83.5 53.5t-51.5 83.5t-17.5 108zM169 250q0 -33 9 -61t26 -49t41 -32.5t55 -11.5q58 0 94.5 37
t36.5 117q0 69 -34 111.5t-97 42.5q-28 0 -52 -8.5t-41.5 -27.5t-27.5 -48t-10 -70z" />
    <glyph glyph-name="afii10081" unicode="&#x43f;" 
d="M409 385h-218v-385h-130v500h478v-500h-130v385z" />
    <glyph glyph-name="afii10082" unicode="&#x440;" 
d="M0 500h170l15 -60h4q52 74 168 74q46 0 84.5 -14.5t66 -45.5t42.5 -78t15 -113q0 -64 -17 -115.5t-49 -87.5t-78 -55t-105 -19q-31 0 -61 4.5t-50 14.5v-205h-130v590h-75v110zM318 404q-38 0 -69.5 -19t-43.5 -57v-208q14 -11 40.5 -17.5t53.5 -6.5q28 0 52 9.5t42 30.5
t28 53t10 77q0 66 -32 102t-81 36z" />
    <glyph glyph-name="afii10083" unicode="&#x441;" 
d="M546 48q-41 -31 -96 -46.5t-115 -15.5q-65 0 -115.5 19t-85 53.5t-52.5 83.5t-18 108q0 63 21 112t58.5 83t88.5 51.5t111 17.5q56 0 105 -13t75 -25v-176h-110v92q-31 7 -62 7q-28 0 -55.5 -8.5t-49 -27t-35 -46.5t-13.5 -67q0 -32 11 -59t31 -47t49.5 -31.5t65.5 -11.5
q57 0 93.5 16t54.5 28z" />
    <glyph glyph-name="afii10084" unicode="&#x442;" 
d="M103 110h130v275h-79v-85h-111v200h514v-200h-110v85h-80v-275h130v-110h-394v110z" />
    <glyph glyph-name="afii10085" unicode="&#x443;" 
d="M301 141h38l97 359h134l-142 -451q-19 -56 -37 -102.5t-42 -80.5t-56.5 -52.5t-79.5 -18.5q-23 0 -43.5 6t-37.5 14.5t-30 18t-21 17.5l67 89q13 -11 31 -20.5t34 -9.5q30 0 47.5 21t33.5 69h-71l-208 500h141z" />
    <glyph glyph-name="afii10086" unicode="&#x444;" 
d="M160 700h204v-195q18 3 27 4t22 1q91 0 130 -58.5t39 -191.5q0 -63 -9 -113.5t-29 -86.5t-53 -55t-82 -19q-9 0 -21.5 1.5t-23.5 5.5v-193h-128v194q-17 -6 -30.5 -7t-28.5 -1q-84 0 -121.5 65t-37.5 199q0 128 43 194t137 66q13 0 20 -1t18 -3v84h-76v110zM384 407
q-10 0 -16 -2t-10 -3v-310q9 -3 31 -3q20 0 32.5 9.5t19 30t9 53t2.5 78.5q0 78 -15 112.5t-53 34.5zM211 89q21 0 31 5v309q-6 2 -13.5 3t-15.5 1q-38 0 -51.5 -35.5t-13.5 -121.5q0 -78 15.5 -119.5t47.5 -41.5z" />
    <glyph glyph-name="afii10087" unicode="&#x445;" 
d="M211 258l-174 242h155l113 -167l118 167h141l-171 -240l181 -260h-151l-127 184l-129 -184h-142z" />
    <glyph glyph-name="afii10088" unicode="&#x446;" 
d="M597 -120h-110v120h-424v500h130v-385h195v385h130v-385h79v-235z" />
    <glyph glyph-name="afii10089" unicode="&#x447;" 
d="M190 500v-114q0 -62 20 -90t79 -28q11 0 26.5 2t31 5t28.5 7.5t20 9.5v208h130v-500h-130v196q-8 -5 -24 -11.5t-37.5 -12.5t-46.5 -10t-51 -4q-37 0 -69 8t-56 28t-37.5 53t-13.5 83v170h130z" />
    <glyph glyph-name="afii10090" unicode="&#x448;" 
d="M30 0v500h120v-385h90v385h120v-385h90v385h120v-500h-540z" />
    <glyph glyph-name="afii10091" unicode="&#x449;" 
d="M600 -120h-110v120h-472v500h120v-385h75v385h120v-385h75v385h120v-385h72v-235z" />
    <glyph glyph-name="afii10092" unicode="&#x44a;" 
d="M265 109q28 -6 57 -6q48 0 70 16.5t22 51.5q0 65 -89 65q-35 0 -60 -7v-120zM265 322q24 4 49 5.5t45 1.5q52 0 88 -11.5t58.5 -32.5t32.5 -49.5t10 -61.5q0 -91 -54.5 -136t-182.5 -45q-57 0 -99 2t-77 5v385h-110v115h240v-178z" />
    <glyph glyph-name="afii10093" unicode="&#x44b;" 
d="M156 109q15 -3 25.5 -4.5t21.5 -1.5q71 0 71 68q0 65 -68 65q-23 0 -50 -7v-120zM156 322q24 4 43.5 5.5t39.5 1.5q47 0 79 -11.5t52 -32.5t29 -49.5t9 -61.5q0 -91 -49.5 -136t-167.5 -45q-57 0 -94 2t-71 5v500h130v-178zM444 500h130v-500h-130v500z" />
    <glyph glyph-name="afii10094" unicode="&#x44c;" 
d="M223 109q15 -3 39 -4.5t38 -1.5q111 0 111 68q0 32 -27.5 48.5t-80.5 16.5q-8 0 -19 -0.5l-22 -1t-21.5 -2t-17.5 -3.5v-120zM223 322q12 2 27.5 3.5t31 2t30 1t24.5 0.5q55 0 95 -11.5t65 -32.5t37 -49.5t12 -61.5q0 -91 -60 -136t-197 -45q-57 0 -108.5 2t-86.5 5v500
h130v-178z" />
    <glyph glyph-name="afii10095" unicode="&#x44d;" 
d="M224 302h196q-5 50 -47.5 76t-108.5 26q-54 0 -97 -16l-6 -2v-86h-110v148q16 11 38 23t51 21.5t65.5 15.5t83.5 6q55 0 103 -17t83.5 -50t55.5 -82.5t20 -114.5q0 -66 -20.5 -115.5t-57 -82.5t-86.5 -49.5t-108 -16.5q-86 0 -145 21t-92 47l55 93q26 -20 65.5 -35.5
t95.5 -15.5q32 0 60.5 6t50.5 18.5t36 32.5t16 49h-197v100z" />
    <glyph glyph-name="afii10096" unicode="&#x44e;" 
d="M389 -14q-49 0 -81 15t-52 43t-30 68t-14 90h-46v-202h-120v500h120v-188h47q5 48 16.5 86t32.5 63.5t52.5 39t76.5 13.5q53 0 87.5 -19t54.5 -53.5t28 -83.5t8 -108q0 -63 -9 -112t-30 -83t-55.5 -51.5t-85.5 -17.5zM326 250q0 -73 13 -113.5t50 -40.5q31 0 43.5 34
t12.5 120q0 78 -11.5 116t-47.5 38q-31 0 -45.5 -35t-14.5 -119z" />
    <glyph glyph-name="afii10097" unicode="&#x44f;" 
d="M45 110h75l49 73q-52 18 -76 57t-24 97q0 90 70.5 133.5t195.5 43.5q24 0 51 -1.5t53.5 -3.5t49.5 -5t38 -6v-498h-130v167h-100l-106 -167h-146v110zM397 264v134q-5 1 -16 2.5t-23 2t-23 1t-17 0.5q-23 0 -43.5 -4.5t-36.5 -14t-25.5 -24t-9.5 -33.5t8.5 -31t24 -19.5
t37.5 -10.5t48 -3h76z" />
    <glyph glyph-name="afii10071" unicode="&#x451;" 
d="M534 53q-13 -12 -33.5 -23.5t-48 -21.5t-60.5 -16t-70 -6q-64 0 -114.5 18t-85.5 52.5t-53.5 83t-18.5 110.5q0 66 21 115.5t57.5 82.5t85.5 49.5t106 16.5q38 0 78.5 -10t74.5 -34.5t55.5 -65.5t21.5 -104q0 -43 -10 -93h-360q1 -32 13.5 -54t33 -36t47 -20.5t56.5 -6.5
q60 0 98.5 14t62.5 34zM318 410q-26 0 -49 -7t-41.5 -20.5t-30.5 -33.5t-14 -45h246q0 49 -27.5 77.5t-83.5 28.5zM108 627q0 34 20.5 54.5t55.5 20.5q34 0 54 -20.5t20 -54.5q0 -32 -20 -52.5t-54 -20.5q-35 0 -55.5 20.5t-20.5 52.5zM366 627q0 34 20 54.5t54 20.5
t55 -20.5t21 -54.5q0 -32 -21 -52.5t-55 -20.5t-54 20.5t-20 52.5z" />
    <glyph glyph-name="afii10099" unicode="&#x452;" 
d="M45 500h74v200h130v-200h161v-80h-161v-130h4q23 32 59 51t90 19q38 0 67 -10t48 -33t28.5 -62.5t9.5 -97.5v-178q0 -91 -36 -139t-115 -48q-30 0 -64 7v109q4 0 7.5 -0.5t7.5 -0.5q43 0 56.5 24.5t13.5 68.5v130q0 61 -16.5 88t-61.5 27q-33 0 -61.5 -22t-36.5 -57v-166
h-130v420h-74v80z" />
    <glyph glyph-name="afii10100" unicode="&#x453;" 
d="M58 110h68v280h-68v110h481v-200h-110v90h-169v-280h169v-110h-371v110zM298 720h158l-137 -154h-80z" />
    <glyph glyph-name="afii10101" unicode="&#x454;" 
d="M555 48q-41 -31 -96 -46.5t-115 -15.5q-68 0 -120.5 19t-88 53.5t-54 83.5t-18.5 108q0 63 21 112t58.5 83t88.5 51.5t111 17.5q28 0 56.5 -3.5t54 -9.5t46 -13t33.5 -12v-176h-110v89q-15 4 -30 6q-22 4 -42 4q-28 0 -55.5 -8.5t-49 -27t-35.5 -46.5q-4 -10 -7 -20h168
v-98h-166q2 -4 3 -8q12 -27 33.5 -47t52.5 -31.5t70 -11.5q57 0 93.5 16t54.5 28z" />
    <glyph glyph-name="afii10102" unicode="&#x455;" 
d="M402 138q0 20 -24.5 32t-60.5 22t-79 20.5t-79 29t-60.5 47t-24.5 73.5q0 37 16.5 65t45 47.5t68 29.5t85.5 10q49 0 86 -7t64.5 -17t47 -22.5t33.5 -22.5l-55 -89q-15 9 -34.5 18.5t-41 17.5t-45 13t-46.5 5q-42 0 -68 -11t-26 -34q0 -18 24.5 -29t60.5 -20.5t79 -20.5
t79 -28.5t60.5 -45.5t24.5 -72q0 -76 -55.5 -119.5t-164.5 -43.5q-86 0 -148.5 25.5t-100.5 59.5l60 94q13 -11 34.5 -24.5t48.5 -24.5t57.5 -18.5t60.5 -7.5q32 0 55 11t23 37z" />
    <glyph glyph-name="afii10103" unicode="&#x456;" 
d="M59 110h176v280h-176v110h306v-390h185v-110h-491v110zM211 636q0 31 23 53t64 22q42 0 67 -22t25 -53q0 -32 -25 -52.5t-67 -20.5q-41 0 -64 20.5t-23 52.5z" />
    <glyph glyph-name="afii10104" unicode="&#x457;" 
d="M59 110h176v280h-176v110h306v-390h185v-110h-491v110zM96 646q0 34 20.5 54.5t55.5 20.5q34 0 54 -20.5t20 -54.5q0 -32 -20 -52.5t-54 -20.5q-35 0 -55.5 20.5t-20.5 52.5zM354 646q0 34 20 54.5t54 20.5t55 -20.5t21 -54.5q0 -32 -21 -52.5t-55 -20.5t-54 20.5
t-20 52.5z" />
    <glyph glyph-name="afii10105" unicode="&#x458;" 
d="M94 500h368v-461q0 -115 -60 -181t-180 -66q-49 0 -93 15t-76 44l58 96q11 -9 39.5 -22.5t64.5 -13.5q24 0 45.5 7.5t37.5 25t25 45.5t9 70v331h-238v110zM257 636q0 31 23 53t64 22q42 0 67 -22t25 -53q0 -32 -25 -52.5t-67 -20.5q-41 0 -64 20.5t-23 52.5z" />
    <glyph glyph-name="afii10106" unicode="&#x459;" 
d="M385 322q12 3 26.5 5t28.5 2q39 0 68 -11.5t49 -32.5t30 -49.5t10 -61.5q0 -91 -53 -136t-149 -45q-23 0 -39.5 0.5t-31 1.5t-28.5 2t-31 3v385h-39q-3 -71 -7.5 -141t-19 -125.5t-42.5 -90t-76 -34.5q-58 0 -82 15l16 108q16 -6 30 -6q20 0 33.5 17t22 61t13.5 119.5
t8 191.5h263v-178zM415 236q-11 0 -17 -2.5t-13 -4.5v-121q5 -2 12.5 -3.5t14.5 -1.5q25 0 43 16.5t18 51.5q0 65 -58 65z" />
    <glyph glyph-name="afii10107" unicode="&#x45a;" 
d="M380 321q12 3 26.5 5.5t28.5 2.5q39 0 68 -11.5t49 -32.5t30 -49.5t10 -61.5q0 -91 -53 -136t-149 -45q-23 0 -39.5 0.5t-31 1.5t-28.5 2t-31 3v199h-113v-199h-120v500h120v-186h113v186h120v-179zM410 236q-11 0 -17 -2.5t-13 -4.5v-121q5 -2 12.5 -3.5t14.5 -1.5
q25 0 43 16.5t18 51.5q0 65 -58 65z" />
    <glyph glyph-name="afii10108" unicode="&#x45b;" 
d="M45 500h74v200h130v-200h161v-80h-161v-130h4q23 32 59 51t90 19q38 0 67 -10t48 -33t28.5 -62.5t9.5 -97.5v-157h-130v130q0 61 -16.5 88t-61.5 27q-33 0 -61.5 -22t-36.5 -57v-166h-130v420h-74v80z" />
    <glyph glyph-name="afii10109" unicode="&#x45c;" 
d="M271 197h-65v-197h-130v500h130v-203h53l165 203h147l-199 -233l123 -157h88v-110h-150zM293 720h158l-137 -154h-80z" />
    <glyph glyph-name="afii10110" unicode="&#x45e;" 
d="M301 141h38l97 359h134l-142 -451q-19 -56 -37 -102.5t-42 -80.5t-56.5 -52.5t-79.5 -18.5q-23 0 -43.5 6t-37.5 14.5t-30 18t-21 17.5l67 89q13 -11 31 -20.5t34 -9.5q30 0 47.5 21t33.5 69h-71l-208 500h141zM239 704q7 -39 23.5 -55t42.5 -16q28 0 44.5 16t22.5 54
l99 -25q-12 -65 -59 -96.5t-110 -31.5q-31 0 -60 7t-52 22.5t-39 39.5t-22 59z" />
    <glyph glyph-name="afii10193" unicode="&#x45f;" 
d="M61 0v500h130v-385h218v385h130v-500h-184v-160h-110v160h-184z" />
    <glyph glyph-name="uni0460" unicode="&#x460;" 
d="M298 102q-13 -61 -44.5 -88.5t-74.5 -27.5q-48 0 -80.5 31.5t-52 81.5t-27.5 112t-8 123q0 101 15.5 173t45 118t71 67.5t93.5 21.5v-147q-15 0 -31 -5.5t-29.5 -28.5t-22 -68.5t-8.5 -124.5q0 -118 13.5 -177t33.5 -59q27 0 35.5 33.5t8.5 92.5v149h128v-149
q0 -62 7 -94t33 -32q22 0 36 59.5t14 177.5q0 79 -8.5 124.5t-22 68t-29.5 28t-30 5.5v147q51 0 92 -21.5t70.5 -68t45.5 -118.5t16 -172q0 -61 -7 -123t-25.5 -112t-51 -81.5t-82.5 -31.5q-39 0 -70.5 27.5t-48.5 88.5h-5z" />
    <glyph glyph-name="uni0461" unicode="&#x461;" 
d="M299 71q-13 -45 -42.5 -65t-70.5 -20q-46 0 -78 19.5t-51.5 53.5t-28.5 80.5t-9 100.5q0 78 16 131t45 85.5t69.5 46.5t90.5 14v-110q-14 0 -29.5 -3.5t-28.5 -19.5t-21 -49t-8 -91q0 -43 3.5 -71.5t9.5 -45.5t14 -24t18 -7q26 0 34 24.5t8 67.5v109h120v-109
q0 -45 7.5 -68.5t31.5 -23.5q10 0 19 7t15.5 24.5t10 46t3.5 71.5q0 58 -8.5 90.5t-21 48.5t-28 19.5t-28.5 3.5v110q48 0 88.5 -14.5t69.5 -47t45.5 -85.5t16.5 -130q0 -54 -9 -100.5t-28.5 -80.5t-51 -53.5t-76.5 -19.5q-37 0 -67 20t-46 65h-4z" />
    <glyph glyph-name="afii10146" unicode="&#x462;" 
d="M0 648h132v77h137v-77h190v-115h-190v-90q5 1 15.5 2.5t23 2.5t25.5 2t25 1q42 0 84 -11t76 -36.5t55 -67.5t21 -104q0 -52 -17 -96.5t-51 -76.5t-85.5 -50.5t-120.5 -18.5q-14 0 -36 0.5t-48 2.5t-53 5t-51 9v526h-132v115zM327 112q57 0 90 29.5t33 83.5q0 33 -10.5 54
t-27.5 34t-39 18t-44 5q-14 0 -33 -3t-27 -5v-210q8 -2 23 -4t35 -2z" />
    <glyph glyph-name="afii10194" unicode="&#x463;" 
d="M38 500h110v200h130v-200h160v-93h-160v-85q24 4 49 5.5t45 1.5q52 0 88 -11.5t58.5 -32.5t32.5 -49.5t10 -61.5q0 -91 -54.5 -136t-182.5 -45q-57 0 -99 2t-77 5v407h-110v93zM278 109q28 -6 57 -6q48 0 70 16.5t22 51.5q0 65 -89 65q-35 0 -60 -7v-120z" />
    <glyph glyph-name="afii10147" unicode="&#x472;" 
d="M36 350q0 85 16 153t49 114.5t82.5 71.5t116.5 25q72 0 122 -27t81.5 -75t46 -115t14.5 -147q0 -171 -65.5 -267.5t-198.5 -96.5q-72 0 -122.5 27t-82 75t-45.5 115t-14 147zM300 108q62 0 87.5 46t30.5 143h-237q2 -41 8 -75.5t19.5 -60t36 -39.5t55.5 -14zM300 592
q-62 0 -88 -46.5t-31 -138.5h238q-2 39 -8 73t-19 58.5t-35.5 39t-56.5 14.5z" />
    <glyph glyph-name="afii10195" unicode="&#x473;" 
d="M35 250q0 63 19 112t54 83t83.5 51.5t108.5 17.5q63 0 112.5 -19t83.5 -53.5t51.5 -83.5t17.5 -108q0 -63 -19 -112t-54 -83t-83.5 -51.5t-108.5 -17.5q-63 0 -112.5 19t-83.5 53.5t-51.5 83.5t-17.5 108zM300 404q-50 0 -85 -27t-44 -88h257q-9 53 -41.5 84t-86.5 31z
M300 96q49 0 83 26.5t44 84.5h-254q11 -50 43.5 -80.5t83.5 -30.5z" />
    <glyph glyph-name="afii10148" unicode="&#x474;" 
d="M608 570q-13 7 -24.5 11t-27.5 4q-20 0 -33.5 -9.5t-23 -24t-16 -32.5t-10.5 -35l-130 -484h-159l-222 700h157l148 -510h4l77 318q12 49 28.5 85t36.5 59q27 32 59.5 44.5t67.5 12.5t56 -6t42 -17z" />
    <glyph glyph-name="afii10196" unicode="&#x475;" 
d="M363 0h-139l-207 500h151l128 -336h6l38 147q14 55 29.5 93t34.5 61t43.5 33.5t57.5 10.5q24 0 46 -4.5t36 -12.5l-18 -107q-18 9 -34 9q-17 0 -32.5 -13.5t-31.5 -51.5z" />
    <glyph glyph-name="uni048A" unicode="&#x48a;" 
d="M514 115h93v-31l-96 -214h-94l45 130h-85v360l8 91h-5l-41 -94l-188 -357h-127v700h137v-353l-10 -94h6l43 95l188 352h126v-585zM210 874q4 -32 23.5 -46t50.5 -14q67 0 74 59l111 -17q-11 -63 -57.5 -92t-128.5 -29q-41 0 -75 6t-59.5 19.5t-42 36.5t-20.5 57z" />
    <glyph glyph-name="uni048B" unicode="&#x48b;" 
d="M365 228l5 71h-3l-241 -299h-102v500h130v-238l-6 -68h4l241 306h102v-385h105v-31l-96 -214h-94l45 130h-90v228zM206 704q7 -39 23.5 -55t42.5 -16q28 0 44.5 16t22.5 54l99 -25q-12 -65 -59 -96.5t-110 -31.5q-31 0 -60 7t-52 22.5t-39 39.5t-22 59z" />
    <glyph glyph-name="uni048C" unicode="&#x48c;" 
d="M0 648h132v77h137v-77h190v-115h-190v-90q5 1 15.5 2.5t23 2.5t25.5 2t25 1q42 0 84 -11t76 -36.5t55 -67.5t21 -104q0 -52 -17 -96.5t-51 -76.5t-85.5 -50.5t-120.5 -18.5q-14 0 -36 0.5t-48 2.5t-53 5t-51 9v526h-132v115zM327 112q57 0 90 29.5t33 83.5q0 33 -10.5 54
t-27.5 34t-39 18t-44 5q-14 0 -33 -3t-27 -5v-210q8 -2 23 -4t35 -2z" />
    <glyph glyph-name="uni048D" unicode="&#x48d;" 
d="M38 500h110v200h130v-200h160v-93h-160v-85q24 4 49 5.5t45 1.5q52 0 88 -11.5t58.5 -32.5t32.5 -49.5t10 -61.5q0 -91 -54.5 -136t-182.5 -45q-57 0 -99 2t-77 5v407h-110v93zM278 109q28 -6 57 -6q48 0 70 16.5t22 51.5q0 65 -89 65q-35 0 -60 -7v-120z" />
    <glyph glyph-name="uni048E" unicode="&#x48e;" 
d="M56 693q42 8 92.5 12.5t100.5 4.5q52 0 104.5 -8.5t94.5 -34t68.5 -71t26.5 -118.5q0 -69 -25 -116t-67 -76l64 -91l-79 -58l-77 109q-42 -9 -87 -9h-16t-23 0.5t-23.5 1.5t-16.5 2v-241h-137v693zM299 478l63 -92q17 14 27 36.5t10 57.5q0 33 -12 54.5t-31.5 34.5
t-44.5 18t-51 5q-20 0 -38 -1.5t-29 -3.5v-227q4 -1 12 -2t17 -1.5t17.5 -0.5h12.5q14 0 27 1t26 4l-58 83z" />
    <glyph glyph-name="uni048F" unicode="&#x48f;" 
d="M0 500h170l15 -60h4q52 74 168 74q46 0 84.5 -14.5t66 -45.5t42.5 -78t15 -113q0 -64 -17 -115.5t-49 -87.5q-4 -5 -8 -9l45 -53l-71 -57l-48 62q-45 -17 -101 -17q-31 0 -61 4.5t-50 14.5v-205h-130v590h-75v110zM349 218l56 -66q9 16 16 37q10 32 10 77q0 66 -32 102
t-81 36q-38 0 -69.5 -19t-43.5 -57v-208q14 -11 40.5 -17.5t53.5 -6.5q23 0 43 6l-53 70z" />
    <glyph glyph-name="afii10050" unicode="&#x490;" 
d="M54 122h92v456h-92v122h404v152h110v-274h-285v-456h149v-122h-378v122z" />
    <glyph glyph-name="afii10098" unicode="&#x491;" 
d="M58 110h68v280h-68v110h371v152h110v-352h-110v90h-169v-280h169v-110h-371v110z" />
    <glyph glyph-name="uni0492" unicode="&#x492;" 
d="M551 578h-270v-191h224v-93h-224v-294h-137v294h-96v93h96v313h407v-122z" />
    <glyph glyph-name="uni0493" unicode="&#x493;" 
d="M517 385h-253v-111h222v-80h-222v-194h-134v194h-83v80h83v226h387v-115z" />
    <glyph glyph-name="uni0494" unicode="&#x494;" 
d="M194 0h-137v700h407v-122h-270v-203q16 6 49.5 14t81.5 8q42 0 81 -11.5t69.5 -40t49 -78t18.5 -125.5q0 -129 -57 -199t-184 -70q-27 0 -40.5 1t-21.5 3v118q7 -2 23.5 -2.5t32.5 -0.5q51 0 77 35t26 109q0 41 -9 68t-25 42.5t-38 22t-47 6.5q-24 0 -49 -6t-37 -12v-257
z" />
    <glyph glyph-name="uni0495" unicode="&#x495;" 
d="M213 0h-130v500h398v-115h-268v-126q14 6 46.5 13.5t80.5 7.5q44 0 83 -13.5t67.5 -42.5t45 -74t16.5 -108q0 -60 -11.5 -107t-38.5 -80t-70.5 -50.5t-106.5 -17.5q-20 0 -39 2t-24 3v112q8 -1 24.5 -1.5t32.5 -0.5q99 0 99 132q0 63 -28.5 97t-88.5 34q-31 0 -55 -7
t-33 -11v-147z" />
    <glyph glyph-name="uni0496" unicode="&#x496;" 
d="M235 700h130v-297h34l50 297h136l-70 -349l53 -229h72v-257h-110v135h-71l-60 299h-34v-299h-130v299h-34l-60 -299h-138l82 351l-70 349h136l50 -297h34v297z" />
    <glyph glyph-name="uni0497" unicode="&#x497;" 
d="M208 207l-82 -207h-126l110 252l-106 248h128l76 -203h33v203h114v-203h28l74 203h128l-99 -236l58 -149h70v-235h-110v120h-44l-72 207h-33v-207h-114v207h-33z" />
    <glyph glyph-name="uni0498" unicode="&#x498;" 
d="M51 235h110v-112q3 -1 5 -2q22 -7 46.5 -12t53.5 -5q24 0 46.5 6t40.5 19t28.5 33t10.5 48q0 31 -12.5 50.5t-33.5 30t-47.5 14.5t-53.5 5h-30v107h29q21 0 43.5 4t40.5 14t30 27.5t12 44.5q0 23 -9 39.5t-25 27t-37 15.5t-46 5q-47 0 -82 -10v-103h-110v190
q37 16 95.5 28.5t123.5 12.5q44 0 86 -8.5t75 -29t53 -55t20 -86.5t-27.5 -94t-88.5 -62v-5q66 -17 102 -57t36 -112q0 -57 -23 -98t-60.5 -67.5t-86.5 -38.5q-19 -5 -38 -8v-166h-120v164q-34 2 -64 9q-55 11 -93 29v208z" />
    <glyph glyph-name="uni0499" unicode="&#x499;" 
d="M80 457q15 9 38 18t52.5 16.5t63.5 12.5t71 5q117 0 169 -32t52 -93q0 -17 -5 -36t-17 -36t-30.5 -30t-45.5 -18v-4q58 -5 87.5 -37t29.5 -83q0 -32 -14 -59.5t-43.5 -47.5t-74.5 -32q-24 -6 -53 -9v-167h-110v167q-13 1 -25 3q-38 6 -70 16.5t-57.5 23.5t-41.5 27l50 96
q15 -12 36 -22.5t45.5 -18.5t51 -13t52.5 -5q53 0 88.5 15t35.5 43q0 26 -33.5 36t-97.5 10h-29v91h41q51 0 75.5 16t24.5 39q0 27 -28.5 38.5t-79.5 11.5q-28 0 -57 -5q-22 -3 -42 -8v-86h-109v157z" />
    <glyph glyph-name="uni049A" unicode="&#x49a;" 
d="M524 122h76v-257h-120v135h-50l-172 292h-71v-292h-137v700h137v-286h71l160 286h156l-197 -338z" />
    <glyph glyph-name="uni049B" unicode="&#x49b;" 
d="M271 197h-65v-197h-130v500h130v-203h53l165 203h147l-199 -233l123 -157h88v-230h-110v120h-40z" />
    <glyph glyph-name="uni049C" unicode="&#x49c;" 
d="M338 292h-34v-120h-93v120h-44v-292h-137v700h137v-286h44v113h93v-113h34l110 286h145l-135 -338l160 -362h-158z" />
    <glyph glyph-name="uni049D" unicode="&#x49d;" 
d="M327 197h-41v-108h-76v108h-48v-197h-130v500h130v-203h48v114h76v-114h29l115 203h147l-147 -237l92 -153h67v-110h-150z" />
    <glyph glyph-name="uni049E" unicode="&#x49e;" 
d="M320 292h-81v-292h-137v539h-102v104h102v57h137v-57h93v-104h-93v-125h81l136 286h150l-165 -338l190 -362h-161z" />
    <glyph glyph-name="uni049F" unicode="&#x49f;" 
d="M0 540h82v50h-82v110h212v-160h121v-80h-121v-159h30l164 199h153l-202 -228l131 -162h93v-110h-162l-172 207h-35v-207h-130v460h-82v80z" />
    <glyph glyph-name="uni04A0" unicode="&#x4a0;" 
d="M290 292h-35v-292h-137v578h-121v122h258v-286h35l146 286h156l-181 -340l201 -360h-169z" />
    <glyph glyph-name="uni04A1" unicode="&#x4a1;" 
d="M315 197h-45v-197h-130v385h-140v115h270v-203h33l145 203h147l-179 -233l111 -157h80v-110h-150z" />
    <glyph glyph-name="uni04A2" unicode="&#x4a2;" 
d="M520 122h76v-257h-120v135h-93v293h-196v-293h-137v700h137v-285h196v285h137v-578z" />
    <glyph glyph-name="uni04A3" unicode="&#x4a3;" 
d="M503 115h79v-235h-110v120h-99v197h-203v-197h-130v500h130v-188h203v188h130v-385z" />
    <glyph glyph-name="uni04A4" unicode="&#x4a4;" 
d="M600 578h-160v-578h-137v293h-166v-293h-137v700h137v-285h166v285h297v-122z" />
    <glyph glyph-name="uni04A5" unicode="&#x4a5;" 
d="M598 385h-168v-385h-130v197h-168v-197h-130v500h130v-188h168v188h298v-115z" />
    <glyph glyph-name="uni04A6" unicode="&#x4a6;" 
d="M366 0h-130v578h-106v-578h-130v700h366v-319q11 5 31 10.5t43 5.5q34 0 66.5 -12.5t57.5 -49.5q20 -29 30 -75.5t10 -115.5q0 -71 -9.5 -124t-37.5 -89q-22 -29 -53 -45t-77 -16q-11 0 -24.5 2t-21.5 5v106q13 -5 32 -5q15 0 28 10t20 30t10 51.5t3 69.5q0 78 -18 113
q-9 17 -21 23.5t-23 6.5q-14 0 -26 -4t-20 -8v-270z" />
    <glyph glyph-name="uni04A7" unicode="&#x4a7;" 
d="M353 0h-130v385h-78v-385h-130v500h338v-241q5 5 23 13t41 8q36 0 66.5 -10.5t53.5 -36.5t36 -69.5t13 -109.5q0 -68 -15 -118t-42.5 -83t-65.5 -49.5t-84 -16.5q-28 0 -41.5 1.5t-21.5 3.5v112q8 -1 24.5 -1.5t32.5 -0.5q33 0 56 33t23 99q0 71 -13 101t-46 30
q-15 0 -24 -4t-17 -10z" />
    <glyph glyph-name="uni04A8" unicode="&#x4a8;" 
d="M226 603q-51 0 -77.5 -60t-26.5 -188q0 -63 10 -111.5t26.5 -81t39 -49t46.5 -16.5q23 0 36 8q-14 14 -31.5 40.5t-31.5 62.5q-13 33 -20.5 73.5t-7.5 85.5q0 79 15.5 137.5t43 97.5t65.5 58.5t83 19.5q49 0 84.5 -21t58.5 -58.5t34.5 -89t11.5 -113.5q0 -57 -10 -105.5
t-25 -86.5t-33.5 -64.5t-34.5 -40.5q5 -1 11 -2.5t11 -1.5q16 0 34 7t31 20l35 -97q-42 -41 -111 -41q-30 0 -58.5 4t-62.5 29q-26 -17 -55 -25t-74 -8q-115 0 -179.5 94t-64.5 272q0 185 54 273.5t173 88.5v-111zM312 371q0 -37 6 -72.5t15 -59.5q11 -28 27.5 -53.5
t30.5 -38.5q16 17 29 41t24 59q18 57 18 145q0 38 -3 70.5t-10.5 56t-21 37t-34.5 13.5q-38 0 -59.5 -49t-21.5 -149z" />
    <glyph glyph-name="uni04A9" unicode="&#x4a9;" 
d="M220 404q-56 -4 -76 -39.5t-20 -110.5q0 -72 30.5 -115t79.5 -43q4 0 11 0.5t14.5 1.5t14 2.5t9.5 4.5q-27 20 -47 63t-20 100q0 39 7 80t26.5 74.5t55.5 55.5t93 22q55 0 89.5 -17t53.5 -45.5t25.5 -66t6.5 -79.5q0 -34 -7.5 -65t-19.5 -57t-28.5 -45.5t-34.5 -30.5
q13 -6 30 -6q35 0 55 20l24 -93q-10 -6 -19 -11t-20.5 -9t-26.5 -6.5t-37 -2.5q-41 0 -67 11.5t-47 30.5q-32 -23 -67.5 -32.5t-79.5 -9.5q-53 0 -93.5 19t-68 53.5t-42 83.5t-14.5 108q0 58 8.5 105t31.5 81.5t64 54.5t106 23v-110zM332 268q0 -45 12.5 -81t42.5 -60
q32 21 47 62.5t15 95.5q0 45 -11.5 75t-43.5 30q-22 0 -34.5 -10t-18.5 -26.5t-7.5 -38.5t-1.5 -47z" />
    <glyph glyph-name="uni04AA" unicode="&#x4aa;" 
d="M444 235h110v-200q-32 -23 -82 -36q-22 -6 -44 -9v-165h-120v166q-32 5 -63 14q-59 20 -104 63.5t-72 113t-27 168.5q0 103 30.5 172.5t78.5 112t107 61t116 18.5q60 0 101.5 -10t68.5 -23v-208h-110v114q-31 5 -64 5q-39 0 -72.5 -14.5t-58.5 -44.5t-39 -75.5
t-14 -107.5q0 -54 13 -98.5t38 -76.5t61 -49.5t82 -17.5q33 0 64 6v121z" />
    <glyph glyph-name="uni04AB" unicode="&#x4ab;" 
d="M546 48q-41 -31 -96 -47q-30 -8 -61 -11v-165h-110v165q-32 5 -60 15q-50 19 -84.5 53.5t-52.5 83.5t-18 108q0 63 21 112t58.5 83t88.5 51.5t111 17.5q56 0 105 -13t75 -25v-176h-110v92q-31 7 -62 7q-28 0 -55.5 -8.5t-49 -27t-35 -46.5t-13.5 -67q0 -32 11 -59t31 -47
t49.5 -31.5t65.5 -11.5q57 0 93.5 16t54.5 28z" />
    <glyph glyph-name="uni04AC" unicode="&#x4ac;" 
d="M232 590h-96v-121h-110v231h548v-231h-110v121h-95v-468h113v-257h-120v135h-130v590z" />
    <glyph glyph-name="uni04AD" unicode="&#x4ad;" 
d="M103 110h130v275h-79v-85h-111v200h514v-200h-110v85h-80v-275h144v-230h-110v120h-298v110z" />
    <glyph glyph-name="uni04AE" unicode="&#x4ae;" 
d="M232 258l-226 442h163l135 -289h5l138 289h147l-225 -441v-259h-137v258z" />
    <glyph glyph-name="uni04AF" unicode="&#x4af;" 
d="M27 500h149l131 -326h8l119 326h138l-201 -501v-199h-130v199z" />
    <glyph glyph-name="uni04B0" unicode="&#x4b0;" 
d="M77 294h136l-207 406h163l135 -289h5l138 289h147l-207 -406h137v-91h-155v-203h-137v203h-155v91z" />
    <glyph glyph-name="uni04B1" unicode="&#x4b1;" 
d="M121 0h119l-213 500h149l131 -326h8l119 326h138l-201 -500h120v-80h-120v-120h-130v120h-120v80z" />
    <glyph glyph-name="uni04B2" unicode="&#x4b2;" 
d="M219 359l-198 341h160l102 -190l23 -51l22 51l104 190h155l-201 -342l136 -236h76v-257h-120v135h-45l-107 200l-27 54l-26 -54l-112 -200h-155z" />
    <glyph glyph-name="uni04B3" unicode="&#x4b3;" 
d="M211 258l-174 242h155l113 -167l118 167h141l-171 -240l101 -145h90v-235h-110v120h-51l-127 184l-129 -184h-142z" />
    <glyph glyph-name="uni04B4" unicode="&#x4b4;" 
d="M100 578h-100v122h337v-122h-100v-456h149v578h137v-578h77v-257h-120v135h-380v578z" />
    <glyph glyph-name="uni04B5" unicode="&#x4b5;" 
d="M600 -120h-110v120h-380v385h-110v115h344v-115h-104v-270h155v385h130v-385h75v-235z" />
    <glyph glyph-name="uni04B6" unicode="&#x4b6;" 
d="M522 122h76v-257h-120v135h-93v282q-26 -15 -69.5 -27.5t-103.5 -12.5q-42 0 -76.5 10.5t-60 34t-39.5 60t-14 88.5v265h137v-222q0 -60 23.5 -89.5t77.5 -29.5q38 0 71.5 8.5t53.5 25.5v307h137v-578z" />
    <glyph glyph-name="uni04B7" unicode="&#x4b7;" 
d="M170 500v-114q0 -62 20 -90t79 -28q11 0 26.5 2t31 5t28.5 7.5t20 9.5v208h130v-385h79v-235h-110v120h-99v196q-8 -5 -24 -11.5t-37.5 -12.5t-46.5 -10t-51 -4q-37 0 -69 8t-56 28t-37.5 53t-13.5 83v170h130z" />
    <glyph glyph-name="uni04B8" unicode="&#x4b8;" 
d="M256 243q-6 -1 -12 -1h-13q-88 0 -137.5 48.5t-49.5 144.5v265h137v-222q0 -27 3 -47.5t11 -35t23 -23.5t38 -13v118h93v-112q25 5 40.5 11.5t29.5 16.5v307h137v-700h-137v282q-13 -8 -28 -15t-42 -13v-132h-93v121z" />
    <glyph glyph-name="uni04B9" unicode="&#x4b9;" 
d="M190 500v-114q0 -62 20 -90q15 -21 51 -27v117h76v-113q5 1 9 2q16 3 29 7.5t20 9.5v208h130v-500h-130v196q-8 -5 -24 -12q-15 -6 -34 -11v-114h-76v99h-25q-37 0 -69 8t-56 28t-37.5 53t-13.5 83v170h130z" />
    <glyph glyph-name="uni04BA" unicode="&#x4ba;" 
d="M413 0v222q0 60 -23.5 89.5t-77.5 29.5q-38 0 -71.5 -8.5t-53.5 -25.5v-307h-137v700h137v-282q26 15 69.5 27.5t103.5 12.5q42 0 76.5 -10.5t60 -34t39.5 -60t14 -88.5v-265h-137z" />
    <glyph glyph-name="uni04BB" unicode="&#x4bb;" 
d="M0 700h202v-256h4q24 32 64 51t94 19q38 0 70 -10t55 -33t36 -62.5t13 -97.5v-311h-130v284q0 61 -26 88t-68 27q-37 0 -68 -22.5t-44 -57.5v-319h-130v590h-72v110z" />
    <glyph glyph-name="uni04BC" unicode="&#x4bc;" 
d="M299 293q2 -37 6.5 -73.5t20.5 -64.5q12 -21 31.5 -34t54.5 -13q45 0 78 15.5t58 33.5l35 -116q-44 -28 -88 -41.5t-105 -13.5q-59 0 -108.5 24.5t-78.5 77.5q-21 39 -30 87.5t-9 117.5h-6q-78 0 -122 36.5t-44 99.5v9q0 26 7.5 47.5t16.5 35.5h109q-8 -12 -14 -28.5
t-6 -30.5v-7q0 -20 14.5 -33.5t44.5 -13.5q0 64 12 120t39.5 97.5t71.5 65t106 23.5q113 0 165 -76q28 -41 38 -90t10 -119q0 -14 -1 -32.5t-2.5 -37.5t-4 -36.5t-4.5 -29.5h-295zM472 408q2 11 3.5 25t1.5 24q0 31 -4.5 57t-15 45t-27 29.5t-39.5 10.5q-29 0 -47.5 -14.5
t-29 -40t-14 -60.5t-1.5 -76h173z" />
    <glyph glyph-name="uni04BD" unicode="&#x4bd;" 
d="M572 43q-30 -24 -81.5 -40.5t-109.5 -16.5q-55 0 -95 15t-66.5 43.5t-41.5 70t-19 93.5h-7q-67 0 -104.5 35t-37.5 101q0 32 7.5 49t21.5 34h104q-14 -12 -24.5 -28.5t-10.5 -40.5q0 -20 11 -34t43 -14q14 102 75 153t161 51q38 0 72.5 -10t60.5 -33t41.5 -62t15.5 -97
q0 -21 -2.5 -45t-7.5 -50h-289q3 -63 27 -95t90 -32q41 0 73.5 12.5t49.5 25.5zM390 410q-47 0 -69.5 -30.5t-27.5 -81.5h174q0 4 0.5 8t0.5 8q0 46 -18 71t-60 25z" />
    <glyph glyph-name="uni04BE" unicode="&#x4be;" 
d="M299 293q2 -37 6.5 -73.5t20.5 -64.5q12 -21 31.5 -34t54.5 -13q45 0 78 15.5t58 33.5l35 -116q-44 -28 -88 -41q-20 -6 -44 -10v-165h-120v168q-26 6 -50 17q-49 25 -78 78q-21 39 -30 87.5t-9 117.5h-6q-78 0 -122 36.5t-44 99.5v9q0 26 7.5 47.5t16.5 35.5h109
q-8 -12 -14 -28.5t-6 -30.5v-7q0 -20 14.5 -33.5t44.5 -13.5q0 64 12 120t39.5 97.5t71.5 65t106 23.5q113 0 165 -76q28 -41 38 -90t10 -119q0 -14 -1 -32.5t-2.5 -37.5t-4 -36.5t-4.5 -29.5h-295zM472 408q2 11 3.5 25t1.5 24q0 31 -4.5 57t-15 45t-27 29.5t-39.5 10.5
q-29 0 -47.5 -14.5t-29 -40t-14 -60.5t-1.5 -76h173z" />
    <glyph glyph-name="uni04BF" unicode="&#x4bf;" 
d="M572 43q-30 -24 -82 -41q-26 -8 -54 -12v-165h-110v165q-22 4 -40 11q-40 15 -66.5 43.5t-41.5 70t-19 93.5h-7q-67 0 -104.5 35t-37.5 101q0 32 7.5 49t21.5 34h104q-14 -12 -24.5 -28.5t-10.5 -40.5q0 -20 11 -34t43 -14q14 102 75 153t161 51q38 0 72.5 -10t60.5 -33
t41.5 -62t15.5 -97q0 -21 -2.5 -45t-7.5 -50h-289q3 -63 27 -95t90 -32q41 0 73.5 12.5t49.5 25.5zM390 410q-47 0 -69.5 -30.5t-27.5 -81.5h174q0 4 0.5 8t0.5 8q0 46 -18 71t-60 25z" />
    <glyph glyph-name="uni04C0" unicode="&#x4c0;" 
d="M54 122h177v456h-177v122h492v-122h-178v-456h178v-122h-492v122z" />
    <glyph glyph-name="uni04C3" unicode="&#x4c3;" 
d="M415 105q-2 86 -44 136.5t-119 50.5h-74v-292h-137v700h137v-286h71l160 286h156l-184 -309q51 -11 84.5 -38.5t53.5 -66.5t28 -86t8 -96q0 -84 -19.5 -143t-52 -96.5t-76 -54.5t-91.5 -17q-14 0 -32.5 2t-27.5 4v111h15q31 0 58 10t46 33t29.5 60t10.5 92z" />
    <glyph glyph-name="uni04C4" unicode="&#x4c4;" 
d="M201 0h-130v500h130v-217h43l175 217h146l-196 -230q46 -9 80.5 -29.5t56.5 -49t33 -63.5t11 -73v-21q0 -52 -16.5 -96.5t-47.5 -77t-75.5 -51t-100.5 -18.5q-17 0 -30 2.5t-23 4.5v110q7 -1 18 -1.5t19 -0.5q60 0 93 37.5t33 96.5q0 43 -16 73t-42.5 49t-60 27t-69.5 8
h-31v-197z" />
    <glyph glyph-name="uni04C5" unicode="&#x4c5;" 
d="M394 578h-122q-5 -94 -10.5 -172t-13.5 -140.5t-21.5 -111t-35.5 -83.5q-29 -47 -65.5 -62.5t-68.5 -15.5q-23 0 -38.5 3.5t-30.5 10.5l15 118q6 -2 12 -3t12 -1q16 0 32.5 8t27.5 27q14 22 24 64.5t17 108.5t11 157.5t6 213.5h386v-585h93v-31l-96 -214h-94l45 130h-85
v578z" />
    <glyph glyph-name="uni04C6" unicode="&#x4c6;" 
d="M376 385h-123q-6 -71 -15 -141t-27.5 -125.5t-49 -90t-78.5 -34.5q-58 0 -82 15l16 108q16 -6 30 -6q20 0 36 17t27 61t18.5 119.5t10.5 191.5h367v-385h95v-31l-96 -214h-94l45 130h-80v385z" />
    <glyph glyph-name="uni04C7" unicode="&#x4c7;" 
d="M550 -21q0 -91 -36 -139t-114 -48q-14 0 -30.5 1.5t-33.5 5.5v109q4 0 7.5 -0.5t7.5 -0.5q21 0 33.5 6t19 18t8 29.5t1.5 39.5v293h-226v-293h-137v700h137v-285h226v285h137v-721z" />
    <glyph glyph-name="uni04C8" unicode="&#x4c8;" 
d="M406 197h-213v-197h-130v500h130v-188h213v188h130v-521q0 -91 -36 -139t-115 -48q-30 0 -64 7v109q4 0 7.5 -0.5t7.5 -0.5q43 0 56.5 24.5t13.5 68.5v197z" />
    <glyph glyph-name="uni04C9" unicode="&#x4c9;" 
d="M377 293h-217v-293h-137v700h137v-285h217v285h137v-585h93v-31l-96 -214h-94l45 130h-85v293z" />
    <glyph glyph-name="uni04CA" unicode="&#x4ca;" 
d="M370 197h-203v-197h-130v500h130v-188h203v188h130v-385h101v-31l-96 -214h-94l45 130h-86v197z" />
    <glyph glyph-name="uni04CB" unicode="&#x4cb;" 
d="M187 700v-222q0 -60 23.5 -89.5t77.5 -29.5q38 0 71.5 8.5t53.5 25.5v307h137v-700h-103v-135h-120v257h86v160q-26 -15 -69.5 -27.5t-103.5 -12.5q-42 0 -76.5 10.5t-60 34t-39.5 60t-14 88.5v265h137z" />
    <glyph glyph-name="uni04CC" unicode="&#x4cc;" 
d="M190 500v-114q0 -62 20 -90t79 -28q11 0 26.5 2t31 5t28.5 7.5t20 9.5v208h130v-500h-134v-120h-110v221h114v95q-8 -5 -24 -11.5t-37.5 -12.5t-46.5 -10t-51 -4q-37 0 -69 8t-56 28t-37.5 53t-13.5 83v170h130z" />
    <glyph glyph-name="uni04CD" unicode="&#x4cd;" 
d="M395 373l5 109h-6l-112 -183h-24l-117 183h-5l6 -98v-384h-130v700h139l120 -194h4l119 194h138v-585h93v-31l-96 -214h-94l45 130h-85v373z" />
    <glyph glyph-name="uni04CE" unicode="&#x4ce;" 
d="M10 500h135l113 -171h4l105 171h136v-385h96v-31l-96 -214h-94l45 130h-76v229l3 104h-5l-109 -181h-27l-116 181h-6l8 -103v-230h-116v500z" />
    <glyph glyph-name="uni04CF" unicode="&#x4cf;" 
d="M100 700h265v-590h135v-110h-265v590h-135v110z" />
    <glyph glyph-name="uni04D0" unicode="&#x4d0;" 
d="M400 155h-209l-48 -155h-137l226 700h137l225 -700h-144zM223 265h150l-71 234h-9zM233 884q4 -32 23.5 -46t50.5 -14q67 0 74 59l111 -17q-11 -63 -57.5 -92t-128.5 -29q-41 0 -75 6t-59.5 19.5t-42 36.5t-20.5 57z" />
    <glyph glyph-name="uni04D1" unicode="&#x4d1;" 
d="M90 466q40 18 92.5 31t124.5 13q52 0 88.5 -12.5t59 -35.5t32.5 -55t10 -72q0 -51 -3.5 -87t-3.5 -64q0 -21 2 -47q2 -14 3 -27h65v-110h-166l-13 68h-5q-20 -31 -57 -53.5t-100 -22.5q-75 0 -119 40t-44 106q0 42 15.5 72.5t45 50t71 29t92.5 9.5q18 0 38 -2t49 -4
q2 10 2 20v19q0 38 -22 54.5t-65 16.5q-51 0 -92 -13t-69 -26zM261 99q48 0 72 17.5t35 37.5v60q-10 2 -30 4.5t-43 2.5q-19 0 -38 -3.5t-34 -11t-24 -19.5t-9 -29q0 -28 16.5 -43.5t54.5 -15.5zM242 704q7 -39 23.5 -55t42.5 -16q28 0 44.5 16t22.5 54l99 -25
q-12 -65 -59 -96.5t-110 -31.5q-31 0 -60 7t-52 22.5t-39 39.5t-22 59z" />
    <glyph glyph-name="uni04D2" unicode="&#x4d2;" 
d="M400 155h-209l-48 -155h-137l226 700h137l225 -700h-144zM223 265h150l-71 234h-9zM98 805q0 27 19 44t61 17t61 -17t19 -44q0 -28 -19 -44t-61 -16t-61 16t-19 44zM344 805q0 27 19 44t61 17t61 -17t19 -44q0 -28 -19 -44t-61 -16t-61 16t-19 44z" />
    <glyph glyph-name="uni04D3" unicode="&#x4d3;" 
d="M90 466q40 18 92.5 31t124.5 13q52 0 88.5 -12.5t59 -35.5t32.5 -55t10 -72q0 -51 -3.5 -87t-3.5 -64q0 -21 2 -47q2 -14 3 -27h65v-110h-166l-13 68h-5q-20 -31 -57 -53.5t-100 -22.5q-75 0 -119 40t-44 106q0 42 15.5 72.5t45 50t71 29t92.5 9.5q18 0 38 -2t49 -4
q2 10 2 20v19q0 38 -22 54.5t-65 16.5q-51 0 -92 -13t-69 -26zM261 99q48 0 72 17.5t35 37.5v60q-10 2 -30 4.5t-43 2.5q-19 0 -38 -3.5t-34 -11t-24 -19.5t-9 -29q0 -28 16.5 -43.5t54.5 -15.5zM89 627q0 34 20.5 54.5t55.5 20.5q34 0 54 -20.5t20 -54.5q0 -32 -20 -52.5
t-54 -20.5q-35 0 -55.5 20.5t-20.5 52.5zM347 627q0 34 20 54.5t54 20.5t55 -20.5t21 -54.5q0 -32 -21 -52.5t-55 -20.5t-54 20.5t-20 52.5z" />
    <glyph glyph-name="uni04D4" unicode="&#x4d4;" 
d="M296 480l-70 -204h74v204h-4zM300 168h-115l-62 -168h-125l270 700h331v-121h-179v-163h161v-123h-161v-171h182v-122h-302v168z" />
    <glyph glyph-name="uni04D5" unicode="&#x4d5;" 
d="M179 100q41 0 52 35v90q-5 1 -9 1.5t-9 0.5q-29 -1 -48.5 -15.5t-19.5 -53.5q0 -58 34 -58zM257 62q-17 -34 -44.5 -52t-72.5 -18q-26 0 -49 11t-40 30.5t-26.5 46.5t-9.5 60q0 41 13 71t37 50t57 30t72 10h15t15 -1q1 8 1 16v15q0 42 -15 56.5t-41 14.5q-9 0 -22 -2.5
t-26.5 -6.5t-27 -10t-23.5 -12l-33 96q14 10 33 18.5t41 13.5t44.5 8t43.5 3q34 0 65 -12.5t45 -40.5q35 57 103 57q29 0 57 -10t50.5 -32.5t36.5 -59.5t14 -90q0 -29 -3 -56.5t-7 -50.5h-211q1 -68 22.5 -95t56.5 -27q12 0 26 2t27 5.5t24 8t17 8.5l36 -86
q-11 -9 -27.5 -16.5t-36.5 -13.5t-43 -9.5t-45 -3.5q-48 0 -86.5 18t-58.5 56h-4zM409 410q-28 0 -42.5 -28t-16.5 -89h101q0 5 0.5 12t0.5 12q0 45 -10.5 69t-32.5 24z" />
    <glyph glyph-name="uni04D6" unicode="&#x4d6;" 
d="M70 700h459v-122h-322v-163h297v-122h-297v-171h327v-122h-464v700zM233 884q4 -32 23.5 -46t50.5 -14q67 0 74 59l111 -17q-11 -63 -57.5 -92t-128.5 -29q-41 0 -75 6t-59.5 19.5t-42 36.5t-20.5 57z" />
    <glyph glyph-name="uni04D7" unicode="&#x4d7;" 
d="M534 53q-13 -12 -33.5 -23.5t-48 -21.5t-60.5 -16t-70 -6q-64 0 -114.5 18t-85.5 52.5t-53.5 83t-18.5 110.5q0 66 21 115.5t57.5 82.5t85.5 49.5t106 16.5q38 0 78.5 -10t74.5 -34.5t55.5 -65.5t21.5 -104q0 -43 -10 -93h-360q1 -32 13.5 -54t33 -36t47 -20.5t56.5 -6.5
q60 0 98.5 14t62.5 34zM318 410q-26 0 -49 -7t-41.5 -20.5t-30.5 -33.5t-14 -45h246q0 49 -27.5 77.5t-83.5 28.5zM252 704q7 -39 23.5 -55t42.5 -16q28 0 44.5 16t22.5 54l99 -25q-12 -65 -59 -96.5t-110 -31.5q-31 0 -60 7t-52 22.5t-39 39.5t-22 59z" />
    <glyph glyph-name="uni04D8" unicode="&#x4d8;" 
d="M175 296q-3 -20 -3 -42q0 -31 7 -59t22 -49.5t37 -34t52 -12.5q63 0 94.5 50t31.5 147h-241zM417 409q-2 40 -11.5 73.5t-28.5 58t-48.5 38t-70.5 13.5q-47 0 -83 -13t-65 -27l-28 112q31 20 84 35t115 15q65 0 112.5 -19t83.5 -62q77 -91 76 -283q0 -85 -16 -152.5
t-49 -114.5t-84.5 -72t-123.5 -25q-65 0 -111 22t-75 62t-42.5 96t-13.5 124q0 14 1 31.5t3 34.5t3.5 31.5t3.5 21.5h368z" />
    <glyph glyph-name="afii10846" unicode="&#x4d9;" 
d="M68 457q45 29 103.5 43t115.5 14t104.5 -17.5t82.5 -51.5t54.5 -83t19.5 -112t-20 -112t-55 -83t-82 -51.5t-102 -17.5q-41 0 -83 13t-76 41t-56 71.5t-22 103.5q0 28 3.5 47t5.5 30h360q-10 60 -51 89t-107 29q-41 0 -80.5 -11t-68.5 -30zM173 211q-2 -25 5.5 -47
t22.5 -38.5t37.5 -26t51.5 -9.5q57 0 92 33.5t36 87.5h-245z" />
    <glyph glyph-name="uni04DA" unicode="&#x4da;" 
d="M175 296q-3 -20 -3 -42q0 -31 7 -59t22 -49.5t37 -34t52 -12.5q63 0 94.5 50t31.5 147h-241zM417 409q-2 40 -11.5 73.5t-28.5 58t-48.5 38t-70.5 13.5q-47 0 -83 -13t-65 -27l-28 112q31 20 84 35t115 15q65 0 112.5 -19t83.5 -62q77 -91 76 -283q0 -85 -16 -152.5
t-49 -114.5t-84.5 -72t-123.5 -25q-65 0 -111 22t-75 62t-42.5 96t-13.5 124q0 14 1 31.5t3 34.5t3.5 31.5t3.5 21.5h368zM87 805q0 27 19 44t61 17t61 -17t19 -44q0 -28 -19 -44t-61 -16t-61 16t-19 44zM333 805q0 27 19 44t61 17t61 -17t19 -44q0 -28 -19 -44t-61 -16
t-61 16t-19 44z" />
    <glyph glyph-name="uni04DB" unicode="&#x4db;" 
d="M68 457q45 29 103.5 43t115.5 14t104.5 -17.5t82.5 -51.5t54.5 -83t19.5 -112t-20 -112t-55 -83t-82 -51.5t-102 -17.5q-41 0 -83 13t-76 41t-56 71.5t-22 103.5q0 28 3.5 47t5.5 30h360q-10 60 -51 89t-107 29q-41 0 -80.5 -11t-68.5 -30zM173 211q-2 -25 5.5 -47
t22.5 -38.5t37.5 -26t51.5 -9.5q57 0 92 33.5t36 87.5h-245zM87 627q0 34 20.5 54.5t55.5 20.5q34 0 54 -20.5t20 -54.5q0 -32 -20 -52.5t-54 -20.5q-35 0 -55.5 20.5t-20.5 52.5zM345 627q0 34 20 54.5t54 20.5t55 -20.5t21 -54.5q0 -32 -21 -52.5t-55 -20.5t-54 20.5
t-20 52.5z" />
    <glyph glyph-name="uni04DC" unicode="&#x4dc;" 
d="M235 700h130v-297h34l50 297h136l-70 -349l82 -351h-138l-60 299h-34v-299h-130v299h-34l-60 -299h-138l82 351l-70 349h136l50 -297h34v297zM97 805q0 27 19 44t61 17t61 -17t19 -44q0 -28 -19 -44t-61 -16t-61 16t-19 44zM343 805q0 27 19 44t61 17t61 -17t19 -44
q0 -28 -19 -44t-61 -16t-61 16t-19 44z" />
    <glyph glyph-name="uni04DD" unicode="&#x4dd;" 
d="M213 207l-82 -207h-126l110 252l-106 248h128l76 -203h33v203h114v-203h28l74 203h128l-99 -236l104 -264h-130l-72 207h-33v-207h-114v207h-33zM96 627q0 34 20.5 54.5t55.5 20.5q34 0 54 -20.5t20 -54.5q0 -32 -20 -52.5t-54 -20.5q-35 0 -55.5 20.5t-20.5 52.5z
M354 627q0 34 20 54.5t54 20.5t55 -20.5t21 -54.5q0 -32 -21 -52.5t-55 -20.5t-54 20.5t-20 52.5z" />
    <glyph glyph-name="uni04DE" unicode="&#x4de;" 
d="M51 235h110v-112q3 -1 5 -2q22 -7 46.5 -12t53.5 -5q24 0 46.5 6t40.5 19t28.5 33t10.5 48q0 31 -12.5 50.5t-33.5 30t-47.5 14.5t-53.5 5h-30v107h29q21 0 43.5 4t40.5 14t30 27.5t12 44.5q0 23 -9 39.5t-25 27t-37 15.5t-46 5q-47 0 -82 -10v-103h-110v190
q37 16 95.5 28.5t123.5 12.5q44 0 86 -8.5t75 -29t53 -55t20 -86.5t-27.5 -94t-88.5 -62v-5q66 -17 102 -57t36 -112q0 -57 -23 -98t-60.5 -67.5t-86.5 -39t-100 -12.5q-66 0 -121.5 11.5t-93.5 29.5v208zM75 805q0 27 19 44t61 17t61 -17t19 -44q0 -28 -19 -44t-61 -16
t-61 16t-19 44zM321 805q0 27 19 44t61 17t61 -17t19 -44q0 -28 -19 -44t-61 -16t-61 16t-19 44z" />
    <glyph glyph-name="uni04DF" unicode="&#x4df;" 
d="M80 457q15 9 38 18t52.5 16.5t63.5 12.5t71 5q117 0 169 -32t52 -93q0 -17 -5 -36t-17 -36t-30.5 -30t-45.5 -18v-4q58 -5 87.5 -37t29.5 -83q0 -32 -14 -59.5t-43.5 -47.5t-74.5 -32t-108 -12q-42 0 -80 6t-70 16.5t-57.5 23.5t-41.5 27l50 96q15 -12 36 -22.5
t45.5 -18.5t51 -13t52.5 -5q53 0 88.5 15t35.5 43q0 26 -33.5 36t-97.5 10h-29v91h41q51 0 75.5 16t24.5 39q0 27 -28.5 38.5t-79.5 11.5q-28 0 -57 -5q-22 -3 -42 -8v-86h-109v157zM94 627q0 34 20.5 54.5t55.5 20.5q34 0 54 -20.5t20 -54.5q0 -32 -20 -52.5t-54 -20.5
q-35 0 -55.5 20.5t-20.5 52.5zM352 627q0 34 20 54.5t54 20.5t55 -20.5t21 -54.5q0 -32 -21 -52.5t-55 -20.5t-54 20.5t-20 52.5z" />
    <glyph glyph-name="uni04E0" unicode="&#x4e0;" 
d="M58 241h110v-115q10 -4 24.5 -7t30 -5.5t30 -4t25.5 -1.5q30 0 56 6.5t45.5 20t30.5 34t11 48.5q0 55 -42.5 79t-120.5 24h-37v78l144 185h-197v-102h-110v219h465v-98l-155 -191q42 0 78 -12t61.5 -36.5t40 -61t14.5 -84.5q0 -50 -21 -92.5t-59 -73t-90 -48t-115 -17.5
q-30 0 -61.5 4t-61 11t-54.5 15.5t-42 16.5v208z" />
    <glyph glyph-name="uni04E1" unicode="&#x4e1;" 
d="M78 32h110v-112l20 -8q20 -7 40.5 -10.5t44.5 -3.5q59 0 94 28.5t35 80.5q0 33 -11.5 53.5t-33 32t-52 15.5t-67.5 4h-22v65l137 213h-185v-100h-110v210h443v-90l-145 -209q81 -8 128.5 -51t47.5 -127q0 -55 -19.5 -98.5t-55 -74t-85.5 -46.5t-111 -16q-22 0 -49 4.5
t-54 12t-53 18t-47 23.5v186z" />
    <glyph glyph-name="uni04E2" unicode="&#x4e2;" 
d="M413 370l8 91h-5l-41 -94l-198 -367h-127v700h137v-363l-10 -94h6l43 97l198 360h126v-700h-137v370zM129 856h343v-89h-343v89z" />
    <glyph glyph-name="uni04E3" unicode="&#x4e3;" 
d="M405 228l5 71h-3l-241 -299h-102v500h130v-238l-6 -68h4l241 306h102v-500h-130v228zM138 658h323v-92h-323v92z" />
    <glyph glyph-name="uni04E4" unicode="&#x4e4;" 
d="M413 370l8 91h-5l-41 -94l-198 -367h-127v700h137v-363l-10 -94h6l43 97l198 360h126v-700h-137v370zM97 805q0 27 19 44t61 17t61 -17t19 -44q0 -28 -19 -44t-61 -16t-61 16t-19 44zM343 805q0 27 19 44t61 17t61 -17t19 -44q0 -28 -19 -44t-61 -16t-61 16t-19 44z" />
    <glyph glyph-name="uni04E5" unicode="&#x4e5;" 
d="M405 228l5 71h-3l-241 -299h-102v500h130v-238l-6 -68h4l241 306h102v-500h-130v228zM96 627q0 34 20.5 54.5t55.5 20.5q34 0 54 -20.5t20 -54.5q0 -32 -20 -52.5t-54 -20.5q-35 0 -55.5 20.5t-20.5 52.5zM354 627q0 34 20 54.5t54 20.5t55 -20.5t21 -54.5
q0 -32 -21 -52.5t-55 -20.5t-54 20.5t-20 52.5z" />
    <glyph glyph-name="uni04E6" unicode="&#x4e6;" 
d="M36 350q0 85 16 153t49 114.5t82.5 71.5t116.5 25q72 0 122 -27t81.5 -75t46 -115t14.5 -147q0 -171 -65.5 -267.5t-198.5 -96.5q-72 0 -122.5 27t-82 75t-45.5 115t-14 147zM180 350q0 -51 4.5 -95t17 -76.5t36 -51.5t62.5 -19q35 0 58 14.5t37 44.5t19.5 75.5
t5.5 107.5q0 49 -3.5 93t-16 77t-36.5 52.5t-64 19.5q-70 0 -95 -61t-25 -181zM97 805q0 27 19 44t61 17t61 -17t19 -44q0 -28 -19 -44t-61 -16t-61 16t-19 44zM343 805q0 27 19 44t61 17t61 -17t19 -44q0 -28 -19 -44t-61 -16t-61 16t-19 44z" />
    <glyph glyph-name="uni04E7" unicode="&#x4e7;" 
d="M35 250q0 63 19 112t54 83t83.5 51.5t108.5 17.5q63 0 112.5 -19t83.5 -53.5t51.5 -83.5t17.5 -108q0 -63 -19 -112t-54 -83t-83.5 -51.5t-108.5 -17.5q-63 0 -112.5 19t-83.5 53.5t-51.5 83.5t-17.5 108zM169 250q0 -33 9 -61t26 -49t41 -32.5t55 -11.5q58 0 94.5 37
t36.5 117q0 69 -34 111.5t-97 42.5q-28 0 -52 -8.5t-41.5 -27.5t-27.5 -48t-10 -70zM96 627q0 34 20.5 54.5t55.5 20.5q34 0 54 -20.5t20 -54.5q0 -32 -20 -52.5t-54 -20.5q-35 0 -55.5 20.5t-20.5 52.5zM354 627q0 34 20 54.5t54 20.5t55 -20.5t21 -54.5q0 -32 -21 -52.5
t-55 -20.5t-54 20.5t-20 52.5z" />
    <glyph glyph-name="uni04E8" unicode="&#x4e8;" 
d="M36 350q0 85 16 153t49 114.5t82.5 71.5t116.5 25q72 0 122 -27t81.5 -75t46 -115t14.5 -147q0 -171 -65.5 -267.5t-198.5 -96.5q-72 0 -122.5 27t-82 75t-45.5 115t-14 147zM300 108q62 0 87.5 46t30.5 143h-237q2 -41 8 -75.5t19.5 -60t36 -39.5t55.5 -14zM300 592
q-62 0 -88 -46.5t-31 -138.5h238q-2 39 -8 73t-19 58.5t-35.5 39t-56.5 14.5z" />
    <glyph glyph-name="uni04E9" unicode="&#x4e9;" 
d="M35 250q0 63 19 112t54 83t83.5 51.5t108.5 17.5q63 0 112.5 -19t83.5 -53.5t51.5 -83.5t17.5 -108q0 -63 -19 -112t-54 -83t-83.5 -51.5t-108.5 -17.5q-63 0 -112.5 19t-83.5 53.5t-51.5 83.5t-17.5 108zM300 404q-50 0 -85 -27t-44 -88h257q-9 53 -41.5 84t-86.5 31z
M300 96q49 0 83 26.5t44 84.5h-254q11 -50 43.5 -80.5t83.5 -30.5z" />
    <glyph glyph-name="uni04EA" unicode="&#x4ea;" 
d="M36 350q0 85 16 153t49 114.5t82.5 71.5t116.5 25q72 0 122 -27t81.5 -75t46 -115t14.5 -147q0 -171 -65.5 -267.5t-198.5 -96.5q-72 0 -122.5 27t-82 75t-45.5 115t-14 147zM300 108q62 0 87.5 46t30.5 143h-237q2 -41 8 -75.5t19.5 -60t36 -39.5t55.5 -14zM300 592
q-62 0 -88 -46.5t-31 -138.5h238q-2 39 -8 73t-19 58.5t-35.5 39t-56.5 14.5zM97 805q0 27 19 44t61 17t61 -17t19 -44q0 -28 -19 -44t-61 -16t-61 16t-19 44zM343 805q0 27 19 44t61 17t61 -17t19 -44q0 -28 -19 -44t-61 -16t-61 16t-19 44z" />
    <glyph glyph-name="uni04EB" unicode="&#x4eb;" 
d="M35 250q0 63 19 112t54 83t83.5 51.5t108.5 17.5q63 0 112.5 -19t83.5 -53.5t51.5 -83.5t17.5 -108q0 -63 -19 -112t-54 -83t-83.5 -51.5t-108.5 -17.5q-63 0 -112.5 19t-83.5 53.5t-51.5 83.5t-17.5 108zM300 404q-50 0 -85 -27t-44 -88h257q-9 53 -41.5 84t-86.5 31z
M300 96q49 0 83 26.5t44 84.5h-254q11 -50 43.5 -80.5t83.5 -30.5zM96 627q0 34 20.5 54.5t55.5 20.5q34 0 54 -20.5t20 -54.5q0 -32 -20 -52.5t-54 -20.5q-35 0 -55.5 20.5t-20.5 52.5zM354 627q0 34 20 54.5t54 20.5t55 -20.5t21 -54.5q0 -32 -21 -52.5t-55 -20.5
t-54 20.5t-20 52.5z" />
    <glyph glyph-name="uni04EC" unicode="&#x4ec;" 
d="M46 235h110v-123q35 -8 74 -8q40 0 74 12.5t60 38.5q24 24 39 60.5t19 84.5h-210v110h209q-5 42 -20 77.5t-39 58.5q-28 26 -57.5 38t-74.5 12q-21 0 -35.5 -4t-28.5 -8v-111h-110v199q32 18 83.5 30t103.5 12q60 0 112.5 -17.5t94.5 -55.5q48 -43 78 -114t30 -177
q0 -100 -29 -170.5t-80 -115.5q-46 -42 -105 -60t-122 -18q-57 0 -103 11t-73 22v216zM54 805q0 27 19 44t61 17t61 -17t19 -44q0 -28 -19 -44t-61 -16t-61 16t-19 44zM300 805q0 27 19 44t61 17t61 -17t19 -44q0 -28 -19 -44t-61 -16t-61 16t-19 44z" />
    <glyph glyph-name="uni04ED" unicode="&#x4ed;" 
d="M224 302h196q-5 50 -47.5 76t-108.5 26q-54 0 -97 -16l-6 -2v-86h-110v148q16 11 38 23t51 21.5t65.5 15.5t83.5 6q55 0 103 -17t83.5 -50t55.5 -82.5t20 -114.5q0 -66 -20.5 -115.5t-57 -82.5t-86.5 -49.5t-108 -16.5q-86 0 -145 21t-92 47l55 93q26 -20 65.5 -35.5
t95.5 -15.5q32 0 60.5 6t50.5 18.5t36 32.5t16 49h-197v100zM71 627q0 34 20.5 54.5t55.5 20.5q34 0 54 -20.5t20 -54.5q0 -32 -20 -52.5t-54 -20.5q-35 0 -55.5 20.5t-20.5 52.5zM329 627q0 34 20 54.5t54 20.5t55 -20.5t21 -54.5q0 -32 -21 -52.5t-55 -20.5t-54 20.5
t-20 52.5z" />
    <glyph glyph-name="uni04EE" unicode="&#x4ee;" 
d="M297 332h48l99 368h141l-160 -517q-14 -44 -30.5 -79.5t-40 -60t-56.5 -37.5t-80 -13q-29 0 -52 5t-50 21l35 111q18 -9 31.5 -12t29.5 -3q22 0 37 6t24.5 18t16.5 30t13 41h-101l-196 490h147zM137 856h343v-89h-343v89z" />
    <glyph glyph-name="uni04EF" unicode="&#x4ef;" 
d="M301 141h38l97 359h134l-142 -451q-19 -56 -37 -102.5t-42 -80.5t-56.5 -52.5t-79.5 -18.5q-23 0 -43.5 6t-37.5 14.5t-30 18t-21 17.5l67 89q13 -11 31 -20.5t34 -9.5q30 0 47.5 21t33.5 69h-71l-208 500h141zM144 658h323v-92h-323v92z" />
    <glyph glyph-name="uni04F0" unicode="&#x4f0;" 
d="M297 332h48l99 368h141l-160 -517q-14 -44 -30.5 -79.5t-40 -60t-56.5 -37.5t-80 -13q-29 0 -52 5t-50 21l35 111q18 -9 31.5 -12t29.5 -3q22 0 37 6t24.5 18t16.5 30t13 41h-101l-196 490h147zM99 805q0 27 19 44t61 17t61 -17t19 -44q0 -28 -19 -44t-61 -16t-61 16
t-19 44zM345 805q0 27 19 44t61 17t61 -17t19 -44q0 -28 -19 -44t-61 -16t-61 16t-19 44z" />
    <glyph glyph-name="uni04F1" unicode="&#x4f1;" 
d="M301 141h38l97 359h134l-142 -451q-19 -56 -37 -102.5t-42 -80.5t-56.5 -52.5t-79.5 -18.5q-23 0 -43.5 6t-37.5 14.5t-30 18t-21 17.5l67 89q13 -11 31 -20.5t34 -9.5q30 0 47.5 21t33.5 69h-71l-208 500h141zM100 627q0 34 20.5 54.5t55.5 20.5q34 0 54 -20.5t20 -54.5
q0 -32 -20 -52.5t-54 -20.5q-35 0 -55.5 20.5t-20.5 52.5zM358 627q0 34 20 54.5t54 20.5t55 -20.5t21 -54.5q0 -32 -21 -52.5t-55 -20.5t-54 20.5t-20 52.5z" />
    <glyph glyph-name="uni04F2" unicode="&#x4f2;" 
d="M297 332h48l99 368h141l-160 -517q-14 -44 -30.5 -79.5t-40 -60t-56.5 -37.5t-80 -13q-29 0 -52 5t-50 21l35 111q18 -9 31.5 -12t29.5 -3q22 0 37 6t24.5 18t16.5 30t13 41h-101l-196 490h147zM211 850h134v-16l-100 -93h-93zM409 850h140v-16l-143 -93h-94z" />
    <glyph glyph-name="uni04F3" unicode="&#x4f3;" 
d="M301 141h38l97 359h134l-142 -451q-19 -56 -37 -102.5t-42 -80.5t-56.5 -52.5t-79.5 -18.5q-23 0 -43.5 6t-37.5 14.5t-30 18t-21 17.5l67 89q13 -11 31 -20.5t34 -9.5q30 0 47.5 21t33.5 69h-71l-208 500h141zM220 700h129l-86 -129h-78zM398 700h142l-134 -129h-81z
" />
    <glyph glyph-name="uni04F4" unicode="&#x4f4;" 
d="M187 700v-222q0 -60 23.5 -89.5t77.5 -29.5q38 0 71.5 8.5t53.5 25.5v307h137v-700h-137v282q-26 -15 -69.5 -27.5t-103.5 -12.5q-42 0 -76.5 10.5t-60 34t-39.5 60t-14 88.5v265h137zM104 805q0 27 19 44t61 17t61 -17t19 -44q0 -28 -19 -44t-61 -16t-61 16t-19 44z
M350 805q0 27 19 44t61 17t61 -17t19 -44q0 -28 -19 -44t-61 -16t-61 16t-19 44z" />
    <glyph glyph-name="uni04F5" unicode="&#x4f5;" 
d="M190 500v-114q0 -62 20 -90t79 -28q11 0 26.5 2t31 5t28.5 7.5t20 9.5v208h130v-500h-130v196q-8 -5 -24 -11.5t-37.5 -12.5t-46.5 -10t-51 -4q-37 0 -69 8t-56 28t-37.5 53t-13.5 83v170h130zM96 627q0 34 20.5 54.5t55.5 20.5q34 0 54 -20.5t20 -54.5q0 -32 -20 -52.5
t-54 -20.5q-35 0 -55.5 20.5t-20.5 52.5zM354 627q0 34 20 54.5t54 20.5t55 -20.5t21 -54.5q0 -32 -21 -52.5t-55 -20.5t-54 20.5t-20 52.5z" />
    <glyph glyph-name="uni04F6" unicode="&#x4f6;" 
d="M283 122h149v-257h-120v135h-258v122h92v456h-92v122h514v-227h-110v105h-175v-456z" />
    <glyph glyph-name="uni04F7" unicode="&#x4f7;" 
d="M58 110h68v280h-68v110h481v-200h-110v90h-169v-280h171v-230h-110v120h-263v110z" />
    <glyph glyph-name="uni04F8" unicode="&#x4f8;" 
d="M450 700h133v-700h-133v700zM17 700h135v-251q7 2 23 5t39 3q42 0 79.5 -13.5t66.5 -45.5q22 -25 35.5 -64.5t13.5 -96.5q0 -51 -13.5 -99.5t-47.5 -84.5q-28 -29 -73 -46t-102 -17q-31 0 -71 4t-85 13v693zM193 112q35 0 58.5 27.5t23.5 89.5q0 32 -7.5 52.5t-19 32.5
t-26 16.5t-27.5 4.5q-14 0 -24.5 -2t-18.5 -4v-212q12 -3 19.5 -4t21.5 -1zM97 805q0 27 19 44t61 17t61 -17t19 -44q0 -28 -19 -44t-61 -16t-61 16t-19 44zM343 805q0 27 19 44t61 17t61 -17t19 -44q0 -28 -19 -44t-61 -16t-61 16t-19 44z" />
    <glyph glyph-name="uni04F9" unicode="&#x4f9;" 
d="M156 109q15 -3 25.5 -4.5t21.5 -1.5q71 0 71 68q0 65 -68 65q-23 0 -50 -7v-120zM156 322q24 4 43.5 5.5t39.5 1.5q47 0 79 -11.5t52 -32.5t29 -49.5t9 -61.5q0 -91 -49.5 -136t-167.5 -45q-57 0 -94 2t-71 5v500h130v-178zM444 500h130v-500h-130v500zM96 627
q0 34 20.5 54.5t55.5 20.5q34 0 54 -20.5t20 -54.5q0 -32 -20 -52.5t-54 -20.5q-35 0 -55.5 20.5t-20.5 52.5zM354 627q0 34 20 54.5t54 20.5t55 -20.5t21 -54.5q0 -32 -21 -52.5t-55 -20.5t-54 20.5t-20 52.5z" />
    <glyph glyph-name="uni04FC" unicode="&#x4fc;" 
d="M455 -36q0 15 -5 31.5t-12.5 33.5t-17 33.5t-17.5 31.5l-66 114l-24 46l-28 -58l-110 -196h-155l213 359l-198 341h160l102 -190l23 -51l22 51l104 190h155l-201 -342l131 -222q10 -17 21.5 -39t21.5 -46t16.5 -48.5t6.5 -47.5q0 -43 -12 -74t-34 -50.5t-53 -28.5t-68 -9
q-15 0 -31.5 1.5t-33.5 5.5v109q4 0 7.5 -0.5t7.5 -0.5q44 0 59.5 15t15.5 41z" />
    <glyph glyph-name="uni04FD" unicode="&#x4fd;" 
d="M205 258l-174 242h155l113 -167l118 167h141l-171 -240l84 -121q42 -60 61.5 -104t19.5 -81q0 -81 -42 -121.5t-120 -40.5q-31 0 -65 7v104q5 -1 11.5 -1h11.5q41 0 54.5 17t13.5 46v3q0 13 -5 26.5t-12 27t-15.5 26t-15.5 23.5l-78 113l-129 -184h-142z" />
    <glyph glyph-name="uni0510" unicode="&#x510;" 
d="M549 481h-110v96q-7 1 -13 3q-42 10 -86 10q-55 0 -88 -22t-33 -60q0 -31 17 -49t43.5 -27.5t58.5 -12t62 -2.5h18v-107h-21q-26 0 -61 -1.5t-66.5 -11t-54 -30t-22.5 -58.5q0 -52 42.5 -76.5t111.5 -24.5q29 0 55 5q20 4 37 9v113h110v-193q-14 -8 -35.5 -17.5t-51 -18
t-66 -14.5t-80.5 -6q-60 0 -109 12.5t-84 38t-54.5 65t-19.5 93.5q0 36 11 65.5t30.5 51.5t44.5 36.5t54 21.5v5q-114 43 -114 148q0 48 20 84t54 59t79.5 34.5t97.5 11.5q59 0 111 -8t112 -35v-188z" />
    <glyph glyph-name="uni0511" unicode="&#x511;" 
d="M522 304h-110v82q-20 5 -43 8q-28 5 -56 5q-51 0 -79.5 -11.5t-28.5 -38.5q0 -19 20.5 -35.5t69.5 -16.5h51v-91h-29q-64 0 -97.5 -11.5t-33.5 -37.5q0 -31 32 -44.5t85 -13.5q26 0 54 5.5t53.5 14.5t47.5 20t37 23l50 -96q-17 -14 -42 -27.5t-57 -24.5t-70 -18t-80 -7
q-63 0 -108 12t-74.5 32t-43.5 47.5t-14 59.5q0 51 29.5 81t83.5 39v4q-53 10 -73.5 42.5t-20.5 67.5q0 23 12.5 47t40 43.5t71 32t104.5 12.5q76 0 132 -15.5t87 -33.5v-156z" />
    <glyph glyph-name="uni0512" unicode="&#x512;" 
d="M556 -21q0 -91 -36 -139t-114 -48q-14 0 -30.5 1.5t-33.5 5.5v109q5 0 8.5 -0.5t7.5 -0.5q21 0 33 6t18 17.5t8 29t2 40.5v578h-115q-4 -95 -9.5 -173t-15 -140.5t-24 -110.5t-35.5 -83q-14 -24 -31 -39t-35 -23.5t-36.5 -12t-34.5 -3.5q-23 0 -44 4t-36 11l22 117
q13 -5 27 -5q15 0 30.5 8t28.5 28q15 22 26 64.5t19.5 108.5t13.5 157.5t7 213.5h379v-721z" />
    <glyph glyph-name="uni0513" unicode="&#x513;" 
d="M403 385h-129q-4 -33 -7 -75t-9 -85.5t-17 -85t-29 -74t-45.5 -52t-67.5 -19.5q-29 0 -45.5 5t-26.5 10l16 108q16 -6 31 -6q20 0 34 19t23 49.5t14 70.5t7.5 83t4 86.5t3.5 80.5h373v-521q0 -91 -36 -139t-115 -48q-30 0 -64 7v109q4 0 7.5 -0.5t7.5 -0.5
q43 0 56.5 24.5t13.5 68.5v385z" />
    <glyph glyph-name="uni051C" unicode="&#x51c;" 
d="M175 309l2 -84h4l17 79l60 186h102l56 -186l18 -79h4l2 86l28 389h126l-72 -700h-116l-75 221l-23 96h-5l-24 -96l-81 -221h-120l-72 700h137z" />
    <glyph glyph-name="uni051D" unicode="&#x51d;" 
d="M351 380l75 -219h5l9 86l41 253h117l-101 -500h-131l-56 198h-5l-63 -198h-135l-105 500h130l49 -277l8 -62h5l74 219h83z" />
    <glyph glyph-name="uni0524" unicode="&#x524;" 
d="M518 122h76v-257h-120v135h-93v578h-194v-578h-137v700h468v-578z" />
    <glyph glyph-name="uni0525" unicode="&#x525;" 
d="M371 385h-198v-385h-130v500h458v-385h79v-235h-110v120h-99v385z" />
    <glyph glyph-name="uni0526" unicode="&#x526;" 
d="M524 122h76v-257h-120v135h-93v222q0 60 -27 88q-29 31 -84 31q-38 0 -65 -13t-40 -21v-307h-137v700h137v-282q16 10 51.5 25t94.5 15q40 0 76.5 -9.5t63.5 -31.5q32 -26 49.5 -67t17.5 -95v-133z" />
    <glyph glyph-name="uni0527" unicode="&#x527;" 
d="M-6 700h202v-256h4q24 32 64 51t94 19q38 0 70 -10t55 -33t36 -62.5t13 -97.5v-196h76v-235h-110v120h-96v284q0 61 -26 88t-68 27q-37 0 -68 -22.5t-44 -57.5v-319h-130v590h-72v110z" />
    <glyph glyph-name="uni1E30" unicode="&#x1e30;" 
d="M256 292h-71v-292h-137v700h137v-286h71l160 286h156l-197 -338l222 -362h-169zM321 870h159v-30l-160 -88h-103z" />
    <glyph glyph-name="uni1E31" unicode="&#x1e31;" 
d="M0 700h212v-399h30l164 199h153l-202 -228l131 -162h93v-110h-162l-172 207h-35v-207h-130v590h-82v110zM334 720h158l-137 -154h-80z" />
    <glyph glyph-name="uni1E3E" unicode="&#x1e3e;" 
d="M423 373l5 109h-6l-112 -183h-24l-117 183h-5l6 -98v-384h-130v700h139l120 -194h4l119 194h138v-700h-137v373zM342 870h159v-30l-160 -88h-103z" />
    <glyph glyph-name="uni1E3F" unicode="&#x1e3f;" 
d="M241 0v306q0 30 -4 48.5t-10.5 29t-16 14t-19.5 3.5q-17 0 -31.5 -11t-19.5 -28v-362h-120v500h95l14 -55h3q15 29 44 47.5t68 18.5q33 0 63 -16t41 -56q15 35 46 53.5t67 18.5q27 0 48.5 -7.5t37.5 -26.5t24.5 -51.5t8.5 -83.5v-342h-120v320q0 45 -14.5 63t-35.5 18
q-18 0 -31 -8.5t-18 -27.5v-365h-120zM313 720h158l-137 -154h-80z" />
    <glyph glyph-name="uni1E54" unicode="&#x1e54;" 
d="M73 693q42 8 92.5 12.5t100.5 4.5q52 0 104.5 -8.5t94.5 -34t68.5 -71t26.5 -118.5q0 -64 -23 -109.5t-61 -75t-86.5 -43t-100.5 -13.5h-16t-23 0.5t-23.5 1.5t-16.5 2v-241h-137v693zM277 592q-20 0 -38 -1.5t-29 -3.5v-227q4 -1 12 -2t17 -1.5t17.5 -0.5h12.5
q27 0 53.5 5t47.5 18.5t33.5 37.5t12.5 63q0 33 -12 54.5t-31.5 34.5t-44.5 18t-51 5zM314 870h159v-30l-160 -88h-103z" />
    <glyph glyph-name="uni1E55" unicode="&#x1e55;" 
d="M0 500h170l15 -60h4q52 74 168 74q46 0 84.5 -14.5t66 -45.5t42.5 -78t15 -113q0 -64 -17 -115.5t-49 -87.5t-78 -55t-105 -19q-31 0 -61 4.5t-50 14.5v-205h-130v590h-75v110zM318 404q-38 0 -69.5 -19t-43.5 -57v-208q14 -11 40.5 -17.5t53.5 -6.5q28 0 52 9.5t42 30.5
t28 53t10 77q0 66 -32 102t-81 36zM302 720h158l-137 -154h-80z" />
    <glyph glyph-name="uni1E9E" unicode="&#x1e9e;" 
d="M374 569q-18 16 -48.5 25t-67.5 9q-35 0 -56 -12.5t-32 -35t-14.5 -53.5t-3.5 -69v-433h-137v478q0 57 13 100.5t42.5 73.5t76 45.5t112.5 15.5q51 0 91.5 -7.5t74 -21t61.5 -31t55 -37.5l-160 -205h25q40 0 73 -13.5t56.5 -39t36 -61t12.5 -80.5q0 -108 -61.5 -169.5
t-179.5 -61.5q-14 0 -34 2t-40.5 6t-38.5 9t-28 10l27 114q10 -5 24 -8.5t28.5 -5.5t28.5 -3.5t25 -1.5q50 0 77.5 27.5t27.5 79.5q0 55 -37 80t-113 25h-50v83z" />
    <glyph glyph-name="uni2011" unicode="&#x2011;" 
d="M154 345h291v-115h-291v115z" />
    <glyph glyph-name="endash" unicode="&#x2013;" 
d="M79 346h442v-115h-442v115z" />
    <glyph glyph-name="emdash" unicode="&#x2014;" 
d="M0 346h600v-115h-600v115z" />
    <glyph glyph-name="quoteleft" unicode="&#x2018;" 
d="M382 601q0 -13 -5 -26t-15 -23.5t-24.5 -17t-32.5 -6.5q-20 0 -38.5 7.5t-31.5 21.5q-11 13 -17 31t-6 38q0 38 13.5 70t38.5 57q11 11 25 20.5t26.5 16t21.5 10.5t11 5l40 -59q-11 -4 -24.5 -10.5t-25.5 -16t-20 -22.5t-9 -30q29 0 51 -17t22 -49z" />
    <glyph glyph-name="quoteright" unicode="&#x2019;" 
d="M218 646q0 13 5 26t15 23.5t24.5 17t32.5 6.5q20 0 38.5 -7.5t31.5 -21.5q11 -13 17 -31t6 -38q0 -38 -13.5 -70t-38.5 -57q-11 -11 -25 -20.5t-26.5 -16t-21.5 -10.5t-11 -5l-40 59q11 4 24.5 10.5t25.5 16t20 22.5t9 30q-29 0 -51 17t-22 49z" />
    <glyph glyph-name="quotesinglbase" unicode="&#x201a;" 
d="M218 64q0 13 5 26t15 23.5t24.5 17t32.5 6.5q20 0 38.5 -7.5t31.5 -21.5q11 -13 17 -31t6 -38q0 -38 -13.5 -70t-38.5 -57q-11 -11 -25 -20.5t-26.5 -16t-21.5 -10.5t-11 -5l-40 59q11 4 24.5 10.5t25.5 16t20 22.5t9 30q-29 0 -51 17t-22 49z" />
    <glyph glyph-name="quotedblleft" unicode="&#x201c;" 
d="M489 601q0 -13 -5 -26t-15 -23.5t-24.5 -17t-32.5 -6.5q-20 0 -38.5 7.5t-31.5 21.5q-11 13 -17 31t-6 38q0 38 13.5 70t38.5 57q11 11 25 20.5t26.5 16t21.5 10.5t11 5l40 -59q-11 -4 -24.5 -10.5t-25.5 -16t-20 -22.5t-9 -30q29 0 51 -17t22 -49zM277 601q0 -13 -5 -26
t-15 -23.5t-24.5 -17t-32.5 -6.5q-20 0 -38.5 7.5t-31.5 21.5q-11 13 -17 31t-6 38q0 38 13.5 70t38.5 57q11 11 25 20.5t26.5 16t21.5 10.5t11 5l40 -59q-11 -4 -24.5 -10.5t-25.5 -16t-20 -22.5t-9 -30q29 0 51 -17t22 -49z" />
    <glyph glyph-name="quotedblright" unicode="&#x201d;" 
d="M325 646q0 13 5 26t15 23.5t24.5 17t32.5 6.5q20 0 38.5 -7.5t31.5 -21.5q11 -13 17 -31t6 -38q0 -38 -13.5 -70t-38.5 -57q-11 -11 -25 -20.5t-26.5 -16t-21.5 -10.5t-11 -5l-40 59q11 4 24.5 10.5t25.5 16t20 22.5t9 30q-29 0 -51 17t-22 49zM113 646q0 13 5 26
t15 23.5t24.5 17t32.5 6.5q20 0 38.5 -7.5t31.5 -21.5q11 -13 17 -31t6 -38q0 -38 -13.5 -70t-38.5 -57q-11 -11 -25 -20.5t-26.5 -16t-21.5 -10.5t-11 -5l-40 59q11 4 24.5 10.5t25.5 16t20 22.5t9 30q-29 0 -51 17t-22 49z" />
    <glyph glyph-name="quotedblbase" unicode="&#x201e;" 
d="M325 64q0 13 5 26t15 23.5t24.5 17t32.5 6.5q20 0 38.5 -7.5t31.5 -21.5q11 -13 17 -31t6 -38q0 -38 -13.5 -70t-38.5 -57q-11 -11 -25 -20.5t-26.5 -16t-21.5 -10.5t-11 -5l-40 59q11 4 24.5 10.5t25.5 16t20 22.5t9 30q-29 0 -51 17t-22 49zM113 64q0 13 5 26t15 23.5
t24.5 17t32.5 6.5q20 0 38.5 -7.5t31.5 -21.5q11 -13 17 -31t6 -38q0 -38 -13.5 -70t-38.5 -57q-11 -11 -25 -20.5t-26.5 -16t-21.5 -10.5t-11 -5l-40 59q11 4 24.5 10.5t25.5 16t20 22.5t9 30q-29 0 -51 17t-22 49z" />
    <glyph glyph-name="dagger" unicode="&#x2020;" 
d="M85 513h152v187h124v-187h153v-112h-153v-401l-16 -200h-92l-16 201v400h-152v112z" />
    <glyph glyph-name="daggerdbl" unicode="&#x2021;" 
d="M237 401h-152v112h152v187h124v-187h153v-112h-153v-144h153v-112h-153v-145l-17 -200h-90l-17 201v144h-152v112h152v144z" />
    <glyph glyph-name="bullet" unicode="&#x2022;" 
d="M147 311q0 34 12 62t33 48t48.5 31.5t58.5 11.5q32 0 60 -10.5t48.5 -30t32.5 -48t12 -64.5t-12 -64t-32.5 -47.5t-48.5 -30t-60 -10.5q-31 0 -58.5 10.5t-48.5 30t-33 47.5t-12 64z" />
    <glyph glyph-name="ellipsis" unicode="&#x2026;" 
d="M-52 66q0 35 22 55.5t58 20.5q38 0 60 -20.5t22 -55.5t-22 -56t-60 -21q-36 0 -58 21t-22 56zM219 66q0 35 22 55.5t58 20.5q38 0 60 -20.5t22 -55.5t-22 -56t-60 -21q-36 0 -58 21t-22 56zM491 66q0 35 22 55.5t58 20.5q38 0 60 -20.5t22 -55.5t-22 -56t-60 -21
q-36 0 -58 21t-22 56z" />
    <glyph glyph-name="perthousand" unicode="&#x2030;" 
d="M4 573q0 41 11.5 68t30 42.5t41.5 22t46 6.5t46 -6t41 -21.5t29.5 -42.5t11.5 -68q0 -39 -11.5 -65.5t-30 -42.5t-41.5 -23t-45 -7q-23 0 -46 6t-41.5 21t-30 41.5t-11.5 68.5zM97 572q0 -38 11 -54t25 -16t24.5 16t10.5 54q0 41 -9 57.5t-26 16.5t-26.5 -16.5
t-9.5 -57.5zM514 540l25 -60l-510 -213l-29 65zM47 137q0 41 11.5 68t30 42.5t41.5 22t46 6.5t46 -6t41 -21.5t29.5 -42.5t11.5 -68q0 -39 -11.5 -65.5t-30 -42.5t-41.5 -23t-45 -7q-23 0 -46 6t-41.5 21t-30 41.5t-11.5 68.5zM140 136q0 -38 11 -54t25 -16t24.5 16t10.5 54
q0 41 -9 57.5t-26 16.5t-26.5 -16.5t-9.5 -57.5zM339 137q0 41 11.5 68t30 42.5t41.5 22t46 6.5t46 -6t41 -21.5t29.5 -42.5t11.5 -68q0 -39 -11.5 -65.5t-30 -42.5t-41.5 -23t-45 -7q-23 0 -46 6t-41.5 21t-30 41.5t-11.5 68.5zM432 136q0 -38 11 -54t25 -16t24.5 16
t10.5 54q0 41 -9 57.5t-26 16.5t-26.5 -16.5t-9.5 -57.5z" />
    <glyph glyph-name="guilsinglleft" unicode="&#x2039;" 
d="M166 259l183 258l75 -62l-137 -195l147 -186l-77 -64z" />
    <glyph glyph-name="guilsinglright" unicode="&#x203a;" 
d="M243 10l-77 64l147 186l-137 195l75 62l183 -258z" />
    <glyph glyph-name="fraction" unicode="&#x2044;" 
d="M473 715l85 -50l-430 -679l-86 53z" />
    <glyph glyph-name="uni2081" unicode="&#x2081;" 
d="M165 0h97v164l10 46l-30 -32l-59 -39l-49 77l158 111h85v-327h88v-100h-300v100z" />
    <glyph glyph-name="uni2082" unicode="&#x2082;" 
d="M478 1v-101h-352v70q30 21 67 45.5t68.5 51t53 54t21.5 53.5q0 23 -17 37t-52 14q-39 0 -66 -14t-44 -25l-43 87q41 27 82.5 40.5t82.5 13.5q32 0 61 -6.5t55 -23.5t41 -42.5t15 -58.5q0 -32 -13 -60.5t-34 -53t-46.5 -45t-50.5 -36.5h171z" />
    <glyph glyph-name="uni2083" unicode="&#x2083;" 
d="M343 150q48 -5 82.5 -33t34.5 -82q0 -36 -16 -62.5t-43 -44t-61.5 -26.5t-70.5 -9q-39 0 -89 11.5t-100 51.5l43 86q42 -31 77 -42.5t66 -11.5q32 0 55.5 14t23.5 37t-19.5 35t-70.5 12h-38v53l88 86h-179v95h317v-70l-100 -100v0z" />
    <glyph glyph-name="uni2084" unicode="&#x2084;" 
d="M492 -22h-76v-78h-101v78h-219v67l224 275h96v-253h76v-89zM315 185l-96 -118h96v118z" />
    <glyph glyph-name="Euro" unicode="&#x20ac;" 
d="M56 475h61q15 64 43.5 109.5t67 74t84 42t94.5 13.5q52 0 92.5 -8t67.5 -19l-35 -103q-22 9 -51 13.5t-68 4.5q-60 0 -103.5 -30.5t-64.5 -96.5h259l-26 -93h-249q-1 -8 -1 -16v-16v-26h230l-26 -93h-189q20 -65 64 -99t116 -34q42 0 72.5 9t54.5 23l27 -101
q-15 -11 -36 -19.5t-44 -13.5t-47 -7.5t-46 -2.5q-110 0 -186 59t-101 186h-92l32 93h49v26v16t1 16h-82z" />
    <glyph glyph-name="uni20B4" unicode="&#x20b4;" 
d="M525 321v-93h-249q-14 -16 -24.5 -38t-10.5 -42q0 -26 22 -41.5t76 -15.5q53 0 84.5 9.5t53.5 21.5l29 -98q-25 -14 -70 -26t-127 -12q-94 0 -144 36t-50 108q0 32 12.5 59t20.5 39h-73v93h450zM75 378v93h250q15 15 26 37.5t11 44.5q0 56 -80 56q-40 0 -68.5 -8.5
t-52.5 -20.5l-37 98q16 8 32.5 14.5t36.5 11.5t47.5 7.5t66.5 2.5q88 0 134 -33t46 -101q0 -32 -12.5 -62t-27.5 -47h78v-93h-450z" />
    <glyph glyph-name="uni20B6" unicode="&#x20b6;" 
d="M38 364h79v329q42 8 87 12.5t95 4.5q52 0 100 -9t84 -33t57.5 -66t21.5 -108q0 -61 -21 -103t-56 -68.5t-80 -38t-94 -11.5h-68v-58h160v-91h-160v-124h-126v124h-79v91h79v58h-79v91zM243 367h52q27 0 51.5 6.5t42.5 20.5t28.5 37.5t10.5 56.5q0 61 -33 86.5t-85 25.5
q-20 0 -38 -1.5t-29 -3.5v-228z" />
    <glyph glyph-name="uni20B7" unicode="&#x20b7;" 
d="M38 364h79v329q42 8 87 12.5t95 4.5q52 0 100 -9t84 -33t57.5 -66t21.5 -108q0 -61 -21 -103t-56 -68.5t-80 -38t-94 -11.5h-68v-58h160v-91h-160v-124h-126v124h-79v91h79v58h-79v91zM243 367h52q27 0 51.5 6.5t42.5 20.5t28.5 37.5t10.5 56.5q0 61 -33 86.5t-85 25.5
q-20 0 -38 -1.5t-29 -3.5v-228z" />
    <glyph glyph-name="uni20B9" unicode="&#x20b9;" 
d="M38 364h79v329q42 8 87 12.5t95 4.5q52 0 100 -9t84 -33t57.5 -66t21.5 -108q0 -61 -21 -103t-56 -68.5t-80 -38t-94 -11.5h-68v-58h160v-91h-160v-124h-126v124h-79v91h79v58h-79v91zM243 367h52q27 0 51.5 6.5t42.5 20.5t28.5 37.5t10.5 56.5q0 61 -33 86.5t-85 25.5
q-20 0 -38 -1.5t-29 -3.5v-228z" />
    <glyph glyph-name="uni20BA" unicode="&#x20ba;" 
d="M38 364h79v329q42 8 87 12.5t95 4.5q52 0 100 -9t84 -33t57.5 -66t21.5 -108q0 -61 -21 -103t-56 -68.5t-80 -38t-94 -11.5h-68v-58h160v-91h-160v-124h-126v124h-79v91h79v58h-79v91zM243 367h52q27 0 51.5 6.5t42.5 20.5t28.5 37.5t10.5 56.5q0 61 -33 86.5t-85 25.5
q-20 0 -38 -1.5t-29 -3.5v-228z" />
    <glyph glyph-name="uni20BB" unicode="&#x20bb;" 
d="M38 364h79v329q42 8 87 12.5t95 4.5q52 0 100 -9t84 -33t57.5 -66t21.5 -108q0 -61 -21 -103t-56 -68.5t-80 -38t-94 -11.5h-68v-58h160v-91h-160v-124h-126v124h-79v91h79v58h-79v91zM243 367h52q27 0 51.5 6.5t42.5 20.5t28.5 37.5t10.5 56.5q0 61 -33 86.5t-85 25.5
q-20 0 -38 -1.5t-29 -3.5v-228z" />
    <glyph glyph-name="uni20BC" unicode="&#x20bc;" 
d="M38 364h79v329q42 8 87 12.5t95 4.5q52 0 100 -9t84 -33t57.5 -66t21.5 -108q0 -61 -21 -103t-56 -68.5t-80 -38t-94 -11.5h-68v-58h160v-91h-160v-124h-126v124h-79v91h79v58h-79v91zM243 367h52q27 0 51.5 6.5t42.5 20.5t28.5 37.5t10.5 56.5q0 61 -33 86.5t-85 25.5
q-20 0 -38 -1.5t-29 -3.5v-228z" />
    <glyph glyph-name="uni20BD" unicode="&#x20bd;" 
d="M38 364h79v329q42 8 87 12.5t95 4.5q52 0 100 -9t84 -33t57.5 -66t21.5 -108q0 -61 -21 -103t-56 -68.5t-80 -38t-94 -11.5h-68v-58h160v-91h-160v-124h-126v124h-79v91h79v58h-79v91zM243 367h52q27 0 51.5 6.5t42.5 20.5t28.5 37.5t10.5 56.5q0 61 -33 86.5t-85 25.5
q-20 0 -38 -1.5t-29 -3.5v-228z" />
    <glyph glyph-name="uni20BE" unicode="&#x20be;" 
d="M38 364h79v329q42 8 87 12.5t95 4.5q52 0 100 -9t84 -33t57.5 -66t21.5 -108q0 -61 -21 -103t-56 -68.5t-80 -38t-94 -11.5h-68v-58h160v-91h-160v-124h-126v124h-79v91h79v58h-79v91zM243 367h52q27 0 51.5 6.5t42.5 20.5t28.5 37.5t10.5 56.5q0 61 -33 86.5t-85 25.5
q-20 0 -38 -1.5t-29 -3.5v-228z" />
    <glyph glyph-name="uni20BF" unicode="&#x20bf;" 
d="M38 364h79v329q42 8 87 12.5t95 4.5q52 0 100 -9t84 -33t57.5 -66t21.5 -108q0 -61 -21 -103t-56 -68.5t-80 -38t-94 -11.5h-68v-58h160v-91h-160v-124h-126v124h-79v91h79v58h-79v91zM243 367h52q27 0 51.5 6.5t42.5 20.5t28.5 37.5t10.5 56.5q0 61 -33 86.5t-85 25.5
q-20 0 -38 -1.5t-29 -3.5v-228z" />
    <glyph glyph-name="uni20C0" unicode="&#x20c0;" 
d="M38 364h79v329q42 8 87 12.5t95 4.5q52 0 100 -9t84 -33t57.5 -66t21.5 -108q0 -61 -21 -103t-56 -68.5t-80 -38t-94 -11.5h-68v-58h160v-91h-160v-124h-126v124h-79v91h79v58h-79v91zM243 367h52q27 0 51.5 6.5t42.5 20.5t28.5 37.5t10.5 56.5q0 61 -33 86.5t-85 25.5
q-20 0 -38 -1.5t-29 -3.5v-228z" />
    <glyph glyph-name="uni20C1" unicode="&#x20c1;" 
d="M38 364h79v329q42 8 87 12.5t95 4.5q52 0 100 -9t84 -33t57.5 -66t21.5 -108q0 -61 -21 -103t-56 -68.5t-80 -38t-94 -11.5h-68v-58h160v-91h-160v-124h-126v124h-79v91h79v58h-79v91zM243 367h52q27 0 51.5 6.5t42.5 20.5t28.5 37.5t10.5 56.5q0 61 -33 86.5t-85 25.5
q-20 0 -38 -1.5t-29 -3.5v-228z" />
    <glyph glyph-name="uni20C2" unicode="&#x20c2;" 
d="M38 364h79v329q42 8 87 12.5t95 4.5q52 0 100 -9t84 -33t57.5 -66t21.5 -108q0 -61 -21 -103t-56 -68.5t-80 -38t-94 -11.5h-68v-58h160v-91h-160v-124h-126v124h-79v91h79v58h-79v91zM243 367h52q27 0 51.5 6.5t42.5 20.5t28.5 37.5t10.5 56.5q0 61 -33 86.5t-85 25.5
q-20 0 -38 -1.5t-29 -3.5v-228z" />
    <glyph glyph-name="uni20C3" unicode="&#x20c3;" 
d="M38 364h79v329q42 8 87 12.5t95 4.5q52 0 100 -9t84 -33t57.5 -66t21.5 -108q0 -61 -21 -103t-56 -68.5t-80 -38t-94 -11.5h-68v-58h160v-91h-160v-124h-126v124h-79v91h79v58h-79v91zM243 367h52q27 0 51.5 6.5t42.5 20.5t28.5 37.5t10.5 56.5q0 61 -33 86.5t-85 25.5
q-20 0 -38 -1.5t-29 -3.5v-228z" />
    <glyph glyph-name="uni20C4" unicode="&#x20c4;" 
d="M38 364h79v329q42 8 87 12.5t95 4.5q52 0 100 -9t84 -33t57.5 -66t21.5 -108q0 -61 -21 -103t-56 -68.5t-80 -38t-94 -11.5h-68v-58h160v-91h-160v-124h-126v124h-79v91h79v58h-79v91zM243 367h52q27 0 51.5 6.5t42.5 20.5t28.5 37.5t10.5 56.5q0 61 -33 86.5t-85 25.5
q-20 0 -38 -1.5t-29 -3.5v-228z" />
    <glyph glyph-name="uni20C5" unicode="&#x20c5;" 
d="M38 364h79v329q42 8 87 12.5t95 4.5q52 0 100 -9t84 -33t57.5 -66t21.5 -108q0 -61 -21 -103t-56 -68.5t-80 -38t-94 -11.5h-68v-58h160v-91h-160v-124h-126v124h-79v91h79v58h-79v91zM243 367h52q27 0 51.5 6.5t42.5 20.5t28.5 37.5t10.5 56.5q0 61 -33 86.5t-85 25.5
q-20 0 -38 -1.5t-29 -3.5v-228z" />
    <glyph glyph-name="uni20C6" unicode="&#x20c6;" 
d="M38 364h79v329q42 8 87 12.5t95 4.5q52 0 100 -9t84 -33t57.5 -66t21.5 -108q0 -61 -21 -103t-56 -68.5t-80 -38t-94 -11.5h-68v-58h160v-91h-160v-124h-126v124h-79v91h79v58h-79v91zM243 367h52q27 0 51.5 6.5t42.5 20.5t28.5 37.5t10.5 56.5q0 61 -33 86.5t-85 25.5
q-20 0 -38 -1.5t-29 -3.5v-228z" />
    <glyph glyph-name="uni20C7" unicode="&#x20c7;" 
d="M38 364h79v329q42 8 87 12.5t95 4.5q52 0 100 -9t84 -33t57.5 -66t21.5 -108q0 -61 -21 -103t-56 -68.5t-80 -38t-94 -11.5h-68v-58h160v-91h-160v-124h-126v124h-79v91h79v58h-79v91zM243 367h52q27 0 51.5 6.5t42.5 20.5t28.5 37.5t10.5 56.5q0 61 -33 86.5t-85 25.5
q-20 0 -38 -1.5t-29 -3.5v-228z" />
    <glyph glyph-name="uni20C8" unicode="&#x20c8;" 
d="M38 364h79v329q42 8 87 12.5t95 4.5q52 0 100 -9t84 -33t57.5 -66t21.5 -108q0 -61 -21 -103t-56 -68.5t-80 -38t-94 -11.5h-68v-58h160v-91h-160v-124h-126v124h-79v91h79v58h-79v91zM243 367h52q27 0 51.5 6.5t42.5 20.5t28.5 37.5t10.5 56.5q0 61 -33 86.5t-85 25.5
q-20 0 -38 -1.5t-29 -3.5v-228z" />
    <glyph glyph-name="uni20C9" unicode="&#x20c9;" 
d="M38 364h79v329q42 8 87 12.5t95 4.5q52 0 100 -9t84 -33t57.5 -66t21.5 -108q0 -61 -21 -103t-56 -68.5t-80 -38t-94 -11.5h-68v-58h160v-91h-160v-124h-126v124h-79v91h79v58h-79v91zM243 367h52q27 0 51.5 6.5t42.5 20.5t28.5 37.5t10.5 56.5q0 61 -33 86.5t-85 25.5
q-20 0 -38 -1.5t-29 -3.5v-228z" />
    <glyph glyph-name="uni20CA" unicode="&#x20ca;" 
d="M38 364h79v329q42 8 87 12.5t95 4.5q52 0 100 -9t84 -33t57.5 -66t21.5 -108q0 -61 -21 -103t-56 -68.5t-80 -38t-94 -11.5h-68v-58h160v-91h-160v-124h-126v124h-79v91h79v58h-79v91zM243 367h52q27 0 51.5 6.5t42.5 20.5t28.5 37.5t10.5 56.5q0 61 -33 86.5t-85 25.5
q-20 0 -38 -1.5t-29 -3.5v-228z" />
    <glyph glyph-name="uni20CB" unicode="&#x20cb;" 
d="M38 364h79v329q42 8 87 12.5t95 4.5q52 0 100 -9t84 -33t57.5 -66t21.5 -108q0 -61 -21 -103t-56 -68.5t-80 -38t-94 -11.5h-68v-58h160v-91h-160v-124h-126v124h-79v91h79v58h-79v91zM243 367h52q27 0 51.5 6.5t42.5 20.5t28.5 37.5t10.5 56.5q0 61 -33 86.5t-85 25.5
q-20 0 -38 -1.5t-29 -3.5v-228z" />
    <glyph glyph-name="uni20CC" unicode="&#x20cc;" 
d="M38 364h79v329q42 8 87 12.5t95 4.5q52 0 100 -9t84 -33t57.5 -66t21.5 -108q0 -61 -21 -103t-56 -68.5t-80 -38t-94 -11.5h-68v-58h160v-91h-160v-124h-126v124h-79v91h79v58h-79v91zM243 367h52q27 0 51.5 6.5t42.5 20.5t28.5 37.5t10.5 56.5q0 61 -33 86.5t-85 25.5
q-20 0 -38 -1.5t-29 -3.5v-228z" />
    <glyph glyph-name="uni20CD" unicode="&#x20cd;" 
d="M38 364h79v329q42 8 87 12.5t95 4.5q52 0 100 -9t84 -33t57.5 -66t21.5 -108q0 -61 -21 -103t-56 -68.5t-80 -38t-94 -11.5h-68v-58h160v-91h-160v-124h-126v124h-79v91h79v58h-79v91zM243 367h52q27 0 51.5 6.5t42.5 20.5t28.5 37.5t10.5 56.5q0 61 -33 86.5t-85 25.5
q-20 0 -38 -1.5t-29 -3.5v-228z" />
    <glyph glyph-name="uni20CE" unicode="&#x20ce;" 
d="M38 364h79v329q42 8 87 12.5t95 4.5q52 0 100 -9t84 -33t57.5 -66t21.5 -108q0 -61 -21 -103t-56 -68.5t-80 -38t-94 -11.5h-68v-58h160v-91h-160v-124h-126v124h-79v91h79v58h-79v91zM243 367h52q27 0 51.5 6.5t42.5 20.5t28.5 37.5t10.5 56.5q0 61 -33 86.5t-85 25.5
q-20 0 -38 -1.5t-29 -3.5v-228z" />
    <glyph glyph-name="uni20CF" unicode="&#x20cf;" 
d="M38 364h79v329q42 8 87 12.5t95 4.5q52 0 100 -9t84 -33t57.5 -66t21.5 -108q0 -61 -21 -103t-56 -68.5t-80 -38t-94 -11.5h-68v-58h160v-91h-160v-124h-126v124h-79v91h79v58h-79v91zM243 367h52q27 0 51.5 6.5t42.5 20.5t28.5 37.5t10.5 56.5q0 61 -33 86.5t-85 25.5
q-20 0 -38 -1.5t-29 -3.5v-228z" />
    <glyph glyph-name="afii61289" unicode="&#x2113;" 
d="M466 30q-22 -14 -57.5 -28t-70.5 -14q-63 0 -91.5 30.5t-28.5 95.5v104l-50 -44l-35 44l85 74v254q0 44 10 75.5t27.5 51.5t41 29.5t50.5 9.5q48 0 79 -29.5t31 -89.5q0 -74 -40 -157t-131 -171v-140q0 -44 17 -60.5t41 -16.5q25 0 55 10.5t50 21.5zM393 588q0 34 -14 49
t-32 15q-12 0 -23 -3.5t-19.5 -14t-13.5 -29t-5 -48.5v-212q56 65 81.5 125.5t25.5 117.5z" />
    <glyph glyph-name="afii61352" unicode="&#x2116;" 
d="M352 0h-128l-105 358h-7l7 -74v-284h-109v700h114l119 -418h7l-7 73v345h109v-700zM368 542q0 92 31.5 131t80.5 39q25 0 45.5 -8.5t35 -28t22.5 -52.5t8 -81t-9 -80.5t-25 -52.5t-36.5 -28.5t-42.5 -8.5q-23 0 -43 8.5t-35 28.5t-23.5 52.5t-8.5 80.5zM380 339h200v-103
h-200v103zM456 542q0 -48 3.5 -68t19.5 -20q17 0 20.5 19t3.5 69q0 48 -4 68t-20 20t-19.5 -19t-3.5 -69z" />
    <glyph glyph-name="trademark" unicode="&#x2122;" 
d="M259 597h-69v-257h-111v257h-69v103h249v-103zM491 484l5 63h-5l-50 -112h-18l-52 112h-4l9 -62v-145h-94v360h110l44 -115l39 115h110v-360h-94v144z" />
    <glyph glyph-name="estimated" unicode="&#x212e;" 
d="M154 259v-181q62 -59 145 -59q124 0 193 120l35 -21q-43 -66 -99 -100.5t-129 -34.5q-59 0 -107 21.5t-81.5 58.5t-51.5 87.5t-18 108.5q0 59 18.5 109.5t52.5 87.5t81.5 58t105.5 21q62 0 109.5 -22t80.5 -59.5t50 -87.5t19 -107h-404zM445 295v145q-63 60 -147 60
q-86 0 -144 -60v-145h291z" />
    <glyph glyph-name="arrowleft" unicode="&#x2190;" 
d="M132 277h24q-19 -37 -28 -52t-34 -45h505v-33h-505q33 -34 63 -97h-25q-40 45 -70 69t-61 38v15q57 24 131 105z" />
    <glyph glyph-name="arrowup" unicode="&#x2191;" 
d="M186 293q81 75 106 131h14q15 -31 38.5 -61t69.5 -70v-25q-64 30 -98 63v-467h-32v467q-30 -24 -45 -33.5t-53 -28.5v24z" />
    <glyph glyph-name="arrowright" unicode="&#x2192;" 
d="M468 277q74 -81 131 -105v-15q-32 -14 -61.5 -38t-69.5 -69h-25q30 63 63 97h-505v33h505q-24 29 -33.5 44.5t-28.5 52.5h24z" />
    <glyph glyph-name="arrowdown" unicode="&#x2193;" 
d="M186 -5v24q38 -19 53 -28.5t45 -33.5v467h32v-466q34 32 98 62v-25q-46 -40 -69.5 -69.5t-38.5 -61.5h-14q-25 58 -106 131z" />
    <glyph glyph-name="arrowboth" unicode="&#x2194;" 
d="M599 171v-14q-29 -14 -58.5 -37t-70.5 -70h-25q22 54 61 98h-413q40 -44 62 -98h-26q-41 47 -70 70t-58 37v14q30 14 58 36.5t70 70.5h26q-22 -55 -62 -99h413q-39 44 -61 99h25q43 -48 71 -70.5t58 -36.5z" />
    <glyph glyph-name="arrowupdn" unicode="&#x2195;" 
d="M292 463h15q27 -60 107 -129v-25q-54 22 -99 62v-413q44 39 99 61v-25q-79 -69 -107 -129h-15q-13 30 -36.5 59t-69.5 70v25q55 -22 98 -61v413q-44 -40 -98 -62v25q47 41 70 70t36 59z" />
    <glyph glyph-name="arrowupdnbse" unicode="&#x21a8;" 
d="M292 463h15q27 -60 107 -129v-25q-54 22 -99 62v-413q44 39 99 61v-25q-79 -69 -107 -129h-15q-13 30 -36.5 59t-69.5 70v25q55 -22 98 -61v413q-44 -40 -98 -62v25q47 41 70 70t36 59zM187 -166h227v-30h-227v30z" />
    <glyph glyph-name="partialdiff" unicode="&#x2202;" 
d="M310 503q21 0 36 -2t26 -5.5t20 -8t17 -9.5h5q-5 39 -25 65t-48.5 42t-62.5 22.5t-68 6.5h-14.5t-13.5 -1l22 101q8 1 16.5 1h16.5q66 0 123 -15t98.5 -50t65.5 -94t24 -146q0 -112 -21.5 -192t-59.5 -131.5t-90.5 -76t-114.5 -24.5q-99 0 -154.5 54.5t-55.5 148.5
q0 57 15.5 113t47 101t80.5 72.5t115 27.5zM318 393q-57 0 -94.5 -53t-37.5 -146q0 -41 21.5 -69.5t65.5 -28.5q41 0 68 23t43.5 60t23 84t6.5 94q-18 17 -40 26.5t-56 9.5z" />
    <glyph glyph-name="product" unicode="&#x220f;" 
d="M436 578h-266v-778h-137v900h533v-900h-130v778z" />
    <glyph glyph-name="summation" unicode="&#x2211;" 
d="M191 -78h349v-122h-481v122l205 328l-205 328v122h481v-122h-329l199 -322z" />
    <glyph glyph-name="minus" unicode="&#x2212;" 
d="M59 394h482v-112h-482v112z" />
    <glyph glyph-name="uni2215" unicode="&#x2215;" 
d="M473 715l85 -50l-430 -679l-86 53z" />
    <glyph glyph-name="radical" unicode="&#x221a;" 
d="M212 475l101 -244h4l138 469h125l-230 -705h-67l-151 370h-112v110h192z" />
    <glyph glyph-name="infinity" unicode="&#x221e;" 
d="M292 264q-25 -58 -60 -85.5t-78 -27.5q-25 0 -47.5 13.5t-40 38.5t-28 61t-10.5 82q0 48 10.5 85t28.5 63t42.5 39.5t52.5 13.5q51 0 85 -29t60 -74q30 55 65.5 79t77.5 24q25 0 47.5 -13t39 -38t26 -61t9.5 -82q0 -96 -39.5 -149t-99.5 -53q-50 0 -83.5 33t-57.5 80z
M427 260q24 0 38.5 26t14.5 64q0 16 -3 31.5t-9.5 28t-16.5 20.5t-25 8q-47 0 -88 -75q7 -20 17 -38.5t21.5 -33t24.5 -23t26 -8.5zM173 438q-23 0 -38 -26.5t-15 -64.5t16 -62.5t42 -24.5q21 0 44 23t40 55q-16 43 -38 71.5t-51 28.5z" />
    <glyph glyph-name="orthogonal" unicode="&#x221f;" 
d="M1 597h126v-471h472v-126h-598v597z" />
    <glyph glyph-name="intersection" unicode="&#x2229;" 
d="M85 485q0 86 60 151q61 66 155 66q92 0 154 -65q61 -64 61 -152v-485h-126v475q0 42 -24.5 71.5t-64.5 29.5q-39 0 -64 -27.5t-25 -73.5v-475h-126v485z" />
    <glyph glyph-name="union" unicode="&#x222a;" 
d="M85 217.029q0 -85.9941 60 -150.99q61 -65.9961 155 -65.9961q92 0 154 64.9961q61 63.9961 61 151.99v484.971h-126v-474.971q0 -41.998 -24.5 -71.4961t-64.5 -29.498q-39 0 -64 27.498q-25 27.499 -25 73.4961v474.971h-126v-484.971z" />
    <glyph glyph-name="integral" unicode="&#x222b;" 
d="M368 -34q0 -96 -39 -135t-117 -39q-46 0 -87.5 7t-65.5 17l29 103q44 -17 84 -17q38 0 52 23t14 78v535q0 96 36.5 136t117.5 40q18 0 38.5 -2t40.5 -5.5t38 -8t31 -9.5l-22 -102q-23 8 -42.5 12.5t-46.5 4.5q-35 0 -48 -20.5t-13 -74.5v-543z" />
    <glyph glyph-name="approxequal" unicode="&#x2248;" 
d="M64 473q47 38 84.5 52.5t69.5 14.5q29 0 54 -8.5t48 -18t45.5 -18t45.5 -8.5q18 0 37 6t40 23l47 -103q-36 -27 -66 -38t-56 -11q-28 0 -52 9t-46.5 20t-45.5 20t-49 9q-24 0 -51.5 -10.5t-60.5 -38.5zM64 280q47 38 84.5 52.5t69.5 14.5q29 0 54 -8.5t48 -18t45.5 -18
t45.5 -8.5q18 0 37 6t40 23l47 -103q-36 -27 -66 -38t-56 -11q-28 0 -52 9t-46.5 20t-45.5 20t-49 9q-24 0 -51.5 -10.5t-60.5 -38.5z" />
    <glyph glyph-name="notequal" unicode="&#x2260;" 
d="M79 490h232l50 113h113l-50 -113h97v-112h-147l-36 -80h183v-112h-232l-57 -129h-112l57 129h-98v112h147l36 80h-183v112z" />
    <glyph glyph-name="equivalence" unicode="&#x2261;" 
d="M531 468h-462v126h462v-126zM531 272h-462v126h462v-126zM531 76h-462v126h462v-126z" />
    <glyph glyph-name="lessequal" unicode="&#x2264;" 
d="M524 80l-56 -96l-382 215l56 96zM75 413v70l386 231l57 -90l-284 -173l289 -169l-57 -90z" />
    <glyph glyph-name="greaterequal" unicode="&#x2265;" 
d="M524 205l-381 -221l-56 95l380 222zM524 483v-70l-386 -231l-57 90l285 174l-290 168l57 90z" />
    <glyph glyph-name="house" unicode="&#x2302;" 
d="M552 0h-504v359l251 221l253 -221v-359zM174 126h252v183l-127 104l-125 -104v-183z" />
    <glyph glyph-name="revlogicalnot" unicode="&#x2310;" 
d="M521 300h-322v-114h-120v226h442v-112z" />
    <glyph glyph-name="integraltp" unicode="&#x2320;" 
d="M336 -235h-72v904q0 96 40.5 156t103.5 60q30 0 48.5 -15.5t18.5 -38.5q0 -19 -12.5 -32t-30.5 -13q-15 0 -28 8l-19 21q-17 19 -24 19q-18 0 -22 -19q-3 -16 -3 -68v-982z" />
    <glyph glyph-name="integralbt" unicode="&#x2321;" 
d="M263.021 884.985h71.9951v-903.944q0 -95.9941 -40.4971 -155.99q-40.4971 -59.9971 -103.493 -59.9971q-29.999 0 -48.4971 15.499q-18.499 15.499 -18.499 38.498q0 18.999 12.499 31.998t30.498 12.999q14.999 0 27.998 -7.99902l18.999 -20.999
q16.999 -18.999 23.999 -18.999q17.998 0 21.998 18.999q3 15.999 3 67.9961v981.939z" />
    <glyph glyph-name="SF100000" unicode="&#x2500;" 
d="M0 304v76h600v-76h-600z" />
    <glyph glyph-name="SF110000" unicode="&#x2502;" 
d="M262 -235v1120h76v-1120h-76z" />
    <glyph glyph-name="SF010000" unicode="&#x250c;" 
d="M262 -235v615h338v-76h-262v-539h-76z" />
    <glyph glyph-name="SF030000" unicode="&#x2510;" 
d="M262 -235v539h-262v76h338v-615h-76z" />
    <glyph glyph-name="SF020000" unicode="&#x2514;" 
d="M262 305v580h76v-504h262v-76h-338z" />
    <glyph glyph-name="SF040000" unicode="&#x2518;" 
d="M0 305v76h262v504h76v-580h-338z" />
    <glyph glyph-name="SF080000" unicode="&#x251c;" 
d="M262 -235v1120h76v-505h262v-76h-262v-539h-76z" />
    <glyph glyph-name="SF090000" unicode="&#x2524;" 
d="M262 -235v539h-262v76h262v505h76v-1120h-76z" />
    <glyph glyph-name="SF060000" unicode="&#x252c;" 
d="M262 -235v539h-262v76h600v-76h-262v-539h-76z" />
    <glyph glyph-name="SF070000" unicode="&#x2534;" 
d="M0 304v76h262v505h76v-505h262v-76h-600z" />
    <glyph glyph-name="SF050000" unicode="&#x253c;" 
d="M262 -235v539h-262v76h262v505h76v-505h262v-76h-262v-539h-76z" />
    <glyph glyph-name="SF430000" unicode="&#x2550;" 
d="M0 304h600v-76h-600v76zM0 380v76h600v-76h-600z" />
    <glyph glyph-name="SF240000" unicode="&#x2551;" 
d="M262 -235h-76v1120h76v-1120zM338 885h76v-1120h-76v1120z" />
    <glyph glyph-name="SF510000" unicode="&#x2552;" 
d="M262 -235v691h338v-76h-262v-76h262v-76h-262v-463h-76z" />
    <glyph glyph-name="SF520000" unicode="&#x2553;" 
d="M262 -235h-76v615h414v-76h-186v-539h-76v539h-76v-539z" />
    <glyph glyph-name="SF390000" unicode="&#x2554;" 
d="M262 -235h-76v691h414v-76h-338v-615zM338 -235v539h262v-76h-186v-463h-76z" />
    <glyph glyph-name="SF220000" unicode="&#x2555;" 
d="M262 -235v463h-262v76h262v76h-262v76h338v-691h-76z" />
    <glyph glyph-name="SF210000" unicode="&#x2556;" 
d="M262 -235h-76v539h-186v76h414v-615h-76v539h-76v-539z" />
    <glyph glyph-name="SF250000" unicode="&#x2557;" 
d="M262 -235h-76v463h-186v76h262v-539zM338 -235v615h-338v76h414v-691h-76z" />
    <glyph glyph-name="SF500000" unicode="&#x2558;" 
d="M262 228v657h76v-429h262v-76h-262v-76h262v-76h-338z" />
    <glyph glyph-name="SF490000" unicode="&#x2559;" 
d="M186 304v581h76v-505h76v505h76v-505h186v-76h-414z" />
    <glyph glyph-name="SF380000" unicode="&#x255a;" 
d="M186 228v657h76v-581h338v-76h-414zM600 380h-262v505h76v-429h186v-76z" />
    <glyph glyph-name="SF280000" unicode="&#x255b;" 
d="M0 304h262v76h-262v76h262v429h76v-657h-338v76z" />
    <glyph glyph-name="SF270000" unicode="&#x255c;" 
d="M0 304v76h186v505h76v-505h76v505h76v-581h-414z" />
    <glyph glyph-name="SF260000" unicode="&#x255d;" 
d="M0 304h338v581h76v-657h-414v76zM0 380v76h186v429h76v-505h-262z" />
    <glyph glyph-name="SF360000" unicode="&#x255e;" 
d="M262 -235v1120h76v-428h262v-76h-262v-76h262v-76h-262v-464h-76z" />
    <glyph glyph-name="SF370000" unicode="&#x255f;" 
d="M186 -235v1120h76v-1120h-76zM338 -235v1120h76v-505h186v-76h-186v-539h-76z" />
    <glyph glyph-name="SF420000" unicode="&#x2560;" 
d="M186 -235v1120h76v-1120h-76zM338 -235v539h262v-76h-186v-463h-76zM338 380v505h76v-429h186v-76h-262z" />
    <glyph glyph-name="SF190000" unicode="&#x2561;" 
d="M262 -235v463h-262v76h262v76h-262v76h262v429h76v-1120h-76z" />
    <glyph glyph-name="SF200000" unicode="&#x2562;" 
d="M186 -235v539h-186v76h186v505h76v-1120h-76zM338 -235v1120h76v-1120h-76z" />
    <glyph glyph-name="SF230000" unicode="&#x2563;" 
d="M186 -235v463h-186v76h262v-539h-76zM338 -235v1120h76v-1120h-76zM0 380v76h186v429h76v-504z" />
    <glyph glyph-name="SF470000" unicode="&#x2564;" 
d="M0 304h600v-76h-262v-463h-76v463h-262v76zM0 380v76h600v-76h-600z" />
    <glyph glyph-name="SF480000" unicode="&#x2565;" 
d="M0 304v76h600v-76h-186v-539h-76v539h-76v-539h-76v539h-186z" />
    <glyph glyph-name="SF410000" unicode="&#x2566;" 
d="M0 304h262v-539h-76v463h-186v76zM0 380v76h600v-76h-600zM600 304v-76h-186v-463h-76v539h262z" />
    <glyph glyph-name="SF450000" unicode="&#x2567;" 
d="M0 304h600v-76h-600v76zM0 380v76h262v429h76v-429h262v-76h-600z" />
    <glyph glyph-name="SF460000" unicode="&#x2568;" 
d="M0 304v76h186v505h76v-505h76v505h76v-505h186v-76h-600z" />
    <glyph glyph-name="SF400000" unicode="&#x2569;" 
d="M0 304h600v-76h-600v76zM0 380v76h186v429h76v-505h-262zM338 380v505h76v-429h186v-76h-262z" />
    <glyph glyph-name="SF540000" unicode="&#x256a;" 
d="M0 304h262v76h-262v76h262v429h76v-429h262v-76h-262v-76h262v-76h-262v-463h-76v463h-262v76z" />
    <glyph glyph-name="SF530000" unicode="&#x256b;" 
d="M0 304v76h186v505h76v-505h76v505h76v-505h186v-76h-186v-539h-76v539h-76v-539h-76v539h-186z" />
    <glyph glyph-name="SF440000" unicode="&#x256c;" 
d="M0 304h262v-539h-76v463h-186v76zM0 380v76h186v429h76v-505h-262zM338 380v505h76v-429h186v-76h-262zM600 304v-76h-186v-463h-76v539h262z" />
    <glyph glyph-name="upblock" unicode="&#x2580;" 
d="M0 343v542h600v-542h-600z" />
    <glyph glyph-name="dnblock" unicode="&#x2584;" 
d="M0 -235v578h600v-578h-600z" />
    <glyph glyph-name="block" unicode="&#x2588;" 
d="M0 -235v1120h600v-1120h-600z" />
    <glyph glyph-name="lfblock" unicode="&#x258c;" 
d="M0 -235v1120h300v-1120h-300z" />
    <glyph glyph-name="rtblock" unicode="&#x2590;" 
d="M600 -235h-300v1120h300v-1120z" />
    <glyph glyph-name="ltshade" unicode="&#x2591;" 
d="M50 701h50v-47h-50v47zM250 701h50v-47h-50v47zM450 701h50v-47h-50v47zM150 608h50v-47h-50v47zM350 608h50v-47h-50v47zM550 608h50v-47h-50v47zM450 516h50v-47h-50v47zM250 516h50v-47h-50v47zM50 516h50v-47h-50v47zM550 424h50v-48h-50v48zM350 424h50v-48h-50v48z
M150 424h50v-48h-50v48zM50 331h50v-47h-50v47zM250 331h50v-47h-50v47zM450 331h50v-47h-50v47zM550 239h50v-47h-50v47zM350 239h50v-47h-50v47zM150 239h50v-47h-50v47zM50 147h50v-48h-50v48zM250 147h50v-48h-50v48zM450 147h50v-48h-50v48zM150 54h50v-47h-50v47z
M350 54h50v-47h-50v47zM550 54h50v-47h-50v47zM450 -38h50v-48h-50v48zM250 -38h50v-48h-50v48zM50 -38h50v-48h-50v48zM150 -131h50v-47h-50v47zM350 -131h50v-47h-50v47zM550 -131h50v-47h-50v47zM150 793h50v-47h-50v47zM350 793h50v-47h-50v47zM550 793h50v-47h-50v47z
M50 885h50v-46h-50v46zM250 885h50v-46h-50v46zM450 885h50v-46h-50v46z" />
    <glyph glyph-name="shade" unicode="&#x2592;" 
d="M50 701h50v-47h-50v47zM150 701h50v-47h-50v47zM250 701h50v-47h-50v47zM350 701h50v-47h-50v47zM450 701h50v-47h-50v47zM550 701h50v-47h-50v47zM0 608h50v-47h-50v47zM100 608h50v-47h-50v47zM200 608h50v-47h-50v47zM300 608h50v-47h-50v47zM400 608h50v-47h-50v47z
M500 608h50v-47h-50v47zM50 516h50v-47h-50v47zM150 516h50v-47h-50v47zM250 516h50v-47h-50v47zM350 516h50v-47h-50v47zM450 516h50v-47h-50v47zM550 516h50v-47h-50v47zM0 424h50v-48h-50v48zM100 424h50v-48h-50v48zM200 424h50v-48h-50v48zM300 424h50v-48h-50v48z
M400 424h50v-48h-50v48zM500 424h50v-48h-50v48zM50 331h50v-47h-50v47zM150 331h50v-47h-50v47zM250 331h50v-47h-50v47zM350 331h50v-47h-50v47zM450 331h50v-47h-50v47zM550 331h50v-47h-50v47zM0 239h50v-47h-50v47zM200 239h50v-47h-50v47zM300 239h50v-47h-50v47z
M400 239h50v-47h-50v47zM500 239h50v-47h-50v47zM100 239h50v-47h-50v47zM550 147h50v-48h-50v48zM450 147h50v-48h-50v48zM350 147h50v-48h-50v48zM250 147h50v-48h-50v48zM150 147h50v-48h-50v48zM50 147h50v-48h-50v48zM0 54h50v-47h-50v47zM100 54h50v-47h-50v47z
M200 54h50v-47h-50v47zM300 54h50v-47h-50v47zM400 54h50v-47h-50v47zM500 54h50v-47h-50v47zM550 -38h50v-48h-50v48zM450 -38h50v-48h-50v48zM350 -38h50v-48h-50v48zM250 -38h50v-48h-50v48zM150 -38h50v-48h-50v48zM50 -38h50v-48h-50v48zM0 -131h50v-47h-50v47z
M100 -131h50v-47h-50v47zM200 -131h50v-47h-50v47zM300 -131h50v-47h-50v47zM400 -131h50v-47h-50v47zM500 -131h50v-47h-50v47zM0 793h50v-47h-50v47zM100 793h50v-47h-50v47zM200 793h50v-47h-50v47zM300 793h50v-47h-50v47zM400 793h50v-47h-50v47zM500 793h50v-47h-50
v47zM50 885h50v-46h-50v46zM150 885h50v-46h-50v46zM250 885h50v-46h-50v46zM350 885h50v-46h-50v46zM450 885h50v-46h-50v46zM550 885h50v-46h-50v46z" />
    <glyph glyph-name="dkshade" unicode="&#x2593;" 
d="M550 793h50v-138h-50v-47h50v-138h-50v-47h50v-138h-50v-47h50v-137h-50v-48h50v-137h-50v-48h50v-103h-600v11h50v47h-50v138h50v47h-50v138h50v47h-50v137h50v48h-50v137h50v47h-50v138h50v47h-50v138h600v-46h-50v-46zM100 330h50v48h-50v-48zM200 330h50v48h-50v-48z
M450 53h50v48h-50v-48zM350 53h50v48h-50v-48zM250 53h50v48h-50v-48zM150 53h50v48h-50v-48zM300 330h50v48h-50v-48zM50 53h50v48h-50v-48zM400 330h50v48h-50v-48zM500 330h50v48h-50v-48zM450 -132h50v48h-50v-48zM350 -132h50v48h-50v-48zM250 -132h50v48h-50v-48z
M150 -132h50v48h-50v-48zM50 -132h50v48h-50v-48zM500 -224h50v47h-50v-47zM400 -224h50v47h-50v-47zM300 -224h50v47h-50v-47zM200 -224h50v47h-50v-47zM100 -224h50v47h-50v-47zM300 700h50v47h-50v-47zM500 515h50v47h-50v-47zM100 146h50v47h-50v-47zM500 -39h50v47h-50
v-47zM300 -39h50v47h-50v-47zM200 -39h50v47h-50v-47zM100 -39h50v47h-50v-47zM300 515h50v47h-50v-47zM350 608h50v47h-50v-47zM200 515h50v47h-50v-47zM100 515h50v47h-50v-47zM500 146h50v47h-50v-47zM400 146h50v47h-50v-47zM300 146h50v47h-50v-47zM200 146h50v47h-50
v-47zM450 238h50v47h-50v-47zM350 238h50v47h-50v-47zM250 238h50v47h-50v-47zM150 238h50v47h-50v-47zM50 238h50v47h-50v-47zM450 608h50v47h-50v-47zM400 -39h50v47h-50v-47zM350 423h50v47h-50v-47zM450 423h50v47h-50v-47zM150 608h50v47h-50v-47zM400 700h50v47h-50
v-47zM50 608h50v47h-50v-47zM250 423h50v47h-50v-47zM150 423h50v47h-50v-47zM50 423h50v47h-50v-47zM400 515h50v47h-50v-47zM500 700h50v47h-50v-47zM100 700h50v47h-50v-47zM250 608h50v47h-50v-47zM200 700h50v47h-50v-47zM50 793h50v46h-50v-46zM450 793h50v46h-50v-46
zM150 793h50v46h-50v-46zM350 793h50v46h-50v-46zM250 793h50v46h-50v-46z" />
    <glyph glyph-name="filledbox" unicode="&#x25a0;" 
d="M1 598h598v-598h-598v598z" />
    <glyph glyph-name="H22073" unicode="&#x25a1;" 
d="M1 598h598v-598h-598v598zM38 561v-524h524v524h-524z" />
    <glyph glyph-name="H18543" unicode="&#x25aa;" 
d="M424 187h-248v248h248v-248z" />
    <glyph glyph-name="H18551" unicode="&#x25ab;" 
d="M424 187h-248v248h248v-248zM387 224v174h-174v-174h174z" />
    <glyph glyph-name="filledrect" unicode="&#x25ac;" 
d="M1 306h598v-113h-598v113z" />
    <glyph glyph-name="triagup" unicode="&#x25b2;" 
d="M7 0l293 585l292 -585h-585z" />
    <glyph glyph-name="triagrt" unicode="&#x25ba;" 
d="M1 584l598 -298l-598 -299v597z" />
    <glyph glyph-name="triagdn" unicode="&#x25bc;" 
d="M592 572l-292 -585l-293 585h585z" />
    <glyph glyph-name="triaglf" unicode="&#x25c4;" 
d="M599 584v-597l-598 299z" />
    </font>
</defs>
</svg>
