<?xml version="1.0" encoding="UTF-8"?>
<svg width="90px" height="90px" viewBox="0 0 90 90" version="1.1" xmlns="http://www.w3.org/2000/svg" xmlns:xlink="http://www.w3.org/1999/xlink">
    <!-- Generator: Sketch 46.2 (44496) - http://www.bohemiancoding.com/sketch -->
    <title>Corner pattern</title>
    <desc>Created with Sketch.</desc>
    <defs></defs>
    <g id="Page-1" stroke="none" stroke-width="1" fill="none" fill-rule="evenodd">
        <g id="Website" transform="translate(-1160.000000, -680.000000)" fill="#343434">
            <g id="Corner-pattern" transform="translate(1160.000000, 680.000000)">
                <rect id="Rectangle-2" x="80" y="80" width="10" height="10"></rect>
                <rect id="Rectangle-2-Copy" x="60" y="80" width="10" height="10"></rect>
                <rect id="Rectangle-2-Copy-2" x="40" y="80" width="10" height="10"></rect>
                <rect id="Rectangle-2-Copy-3" x="20" y="80" width="10" height="10"></rect>
                <rect id="Rectangle-2-Copy-5" x="20" y="60" width="10" height="10"></rect>
                <rect id="Rectangle-2-Copy-6" x="40" y="60" width="10" height="10"></rect>
                <rect id="Rectangle-2-Copy-7" x="60" y="60" width="10" height="10"></rect>
                <rect id="Rectangle-2-Copy-12" x="40" y="40" width="10" height="10"></rect>
                <rect id="Rectangle-2-Copy-8" x="80" y="60" width="10" height="10"></rect>
                <rect id="Rectangle-2-Copy-9" x="80" y="40" width="10" height="10"></rect>
                <rect id="Rectangle-2-Copy-11" x="80" y="20" width="10" height="10"></rect>
                <rect id="Rectangle-2-Copy-10" x="60" y="40" width="10" height="10"></rect>
                <rect id="Rectangle-2-Copy-13" x="60" y="20" width="10" height="10"></rect>
                <rect id="Rectangle-2-Copy-14" x="80" y="0" width="10" height="10"></rect>
                <rect id="Rectangle-2-Copy-4" x="0" y="80" width="10" height="10"></rect>
            </g>
        </g>
    </g>
</svg>