<?xml version="1.0" encoding="UTF-8" standalone="no"?>
<svg width="32px" height="20px" viewBox="0 0 32 20" version="1.1" xmlns="http://www.w3.org/2000/svg" xmlns:xlink="http://www.w3.org/1999/xlink">
    <!-- Generator: Sketch 3.6.1 (26313) - http://www.bohemiancoding.com/sketch -->
    <title>symbols</title>
    <desc>Created with Sketch.</desc>
    <defs></defs>
    <g id="Page-1" stroke="none" stroke-width="1" fill="none" fill-rule="evenodd">
        <g id="Artboard-1" transform="translate(-1323.000000, -474.000000)" fill="#FFFFFF">
            <g id="Sidebar" transform="translate(1279.000000, 0.000000)">
                <g id="Icons" transform="translate(44.000000, 261.000000)">
                    <g id="symbols" transform="translate(0.000000, 213.000000)">
                        <g id="Capa_1">
                            <path d="M28.8425248,2.83055218 L20.8399776,2.83055218 L20.8399776,0.842779835 L28.8431931,0.842779835 L28.8431931,2.83055218 L28.8425248,2.83055218 L28.8425248,2.83055218 Z M15.5124952,10.9817554 C16.0288557,11.7815423 16.2868874,12.7526326 16.2868874,13.8927244 C16.2868874,15.0717251 15.9959613,16.1293952 15.4040848,17.0636556 C15.0275441,17.6818922 14.5600426,18.2041187 13.9983132,18.6245433 C13.3656714,19.1107567 12.616674,19.444156 11.7556278,19.6222907 C10.8918341,19.8007224 9.95690541,19.8908664 8.94980207,19.8908664 L0,19.8908664 L0,0.0183406713 L9.59729459,0.0183406713 C12.0164069,0.0576951481 13.7314453,0.758576105 14.7441919,2.1350175 C15.3518844,2.97920815 15.6529833,3.99217754 15.6529833,5.16961893 C15.6529833,6.38455846 15.348246,7.35668829 14.7346132,8.09529014 C14.3932688,8.5094032 13.8890117,8.88609237 13.2214706,9.2261002 C14.2325837,9.59625504 14.9997732,10.1791468 15.5124952,10.9817554 L15.5124952,10.9817554 Z M4.58308872,7.85307448 L8.78822595,7.85307448 C9.65239086,7.85307448 10.35097,7.68882523 10.8890125,7.36047523 C11.4266837,7.03264501 11.6949625,6.44990174 11.6949625,5.61321071 C11.6949625,4.68882603 11.3397326,4.07526746 10.6275651,3.77996038 C10.0154173,3.57479732 9.232189,3.46913426 8.28181551,3.46913426 L4.58308872,3.46913426 L4.58308872,7.85307448 L4.58308872,7.85307448 Z M12.0998681,13.6088524 C12.0998681,12.576577 11.6779584,11.8629244 10.8358468,11.4799979 C10.3649297,11.2623602 9.70050728,11.1511281 8.84859423,11.143183 L4.58308872,11.143183 L4.58308872,16.4391075 L8.78258267,16.4391075 C9.64533676,16.4391075 10.3131005,16.3261676 10.7950073,16.0905605 C11.6640729,15.6573643 12.0998681,14.8329251 12.0998681,13.6088524 L12.0998681,13.6088524 Z M31.8117087,10.3759192 C31.9083871,11.0260849 31.9521225,11.9694042 31.9343759,13.2023874 L21.5701888,13.2023874 C21.6273641,14.6329598 22.1212257,15.6333803 23.0578622,16.2058766 C23.6227104,16.5648933 24.3075525,16.7402064 25.1094928,16.7402064 C25.9550943,16.7402064 26.6443174,16.5264299 27.1748603,16.0869963 C27.4639301,15.8540624 27.7189174,15.5252669 27.9393767,15.1104113 L31.7381975,15.1104113 C31.6386975,15.9553445 31.1812946,16.8123068 30.3593058,17.6831545 C29.08578,19.0673183 27.2996808,19.7613679 25.0058346,19.7613679 C23.1108794,19.7613679 21.4408388,19.1760258 19.9912575,18.0095739 C18.5465026,16.8390381 17.8208952,14.9406673 17.8208952,12.3072587 C17.8208952,9.83780242 18.4723232,7.94767373 19.7795601,6.63204614 C21.0916235,5.31396818 22.7849055,4.65793648 24.8721036,4.65793648 C26.109245,4.65793648 27.2244618,4.87906409 28.2193875,5.32362117 C29.2111946,5.76862377 30.0308815,6.46898495 30.6764434,7.43153605 C31.2606718,8.27921663 31.6363957,9.25936587 31.8117087,10.3759192 L31.8117087,10.3759192 Z M28.0725136,10.7467423 C28.0028636,9.75753414 27.6725831,9.00883378 27.0778849,8.49715133 C26.4880876,7.98405806 25.7512678,7.72647187 24.8721036,7.72647187 C23.9152701,7.72647187 23.1764455,8.0018047 22.6514716,8.54296588 C22.1229335,9.08301326 21.7940638,9.81723414 21.6592932,10.7468166 L28.0725136,10.7468166 L28.0725136,10.7467423 L28.0725136,10.7467423 Z" id="Behance"></path>
                        </g>
                    </g>
                </g>
            </g>
        </g>
    </g>
</svg>