<?xml version="1.0" encoding="UTF-8" standalone="no"?>
<svg width="32px" height="32px" viewBox="0 0 32 32" version="1.1" xmlns="http://www.w3.org/2000/svg" xmlns:xlink="http://www.w3.org/1999/xlink">
    <!-- Generator: Sketch 3.6.1 (26313) - http://www.bohemiancoding.com/sketch -->
    <title>shape</title>
    <desc>Created with Sketch.</desc>
    <defs></defs>
    <g id="Page-1" stroke="none" stroke-width="1" fill="none" fill-rule="evenodd">
        <g id="Artboard-1" transform="translate(-1323.000000, -607.000000)" fill="#FFFFFF">
            <g id="Sidebar" transform="translate(1279.000000, 0.000000)">
                <g id="Icons" transform="translate(44.000000, 261.000000)">
                    <g id="shape" transform="translate(0.000000, 346.000000)">
                        <g id="Capa_1">
                            <path d="M16.878,0.415 C16.024,-0.15 14.91,-0.137 14.069,0.449 L1.485,9.214 C0.814,9.682 0.414,10.447 0.414,11.266 L0.414,20.71 C0.414,21.55 0.835,22.333 1.536,22.796 L14.326,31.251 C15.162,31.804 16.248,31.804 17.084,31.251 L30.128,22.633 C30.828,22.17 31.25,21.387 31.25,20.547 L31.25,11.268 C31.25,10.429 30.829,9.646 30.129,9.183 L16.878,0.415 L16.878,0.415 Z M26.621,10.645 L21.8,13.882 L17.279,10.594 L17.25,4.127 L26.621,10.645 L26.621,10.645 Z M13.979,4.133 L13.979,10.462 L9.346,13.702 L4.725,10.603 L13.979,4.133 L13.979,4.133 Z M3.458,13.722 L6.449,15.726 L3.458,17.819 L3.458,13.722 L3.458,13.722 Z M14.058,27.215 L4.727,20.957 L9.388,17.699 L14.058,20.832 L14.058,27.215 L14.058,27.215 Z M12.286,15.674 L15.307,13.561 L18.826,15.874 L15.707,17.969 L12.286,15.674 L12.286,15.674 Z M17.354,27.215 L17.354,20.83 L21.817,17.839 L26.622,20.998 L17.354,27.215 L17.354,27.215 Z M27.954,17.927 L24.786,15.845 L27.954,13.72 L27.954,17.927 L27.954,17.927 Z" id="Shape"></path>
                        </g>
                    </g>
                </g>
            </g>
        </g>
    </g>
</svg>