<?xml version="1.0" encoding="UTF-8" standalone="no"?>
<svg width="32px" height="32px" viewBox="0 0 32 32" version="1.1" xmlns="http://www.w3.org/2000/svg" xmlns:xlink="http://www.w3.org/1999/xlink">
    <!-- Generator: Sketch 3.6.1 (26313) - http://www.bohemiancoding.com/sketch -->
    <title>social-2</title>
    <desc>Created with Sketch.</desc>
    <defs></defs>
    <g id="Page-1" stroke="none" stroke-width="1" fill="none" fill-rule="evenodd">
        <g id="Artboard-1" transform="translate(-1323.000000, -401.000000)" fill="#FFFFFF">
            <g id="Sidebar" transform="translate(1279.000000, 0.000000)">
                <g id="Icons" transform="translate(44.000000, 261.000000)">
                    <g id="social-2" transform="translate(0.000000, 140.000000)">
                        <g id="Capa_1">
                            <path d="M29.8229066,7.96012756 C28.3936219,5.51150797 26.4548884,3.57277449 24.0061959,2.14356264 C21.5570661,0.71442369 18.8834989,0 15.9834533,0 C13.0836993,0 10.4093303,0.71442369 7.96063781,2.14356264 C5.51179954,3.57255581 3.57306606,5.51128929 2.14378132,7.96012756 C0.71442369,10.4091116 0,13.0834806 0,15.9830159 C0,18.882697 0.714642369,21.5566287 2.14356264,24.0057585 C3.57277449,26.4543781 5.51150797,28.3931116 7.96034624,29.8224692 C10.4093303,31.2515353 13.0834806,31.9660319 15.9831617,31.9660319 C18.8828428,31.9660319 21.5572847,31.2515353 24.006123,29.8224692 C26.4548155,28.3936219 28.3934761,26.4543781 29.822615,24.0057585 C31.2515353,21.5568474 31.9658861,18.8825513 31.9658861,15.9830159 C31.965959,13.0831891 31.2515353,10.4087472 29.8229066,7.96012756 L29.8229066,7.96012756 Z M15.9832346,2.33089749 C19.4238542,2.33089749 22.4276993,3.46853759 24.9943326,5.74374487 L24.7341777,6.10769932 C24.6301595,6.25363098 24.3700046,6.53426879 23.9539317,6.95070615 C23.5377859,7.36677904 23.0833713,7.76244191 22.5909066,8.13696583 C22.0980046,8.51163554 21.4289932,8.93820501 20.5823417,9.41689294 C19.7359818,9.89558087 18.8342232,10.3155171 17.8767745,10.6761913 C16.2813667,7.73459681 14.5750159,5.08464692 12.7574305,2.7261959 C13.8536674,2.46261503 14.9288383,2.33089749 15.9832346,2.33089749 L15.9832346,2.33089749 Z M5.28648747,7.51234624 C6.61831435,5.83391344 8.24134852,4.54341686 10.1561731,3.64173121 C11.8765194,5.93093394 13.5690205,8.5533303 15.234041,11.50841 C11.0163098,12.6183508 6.81257403,13.1733576 2.62254214,13.173139 C3.06675171,11.0782688 3.95466059,9.19114351 5.28648747,7.51234624 L5.28648747,7.51234624 Z M3.24665148,20.9052574 C2.63610023,19.3444738 2.33089749,17.7035809 2.33089749,15.9830159 C2.33089749,15.7886834 2.338041,15.6429704 2.35174487,15.5459499 C7.3744328,15.5459499 12.0432255,14.9009932 16.3580501,13.6104237 C16.8021139,14.4705604 17.1697859,15.2406014 17.461139,15.9206196 C17.4049385,15.9483189 17.315426,15.9793713 17.1904875,16.0141412 C17.0651845,16.0488383 16.9752346,16.0728929 16.9192528,16.0869613 L16.1494305,16.357467 C15.6219772,16.5517995 14.9315353,16.8848474 14.078615,17.3563189 C13.2254761,17.8285194 12.3202187,18.3900866 11.3628428,19.0423326 C10.405467,19.6946515 9.41689294,20.558287 8.39726651,21.6338952 C7.37749431,22.7090661 6.5207836,23.8637631 5.8270615,25.0984966 C4.71712073,23.8637631 3.85705695,22.4656036 3.24665148,20.9052574 L3.24665148,20.9052574 Z M15.9832346,29.6353531 C12.7365831,29.6353531 9.83690205,28.5946606 7.28397267,26.513713 L7.59617312,26.7427426 C8.08171298,25.6741321 8.79613667,24.6473622 9.73980866,23.6625057 C10.6833349,22.6776492 11.5920182,21.8829704 12.4660774,21.2792711 C13.3401367,20.6761549 14.2904419,20.1073713 15.3172847,19.5725558 C16.3439089,19.0387608 17.0441913,18.6984966 17.4191526,18.5532938 C17.7938223,18.4076538 18.0921731,18.2929203 18.3141321,18.2095308 L18.3555353,18.1886105 L18.3974487,18.1886105 C19.7566834,21.7542415 20.7283462,25.2091481 21.3108337,28.55282 C19.5904146,29.2746059 17.8148155,29.6351344 15.9832346,29.6353531 L15.9832346,29.6353531 Z M27.4715991,23.360656 C26.4448292,24.9494305 25.1611845,26.2642733 23.6216128,27.3044556 C23.0523189,24.1134943 22.1648474,20.8596264 20.9574487,17.5439453 C23.7184146,17.1133667 26.5556264,17.3149157 29.4692301,18.1470615 C29.1638815,20.0339681 28.4978588,21.7721731 27.4715991,23.360656 L27.4715991,23.360656 Z M29.4273166,15.795754 C29.2886014,15.7682005 29.1149704,15.7367107 28.9069339,15.7022323 C28.6988975,15.667754 28.4454487,15.6259134 28.1470979,15.5773667 C27.8491845,15.52882 27.5156993,15.4838451 27.1483189,15.4421503 C26.780574,15.4005285 26.3887016,15.3624784 25.9721185,15.3277813 C25.5560456,15.2929385 25.1119818,15.2654579 24.6405103,15.2444647 C24.1682369,15.2237631 23.6898405,15.2132665 23.2041549,15.2132665 C22.7189795,15.2132665 22.208656,15.2273349 21.6747882,15.2548884 C21.1407745,15.2822232 20.6241093,15.3313531 20.1247198,15.4006014 C20.0828064,15.3311344 20.0309066,15.2166196 19.9685103,15.0569841 C19.9061868,14.8975672 19.8607016,14.7759818 19.8338041,14.692738 C19.5698588,14.1100319 19.2645103,13.4509339 18.9173212,12.7158087 C19.874697,12.3270706 20.7871708,11.8797995 21.6548155,11.3732665 C22.5216583,10.8667335 23.2148702,10.4161093 23.7354715,10.020738 C24.2558542,9.62492938 24.7483189,9.20521185 25.2130114,8.76136674 C25.6779954,8.31744875 25.9793349,8.00889294 26.1185604,7.83540774 C26.2574943,7.66163098 26.3892118,7.49179043 26.5139317,7.32552164 L26.5348519,7.30452847 C28.5604009,9.77414123 29.5944601,12.618205 29.6355718,15.837303 L29.4273166,15.795754 L29.4273166,15.795754 Z" id="Shape"></path>
                        </g>
                    </g>
                </g>
            </g>
        </g>
    </g>
</svg>