<?xml version="1.0" encoding="UTF-8" standalone="no"?>
<svg width="32px" height="27px" viewBox="0 0 32 27" version="1.1" xmlns="http://www.w3.org/2000/svg" xmlns:xlink="http://www.w3.org/1999/xlink">
    <!-- Generator: Sketch 3.6.1 (26313) - http://www.bohemiancoding.com/sketch -->
    <title>social-media</title>
    <desc>Created with Sketch.</desc>
    <defs></defs>
    <g id="Page-1" stroke="none" stroke-width="1" fill="none" fill-rule="evenodd">
        <g id="Artboard-1" transform="translate(-1323.000000, -535.000000)" fill="#FFFFFF">
            <g id="Sidebar" transform="translate(1279.000000, 0.000000)">
                <g id="Icons" transform="translate(44.000000, 261.000000)">
                    <g id="social-media" transform="translate(0.000000, 274.000000)">
                        <g id="Capa_1">
                            <path d="M0,13.4527378 C0,14.9023353 0.135599047,16.2139593 0.40685963,17.3874222 C0.677995237,18.5607601 1.05348587,19.5802525 1.53326904,20.4459618 C2.01305222,21.3116711 2.62318544,22.0730879 3.36373121,22.7301496 C4.10421449,23.3872739 4.90737327,23.9244211 5.77302009,24.3415912 C6.63866691,24.7586989 7.62691527,25.097634 8.73770267,25.3584591 C9.84849008,25.6192217 10.982773,25.8017493 12.1404889,25.9061043 C13.2982048,26.0103968 14.5706488,26.0625118 15.9578208,26.0625118 C17.3554283,26.0625118 18.6331213,26.0103968 19.7908997,25.9061043 C20.9484906,25.8017493 22.085523,25.6191592 23.2014969,25.3584591 C24.3173459,25.097634 25.3108432,24.7586989 26.181739,24.3415912 C27.0526973,23.9243586 27.8609801,23.3872739 28.6068374,22.7301496 C29.3526946,22.0730879 29.9678894,21.3115461 30.4529216,20.4459618 C30.9378287,19.5802525 31.3159439,18.5608226 31.5870795,17.3874222 C31.8582776,16.2140843 31.9938766,14.9023353 31.9938766,13.4527378 C31.9938766,10.8660453 31.1281673,8.62884851 29.3969362,6.74102232 C29.4907932,6.49069523 29.5768392,6.20649963 29.6550743,5.88831052 C29.7333093,5.57018391 29.8062953,5.11652074 29.8740323,4.52725852 C29.9418944,3.93787132 29.9157744,3.25743905 29.7957973,2.48558678 C29.6759453,1.71367202 29.4543002,0.926322709 29.1307371,0.123101439 L28.896157,0.0761729211 C28.729189,0.044928901 28.4553039,0.052739906 28.0746892,0.0996684243 C27.6940746,0.146596943 27.2507219,0.240453979 26.7450062,0.381302022 C26.239103,0.522087577 25.5872903,0.793348159 24.789318,1.19489631 C23.9913457,1.59644445 23.1491319,2.09966064 22.2625516,2.70460736 C20.7399055,2.28737471 18.6486183,2.07872715 15.9890023,2.07872715 C13.3397594,2.07872715 11.2537836,2.28737471 9.73101256,2.70460736 C8.84443225,2.09959815 7.99696944,1.59644445 7.18868664,1.19489631 C6.38040384,0.793348159 5.7364021,0.522087577 5.25661892,0.38136451 C4.77689824,0.240516467 4.32835909,0.149283928 3.91118893,0.107541917 C3.49395628,0.0657999064 3.23056919,0.052802394 3.12109015,0.0684244041 C3.0116111,0.0840464142 2.92550258,0.10235541 2.86295205,0.123163927 C2.53963893,0.926385197 2.31799385,1.71367202 2.19807931,2.48564927 C2.07816476,3.25750154 2.05204475,3.9379963 2.11984428,4.52732101 C2.1876438,5.11658323 2.26069232,5.5702464 2.33886486,5.88837301 C2.41709989,6.20656211 2.50314592,6.49075772 2.59700295,6.74108481 C0.86570931,8.62884851 0,10.8660453 0,13.4527378 L0,13.4527378 Z M3.92687343,17.3796112 C3.92687343,15.8777111 4.61005517,14.5009121 5.97635617,13.2493392 C6.38309083,12.8736611 6.85768749,12.589528 7.40002119,12.3966274 C7.9423549,12.2036018 8.55511262,12.0941228 9.23829436,12.0680028 C9.92147611,12.0419453 10.5759134,12.0471318 11.2017311,12.0836873 C11.8274863,12.1201803 12.5993386,12.1697333 13.5171629,12.2322838 C14.4349873,12.2948969 15.2277105,12.3261409 15.8952078,12.3261409 C16.5627675,12.3261409 17.3554283,12.2948969 18.2732526,12.2322838 C19.1911395,12.1697333 19.9628668,12.1201803 20.588872,12.0836873 C21.2146272,12.0471318 21.8690019,12.0419453 22.5522462,12.0680028 C23.2354904,12.0941228 23.8481232,12.2036018 24.3906443,12.3966274 C24.9329155,12.5895905 25.4073872,12.8737236 25.8141844,13.2493392 C27.1804854,14.4800411 27.8637296,15.8568401 27.8637296,17.3796112 C27.8637296,18.2765645 27.7515636,19.0718498 27.5272315,19.7655295 C27.3030244,20.4592718 27.0162043,21.040598 26.6667087,21.5098832 C26.3172756,21.9792308 25.8323684,22.378217 25.2117997,22.7067166 C24.5911684,23.0352787 23.9863467,23.2881678 23.3970845,23.4656964 C22.8076973,23.6429749 22.0515295,23.7811985 21.1284562,23.8803045 C20.2053204,23.9794105 19.3813531,24.039399 18.6564918,24.0602076 C17.9315056,24.0810786 17.0111817,24.0915141 15.8952078,24.0915141 C14.7792339,24.0915141 13.858785,24.0810786 13.1339238,24.0602076 C12.4090625,24.039399 11.5850327,23.9794105 10.6620219,23.8803045 C9.73901103,23.7811985 8.98284326,23.6429749 8.39351855,23.4656964 C7.80425633,23.2881678 7.19930961,23.0352162 6.57874088,22.7067166 C5.95817215,22.378217 5.47313998,21.9792933 5.12376935,21.5098832 C4.77439872,21.0405355 4.48751613,20.4592718 4.26330904,19.7655295 C4.03897697,19.0718498 3.92687343,18.2764395 3.92687343,17.3796112 L3.92687343,17.3796112 Z M19.9961729,17.064234 C19.9961729,18.720792 20.8913766,20.06366 21.9957902,20.06366 C23.1002038,20.06366 23.9954075,18.720792 23.9954075,17.064234 C23.9954075,15.4076761 23.1002038,14.0648081 21.9957902,14.0648081 C20.8913766,14.0648081 19.9961729,15.4076761 19.9961729,17.064234 L19.9961729,17.064234 Z M7.99846916,17.064234 C7.99846916,18.720792 8.89373531,20.06366 9.99808645,20.06366 C11.1024376,20.06366 11.9977037,18.720792 11.9977037,17.064234 C11.9977037,15.4076761 11.1024376,14.0648081 9.99808645,14.0648081 C8.89373531,14.0648081 7.99846916,15.4076761 7.99846916,17.064234 L7.99846916,17.064234 Z" id="Shape"></path>
                        </g>
                    </g>
                </g>
            </g>
        </g>
    </g>
</svg>