<?xml version="1.0" encoding="UTF-8" standalone="no"?>
<svg width="32px" height="32px" viewBox="0 0 32 32" version="1.1" xmlns="http://www.w3.org/2000/svg" xmlns:xlink="http://www.w3.org/1999/xlink">
    <!-- Generator: Sketch 3.6.1 (26313) - http://www.bohemiancoding.com/sketch -->
    <title>social-1</title>
    <desc>Created with Sketch.</desc>
    <defs></defs>
    <g id="Page-1" stroke="none" stroke-width="1" fill="none" fill-rule="evenodd">
        <g id="Artboard-1" transform="translate(-1323.000000, -328.000000)" fill="#FFFFFF">
            <g id="Sidebar" transform="translate(1279.000000, 0.000000)">
                <g id="Icons" transform="translate(44.000000, 261.000000)">
                    <g id="social-1" transform="translate(0.000000, 67.000000)">
                        <g id="Capa_1">
                            <path d="M29.5762413,0 L2.35968445,0 C1.05644548,0 0.000148491879,1.02407425 0.000148491879,2.28803712 L0.000148491879,29.6455128 C0.000148491879,30.9095499 1.05681671,31.9345151 2.35968445,31.9345151 L29.5762413,31.9345151 C30.8791833,31.9345151 31.9342923,30.9088817 31.9342923,29.6455128 L31.9342923,2.28803712 C31.9342923,1.02444548 30.8791833,0 29.5762413,0 L29.5762413,0 Z M9.68167053,26.7313596 L4.85664965,26.7313596 L4.85664965,12.3133179 L9.68167053,12.3133179 L9.68167053,26.7313596 L9.68167053,26.7313596 Z M7.26964269,10.3435731 L7.23719722,10.3435731 C5.61915545,10.3435731 4.57028306,9.2370116 4.57028306,7.85165661 C4.57028306,6.43838515 5.64996752,5.36181903 7.30008353,5.36181903 C8.95034803,5.36181903 9.96543852,6.43808817 9.99751276,7.85165661 C9.99751276,9.23730858 8.95071926,10.3435731 7.26964269,10.3435731 L7.26964269,10.3435731 Z M27.0744501,26.7313596 L22.2509884,26.7313596 L22.2509884,19.0172065 C22.2509884,17.0788677 21.5521114,15.7562506 19.8077773,15.7562506 C18.473355,15.7562506 17.6812251,16.6485383 17.3333828,17.5100139 C17.2044919,17.8176891 17.1725661,18.2480186 17.1725661,18.6777541 L17.1725661,26.7310626 L12.3499954,26.7310626 C12.3499954,26.7310626 12.4131044,13.6653364 12.3499954,12.3130951 L17.1733086,12.3130951 L17.1733086,14.3571601 C17.8136056,13.3749606 18.9578097,11.9738654 21.5192204,11.9738654 C24.6939768,11.9738654 27.0744501,14.0333735 27.0744501,18.464 L27.0744501,26.7313596 L27.0744501,26.7313596 Z M17.1421253,14.4187828 C17.1532253,14.4005828 17.1687253,14.3786828 17.1841253,14.3573828 L17.1841253,14.4187828 L17.1421253,14.4187828 L17.1421253,14.4187828 Z" id="LinkedIn__x28_alt_x29_"></path>
                        </g>
                    </g>
                </g>
            </g>
        </g>
    </g>
</svg>