<?xml version="1.0" encoding="UTF-8" standalone="no"?>
<svg width="32px" height="27px" viewBox="0 0 32 27" version="1.1" xmlns="http://www.w3.org/2000/svg" xmlns:xlink="http://www.w3.org/1999/xlink">
    <!-- Generator: Sketch 3.6.1 (26313) - http://www.bohemiancoding.com/sketch -->
    <title>social</title>
    <desc>Created with Sketch.</desc>
    <defs></defs>
    <g id="Page-1" stroke="none" stroke-width="1" fill="none" fill-rule="evenodd">
        <g id="Artboard-1" transform="translate(-1323.000000, -261.000000)" fill="#FFFFFF">
            <g id="Sidebar" transform="translate(1279.000000, 0.000000)">
                <g id="Icons" transform="translate(44.000000, 261.000000)">
                    <g id="social">
                        <g id="Capa_1">
                            <path d="M31.9977782,3.11520976 C30.8200821,3.63991374 29.5564313,3.99576197 28.2287327,4.15462937 C29.5844032,3.3383706 30.6221351,2.0436697 31.1139702,0.50567354 C29.84232,1.26158162 28.4386527,1.81046793 26.943018,2.10801573 C25.7453496,0.823355753 24.0417816,0.0231834942 22.1522396,0.0231834942 C18.5271841,0.0231834942 15.5879372,2.97852702 15.5879372,6.62143727 C15.5879372,7.13809799 15.6459201,7.64272013 15.7579123,8.12526275 C10.3033368,7.84979447 5.4666008,5.22217408 2.22943996,1.22940861 C1.66357076,2.20248452 1.34165847,3.33632036 1.34165847,4.54664596 C1.34165847,6.83655486 2.50136879,8.85704107 4.26093289,10.0391364 C3.18519059,10.0029681 2.17344385,9.70542027 1.28770143,9.21083906 L1.28770143,9.29326926 C1.28770143,12.4898578 3.55112597,15.1576945 6.55232934,15.7648812 C6.00245902,15.9136551 5.42263,15.9960853 4.82277623,15.9960853 C4.39891024,15.9960853 3.98900406,15.9538714 3.58709733,15.8734389 C4.42285629,18.4970639 6.84626971,20.4049446 9.71754746,20.457252 C7.47210861,22.2264523 4.64082808,23.2779105 1.56564292,23.2779105 C1.03579736,23.2779105 0.513898957,23.2457375 5.22839512e-05,23.187437 C2.9053146,25.0631972 6.35443458,26.1568694 10.0614713,26.1568694 C22.1363453,26.1568694 28.7366713,16.1006476 28.7366713,7.37939559 L28.7146597,6.5249708 C30.0042957,5.60010183 31.1199829,4.43808832 31.9977782,3.11520976 L31.9977782,3.11520976 Z" id="Shape"></path>
                        </g>
                    </g>
                </g>
            </g>
        </g>
    </g>
</svg>